<?xml version="1.0" encoding="UTF-8" standalone="no"?>
<!-- Created with Inkscape (http://www.inkscape.org/) -->

<svg
   xmlns:dc="http://purl.org/dc/elements/1.1/"
   xmlns:cc="http://creativecommons.org/ns#"
   xmlns:rdf="http://www.w3.org/1999/02/22-rdf-syntax-ns#"
   xmlns:svg="http://www.w3.org/2000/svg"
   xmlns="http://www.w3.org/2000/svg"
   xmlns:sodipodi="http://sodipodi.sourceforge.net/DTD/sodipodi-0.dtd"
   xmlns:inkscape="http://www.inkscape.org/namespaces/inkscape"
   width="240mm"
   height="120mm"
   viewBox="0 0 240 120"
   version="1.1"
   id="svg8"
   inkscape:version="0.92.3 (2405546, 2018-03-11)"
   sodipodi:docname="aihe.svg">
  <defs
     id="defs2">
    <inkscape:perspective
       sodipodi:type="inkscape:persp3d"
       inkscape:vp_x="0 : 60 : 1"
       inkscape:vp_y="0 : 1000 : 0"
       inkscape:vp_z="240 : 60 : 1"
       inkscape:persp3d-origin="120 : 40 : 1"
       id="perspective22" />
  </defs>
  <sodipodi:namedview
     id="base"
     pagecolor="#ffffff"
     bordercolor="#666666"
     borderopacity="1.0"
     inkscape:pageopacity="0.0"
     inkscape:pageshadow="2"
     inkscape:zoom="0.99437388"
     inkscape:cx="284.27627"
     inkscape:cy="182.72055"
     inkscape:document-units="mm"
     inkscape:current-layer="layer1"
     showgrid="false"
     showborder="true"
     width="200mm"
     showguides="true"
     inkscape:guide-bbox="true"
     inkscape:window-width="1011"
     inkscape:window-height="1033"
     inkscape:window-x="30"
     inkscape:window-y="31"
     inkscape:window-maximized="0">
    <inkscape:grid
       type="xygrid"
       id="grid815"
       units="mm"
       spacingx="10"
       spacingy="10"
       empspacing="4"
       dotted="false" />
  </sodipodi:namedview>
  <metadata
     id="metadata5">
    <rdf:RDF>
      <cc:Work
         rdf:about="">
        <dc:format>image/svg+xml</dc:format>
        <dc:type
           rdf:resource="http://purl.org/dc/dcmitype/StillImage" />
        <dc:title />
      </cc:Work>
    </rdf:RDF>
  </metadata>
  <g
     inkscape:label="Layer 1"
     inkscape:groupmode="layer"
     id="layer1"
     transform="translate(0,-177)">
    <path
       style="fill:none;stroke:#000000;stroke-width:0.26458332px;stroke-linecap:butt;stroke-linejoin:miter;stroke-opacity:1"
       d="m 26.608034,212.91861 c 0.005,-0.92355 -0.236389,-1.8035 0.79824,-2.39472 0.308031,-0.17602 0.709547,0 1.064321,0 0.620855,0 1.242565,0.0326 1.862564,0 7.014773,-0.3692 -0.879756,-0.26608 6.918086,-0.26608 0.97563,0 1.96645,-0.17151 2.926885,0 3.59892,0.64266 5.587473,1.77376 8.78065,3.45905 1.790406,0.94493 3.630334,1.8142 5.321607,2.92688 3.632993,2.82566 5.264938,4.24541 9.046731,6.65201 5.33591,3.39558 3.809698,1.89095 9.046731,5.58768 1.550707,1.09462 2.908448,2.4616 4.523367,3.45905 3.621823,2.23701 5.116168,2.18739 9.046731,3.45904 2.363899,0.76479 5.956067,2.29531 8.514569,2.66081 1.141429,0.16306 2.306032,0 3.459046,0 1.064321,0 2.144378,0.18236 3.192958,0 1.02278,-0.17788 1.98181,-0.63474 2.92689,-1.06432 2.03219,-0.92373 3.74432,-1.85198 5.05553,-3.72513 0.68238,-0.97484 1.06432,-2.12864 1.59648,-3.19296 0.62085,-1.24171 1.43636,-2.4039 1.86256,-3.72513 0.47005,-1.45715 0.38845,-3.04814 0.79824,-4.52336 0.48066,-1.73039 1.39003,-3.32291 1.86256,-5.05553 3.5182,-12.90007 -2.63234,4.29658 2.39472,-6.38593 0.26705,-0.56746 -0.0144,-1.30161 0.26609,-1.86256 1.39736,-2.79473 0.85536,0.77872 1.3304,-1.59648 0.0348,-0.17394 0.15866,-0.61149 0,-0.53216 -0.27712,0.13856 -0.97839,1.7398 -1.06432,1.86256 -0.39725,0.5675 -0.90805,1.04742 -1.33041,1.59648 -0.46519,0.60475 -0.85902,1.26263 -1.3304,1.86256 -3.83719,4.88371 0.50622,-1.08121 -2.92688,3.72513"
       id="path27"
       inkscape:connector-curvature="0" />
    <path
       style="fill:none;stroke:#000000;stroke-width:0.26458332px;stroke-linecap:butt;stroke-linejoin:miter;stroke-opacity:1"
       d="m 108.2947,220.63494 c -1.51037,1.67819 -3.27909,3.11126 -4.78945,4.78945 -3.30954,3.67726 -1.37843,2.36145 -5.321609,5.58769 -1.584553,1.29645 -4.443381,3.13964 -6.119847,4.25728"
       id="path29"
       inkscape:connector-curvature="0" />
    <path
       style="fill:none;stroke:#000000;stroke-width:0.26458332px;stroke-linecap:butt;stroke-linejoin:miter;stroke-opacity:1"
       d="m 81.42058,239.79273 c -0.709546,0.44346 -1.37155,0.97412 -2.128642,1.3304 -1.281543,0.82705 -2.909996,0.70167 -4.257286,1.3304 -0.758232,0.35384 -1.380246,0.9562 -2.128641,1.3304 -0.327086,0.16355 -0.717397,0.15044 -1.064321,0.26608 -0.71891,0.23964 -1.432118,0.49973 -2.128645,0.79824 -0.535664,0.22958 -2.238605,1.20526 -2.926881,1.33041 -0.698103,0.12692 -1.419095,0 -2.128644,0"
       id="path31"
       inkscape:connector-curvature="0" />
    <path
       style="fill:none;stroke:#000000;stroke-width:0.26458332px;stroke-linecap:butt;stroke-linejoin:miter;stroke-opacity:1"
       d="m 64.65752,246.17866 c -1.064321,-0.35478 -2.128642,-0.70955 -3.192963,-1.06432 -0.08869,-0.0887 -0.161716,-0.19651 -0.266081,-0.26609 -0.452424,-0.30161 -0.776602,-0.2228 -1.064321,-0.79824 -0.163544,-0.32708 -0.117559,-0.73015 -0.266081,-1.06432 -0.210042,-0.47259 -0.649634,-0.83504 -0.79824,-1.3304 -0.127431,-0.42477 0,-0.88693 0,-1.3304 0,-1.43592 0,-2.82137 0,-4.25729 0,-1.68517 0,-3.37035 0,-5.05552 0,-0.62086 -0.262551,-1.29996 0,-1.86257 0.398706,-0.85437 1.216383,-1.44207 1.862561,-2.12864 2.596198,-2.75846 1.823969,-2.18629 5.055526,-3.72512 0.967584,-0.46076 1.910194,-0.99151 2.926885,-1.33041 1.996469,-0.66548 5.4284,-1.13473 7.450248,-1.3304 3.72138,-0.36013 4.999503,-0.26608 8.78065,-0.26608 1.596483,0 3.192965,0 4.789448,0 4.700752,0 9.401506,0 14.102258,0 1.59648,0 3.20901,-0.22577 4.78944,0 5.46375,0.78054 3.90497,1.85131 9.31282,3.45905 1.63531,0.48617 3.39316,0.41462 5.05552,0.79824 1.80455,0.41643 3.53918,1.09374 5.32161,1.59648 5.90072,1.66431 3.93955,0.98489 9.57889,2.39472 1.33578,0.33395 2.62639,0.88235 3.99121,1.06433 14.68711,1.95828 -3.97024,-1.59229 6.65201,0.53216"
       id="path33"
       inkscape:connector-curvature="0" />
    <path
       style="fill:none;stroke:#000000;stroke-width:0.26458332px;stroke-linecap:butt;stroke-linejoin:miter;stroke-opacity:1"
       d="m 156.18915,222.23143 c -0.35477,0.70954 -0.70954,1.41909 -1.06432,2.12864 -0.44346,1.15301 -0.79233,2.34703 -1.3304,3.45904 -1.35163,2.79337 -3.63716,6.41021 -5.32161,9.04673 -1.13905,1.78287 -2.25478,3.58212 -3.45904,5.32161 -1.19149,1.72105 -2.46197,3.38636 -3.72513,5.05553 -3.01826,3.98841 -4.21899,5.72607 -7.98241,9.04673 -1.52799,1.34823 -9.31635,7.13804 -10.64321,7.98241 -1.87516,1.19328 -3.91881,2.09929 -5.85377,3.19296 -2.14536,1.2126 -4.20108,2.58521 -6.38592,3.72513 -4.60833,2.40434 -7.88167,3.36553 -12.771859,5.3216 -0.01336,0.005 -12.767656,5.32008 -12.771855,5.32161 -5.028144,1.82842 -5.484752,1.51448 -10.643214,2.6608 -6.33826,1.40851 -2.111293,1.06433 -8.514572,1.06433 -1.06432,0 -2.145807,0.19039 -3.192962,0 -0.93985,-0.17089 -1.791168,-0.66904 -2.660804,-1.06433 -2.960946,-1.34588 -3.081734,-1.48436 -5.587687,-3.19296 -2.389402,-1.62914 -4.266798,-2.83985 -6.385928,-4.78945 -1.292326,-1.18894 -2.483416,-2.48341 -3.725124,-3.72512"
       id="path35"
       inkscape:connector-curvature="0" />
    <path
       style="fill:none;stroke:#000000;stroke-width:0.26458332px;stroke-linecap:butt;stroke-linejoin:miter;stroke-opacity:1"
       d="m 29.534916,251.50026 c 0.392059,-1.01182 -0.28004,-2.16614 0,-3.19296 0.207505,-0.76085 1.597369,-2.85289 1.862563,-3.45905 0.337257,-0.77087 0.439968,-1.63339 0.79824,-2.39472 0.35628,-0.75709 0.886937,-1.41909 1.330402,-2.12864 0.532162,-1.06432 1.097825,-2.11254 1.596483,-3.19297 0.749157,-1.62317 2.297083,-5.57158 3.192965,-7.18417 1.811975,-3.26155 3.258354,-4.92866 5.853766,-7.71632 1.126471,-1.20992 5.1485,-5.52612 7.184167,-6.11985 0.951961,-0.27766 1.951257,0.35477 2.926885,0.53216"
       id="path37"
       inkscape:connector-curvature="0" />
    <path
       style="fill:none;stroke:#000000;stroke-width:0.26458332px;stroke-linecap:butt;stroke-linejoin:miter;stroke-opacity:1"
       d="m 58.537673,212.91861 c 11.335575,-1.88926 -10.129732,1.55173 9.844971,-0.79824 0.835657,-0.0983 1.564754,-0.65991 2.394725,-0.79824 1.02421,-0.1707 4.126164,0.11119 5.055526,0.26608 0.721431,0.12024 1.411459,0.38873 2.128642,0.53216 0.614979,0.123 1.263954,0.079 1.862563,0.26608 0.833766,0.26056 1.594432,0.7142 2.394723,1.06432 0.618836,0.27075 1.258403,0.49617 1.86256,0.79824 0.639578,0.31979 1.201354,0.79206 1.862564,1.06433 0.856239,0.35257 1.801045,0.45434 2.660803,0.79824 0.920697,0.36828 1.720067,1.01682 2.660804,1.3304 0.940736,0.31358 1.966994,0.2833 2.926884,0.53216 1.439191,0.37313 2.842702,0.87274 4.257283,1.3304 1.601129,0.51802 3.121769,1.37112 4.789449,1.59648 1.67231,0.22599 3.37035,-0.17739 5.05553,-0.26608"
       id="path39"
       inkscape:connector-curvature="0" />
    <path
       style="fill:none;stroke:#000000;stroke-width:0.26458332px;stroke-linecap:butt;stroke-linejoin:miter;stroke-opacity:1"
       d="m 108.2947,220.63494 c 2.12864,0.88694 4.20404,1.91437 6.38592,2.66081 7.23415,2.47484 0.22445,-1.08283 7.45025,2.12864 1.19668,0.53186 2.2604,1.33516 3.45904,1.86256 1.02689,0.45183 2.17164,0.60008 3.19297,1.06432 0.94162,0.42801 1.77387,1.06433 2.6608,1.59648 0.97563,0.35478 1.97269,0.65539 2.92689,1.06433 0.13045,0.0559 3.16465,1.67888 3.9912,1.86256 0.34633,0.077 0.70955,0 1.06432,0 0.35478,0 0.70955,0 1.06432,0 1.15302,0 2.30603,0 3.45905,0 0.35477,0 0.70955,0 1.06432,0 1.44423,0 2.10535,0.29519 3.19296,-1.06432 0.35042,-0.43803 0.35478,-1.06432 0.53217,-1.59648"
       id="path41"
       inkscape:connector-curvature="0" />
    <path
       style="fill:none;stroke:#000000;stroke-width:0.26458332px;stroke-linecap:butt;stroke-linejoin:miter;stroke-opacity:1"
       d="m 156.98739,209.72565 c -1.18282,-0.39428 -3.23495,-1.14634 -4.52336,-1.3304 -7.48796,-1.06971 1.20402,1.00148 -9.31281,-1.06432 -15.86146,-3.11565 -2.16326,-1.33617 -19.68995,-4.25729 -2.82136,-0.47022 -5.68473,-0.64817 -8.51457,-1.06432 -3.20256,-0.47096 -6.35518,-1.30342 -9.57889,-1.59648 -2.64988,-0.2409 -5.32161,0 -7.982409,0"
       id="path43"
       inkscape:connector-curvature="0" />
    <path
       style="fill:none;stroke:#000000;stroke-width:0.26458332px;stroke-linecap:butt;stroke-linejoin:miter;stroke-opacity:1"
       d="m 63.061037,209.99173 c -4.045736,4.6237 0.247949,0.49367 -3.725124,2.6608 -0.440463,0.24026 -0.709547,0.70955 -1.064321,1.06433 -0.620853,0.44346 -1.180142,0.98919 -1.862561,1.3304 -0.57753,0.28876 -1.277443,0.2591 -1.862563,0.53216 -0.758233,0.35384 -1.380247,0.9562 -2.128642,1.3304 -0.677796,0.3389 -1.450848,0.45934 -2.128644,0.79824 -1.156515,0.57826 -2.924154,1.89862 -3.991206,2.6608"
       id="path45"
       inkscape:connector-curvature="0" />
    <path
       style="fill:none;stroke:#000000;stroke-width:0.26458332px;stroke-linecap:butt;stroke-linejoin:miter;stroke-opacity:1"
       d="m 42.572852,225.95655 c -0.239382,1.04814 -0.386294,2.11104 -0.266081,3.19296 0.04039,0.36346 0.05793,0.76366 0.266081,1.06433 1.776095,2.56546 6.088168,5.76348 7.98241,7.18417 2.243786,1.68284 4.535075,3.31033 6.91809,4.78944 2.766758,1.7173 5.659326,3.22367 8.514569,4.78945 6.001618,3.29121 9.701146,5.26815 15.964821,7.98241 2.629506,1.13945 5.321607,2.12864 7.98241,3.19296"
       id="path47"
       inkscape:connector-curvature="0" />
    <path
       style="fill:none;stroke:#000000;stroke-width:0.26458332px;stroke-linecap:butt;stroke-linejoin:miter;stroke-opacity:1"
       d="m 134.10449,269.85981 c 1.97825,0.56521 4.29146,1.33467 6.38592,1.59648 0.52805,0.066 1.06433,0 1.59649,0 0.35477,0 0.72775,0.11219 1.06432,0 0.23799,-0.0793 0.31435,-0.4077 0.53216,-0.53216 0.86335,-0.49335 1.48458,-0.55003 2.39472,-0.79825 0.62295,-0.16989 1.2919,-0.23004 1.86256,-0.53215 0.95683,-0.50656 1.7183,-1.32985 2.66081,-1.86257 1.10552,-0.62486 2.3442,-0.98839 3.45904,-1.59648 0.84222,-0.45939 1.57207,-1.10289 2.39473,-1.59648 1.39616,-0.8377 2.83818,-1.59648 4.25728,-2.39472 1.41909,-0.79825 2.83819,-1.59649 4.25728,-2.39473"
       id="path49"
       inkscape:connector-curvature="0" />
    <path
       style="fill:none;stroke:#000000;stroke-width:0.26458332px;stroke-linecap:butt;stroke-linejoin:miter;stroke-opacity:1"
       d="m 205.94618,242.71961 c 1.17692,-1.17692 1.91991,-1.71118 2.6608,-3.19296 0.97382,-1.94765 0.79824,-4.28816 0.79824,-6.38593 0,-1.15301 0,-2.30603 0,-3.45904 0,-4.37662 0.43599,-5.53196 -2.39472,-10.11106 -1.8573,-3.00445 -4.47164,-5.46958 -6.65201,-8.24849 -12.94407,-16.49734 -0.5113,-1.57214 -16.49698,-20.2221"
       id="path51"
       inkscape:connector-curvature="0" />
    <path
       style="fill:none;stroke:#000000;stroke-width:0.26458332px;stroke-linecap:butt;stroke-linejoin:miter;stroke-opacity:1"
       d="m 142.0869,165.02415 c 0.33087,0.39052 -1.13342,1.20252 -1.3304,1.59649 -0.0793,0.15866 0.0793,0.3735 0,0.53216 -0.0561,0.11219 -0.17739,0.17738 -0.26609,0.26608"
       id="path53"
       inkscape:connector-curvature="0" />
    <g
       sodipodi:type="inkscape:box3d"
       id="g24"
       style="fill:#ffffff;stroke:#000000"
       inkscape:perspectiveID="#perspective22"
       inkscape:corner0="21.549581 : 0.90502516 : 0 : 1"
       inkscape:corner7="1.4779759 : -0.019228005 : 0.25 : 1">
      <path
         sodipodi:type="inkscape:box3dside"
         id="path26"
         style="fill:#353564;fill-rule:evenodd;stroke:none;stroke-linejoin:round"
         inkscape:box3dsidetype="6"
         d="m 5.3216066,197.75204 v 40.98759 l 2.5732753,-0.0191 v -40.53817 z"
         points="5.3216066,238.73963 7.8948819,238.72056 7.8948819,198.18239 5.3216066,197.75204 " />
      <path
         sodipodi:type="inkscape:box3dside"
         id="path34"
         style="fill:#afafde;fill-rule:evenodd;stroke:none;stroke-linejoin:round"
         inkscape:box3dsidetype="13"
         d="M 5.3216066,238.73963 48.426621,252.83066 65.982987,251.37989 7.8948819,238.72056 Z"
         points="48.426621,252.83066 65.982987,251.37989 7.8948819,238.72056 5.3216066,238.73963 " />
      <path
         sodipodi:type="inkscape:box3dside"
         id="path36"
         style="fill:#e9e9ff;fill-rule:evenodd;stroke:none;stroke-linejoin:round"
         inkscape:box3dsidetype="11"
         d="M 7.8948819,198.18239 65.982987,-87.425576 V 251.37989 L 7.8948819,238.72056 Z"
         points="65.982987,-87.425576 65.982987,251.37989 7.8948819,238.72056 7.8948819,198.18239 " />
      <path
         sodipodi:type="inkscape:box3dside"
         id="path28"
         style="fill:#4d4d9f;fill-rule:evenodd;stroke:none;stroke-linejoin:round"
         inkscape:box3dsidetype="5"
         d="M 5.3216066,197.75204 48.426621,-120.15648 65.982987,-87.425576 7.8948819,198.18239 Z"
         points="48.426621,-120.15648 65.982987,-87.425576 7.8948819,198.18239 5.3216066,197.75204 " />
      <path
         sodipodi:type="inkscape:box3dside"
         id="path32"
         style="fill:#d7d7ff;fill-rule:evenodd;stroke:none;stroke-linejoin:round"
         inkscape:box3dsidetype="14"
         d="m 48.426621,-120.15648 v 372.98714 l 17.556366,-1.45077 V -87.425576 Z"
         points="48.426621,252.83066 65.982987,251.37989 65.982987,-87.425576 48.426621,-120.15648 " />
      <path
         sodipodi:type="inkscape:box3dside"
         id="path30"
         style="fill:#8686bf;fill-rule:evenodd;stroke:none;stroke-linejoin:round"
         inkscape:box3dsidetype="3"
         d="M 5.3216066,197.75204 48.426621,-120.15648 V 252.83066 L 5.3216066,238.73963 Z"
         points="48.426621,-120.15648 48.426621,252.83066 5.3216066,238.73963 5.3216066,197.75204 " />
    </g>
    <g
       sodipodi:type="inkscape:box3d"
       id="g38"
       style="fill:#ffffff;stroke:#000000"
       inkscape:perspectiveID="#perspective22"
       inkscape:corner0="0.56594312 : 0.075210081 : 0 : 1"
       inkscape:corner7="0.17140679 : 0.047897411 : 0.25 : 1">
      <path
         sodipodi:type="inkscape:box3dside"
         id="path40"
         style="fill:#353564;fill-rule:evenodd;stroke:none;stroke-linejoin:round"
         inkscape:box3dsidetype="6"
         d="m 76.631135,201.74324 v 17.44167 l 22.490912,2.4526 v -15.04049 z"
         points="76.631135,219.18491 99.122047,221.63751 99.122047,206.59702 76.631135,201.74324 " />
      <path
         sodipodi:type="inkscape:box3dside"
         id="path50"
         style="fill:#e9e9ff;fill-rule:evenodd;stroke:none;stroke-linejoin:round"
         inkscape:box3dsidetype="11"
         d="m 99.122047,206.59702 27.513063,-8.43888 v 19.21524 l -27.513063,4.26413 z"
         points="126.63511,198.15814 126.63511,217.37338 99.122047,221.63751 99.122047,206.59702 " />
      <path
         sodipodi:type="inkscape:box3dside"
         id="path42"
         style="fill:#4d4d9f;fill-rule:evenodd;stroke:none;stroke-linejoin:round"
         inkscape:box3dsidetype="5"
         d="m 76.631135,201.74324 25.809795,-11.87467 24.19418,8.28957 -27.513063,8.43888 z"
         points="102.44093,189.86857 126.63511,198.15814 99.122047,206.59702 76.631135,201.74324 " />
      <path
         sodipodi:type="inkscape:box3dside"
         id="path48"
         style="fill:#afafde;fill-rule:evenodd;stroke:none;stroke-linejoin:round"
         inkscape:box3dsidetype="13"
         d="m 76.631135,219.18491 25.809795,-6.00022 24.19418,4.18869 -27.513063,4.26413 z"
         points="102.44093,213.18469 126.63511,217.37338 99.122047,221.63751 76.631135,219.18491 " />
      <path
         sodipodi:type="inkscape:box3dside"
         id="path46"
         style="fill:#d7d7ff;fill-rule:evenodd;stroke:none;stroke-linejoin:round"
         inkscape:box3dsidetype="14"
         d="m 102.44093,189.86857 v 23.31612 l 24.19418,4.18869 v -19.21524 z"
         points="102.44093,213.18469 126.63511,217.37338 126.63511,198.15814 102.44093,189.86857 " />
      <path
         sodipodi:type="inkscape:box3dside"
         id="path44"
         style="fill:#8686bf;fill-rule:evenodd;stroke:none;stroke-linejoin:round"
         inkscape:box3dsidetype="3"
         d="m 76.631135,201.74324 25.809795,-11.87467 v 23.31612 l -25.809795,6.00022 z"
         points="102.44093,189.86857 102.44093,213.18469 76.631135,219.18491 76.631135,201.74324 " />
    </g>
    <g
       sodipodi:type="inkscape:box3d"
       id="g52"
       style="fill:#ffffff;stroke:#000000"
       inkscape:perspectiveID="#perspective22"
       inkscape:corner0="-0.048540897 : 0.00012764363 : 0 : 1"
       inkscape:corner7="-0.056502897 : -0.01050104 : 0.25 : 1">
      <path
         sodipodi:type="inkscape:box3dside"
         id="path54"
         style="fill:#353564;fill-rule:evenodd;stroke:none;stroke-linejoin:round"
         inkscape:box3dsidetype="6"
         d="m 126.12208,257.88619 v 11.17093 l 23.69575,-6.67045 v -8.84648 z"
         points="126.12208,269.05712 149.81783,262.38667 149.81783,253.54019 126.12208,257.88619 " />
      <path
         sodipodi:type="inkscape:box3dside"
         id="path62"
         style="fill:#afafde;fill-rule:evenodd;stroke:none;stroke-linejoin:round"
         inkscape:box3dsidetype="13"
         d="m 126.12208,269.05712 1.06432,0.27053 23.63089,-6.77163 -0.99946,-0.16935 z"
         points="127.1864,269.32765 150.81729,262.55602 149.81783,262.38667 126.12208,269.05712 " />
      <path
         sodipodi:type="inkscape:box3dside"
         id="path64"
         style="fill:#e9e9ff;fill-rule:evenodd;stroke:none;stroke-linejoin:round"
         inkscape:box3dsidetype="11"
         d="m 149.81783,253.54019 0.99946,0.11034 v 8.90549 l -0.99946,-0.16935 z"
         points="150.81729,253.65053 150.81729,262.55602 149.81783,262.38667 149.81783,253.54019 " />
      <path
         sodipodi:type="inkscape:box3dside"
         id="path56"
         style="fill:#4d4d9f;fill-rule:evenodd;stroke:none;stroke-linejoin:round"
         inkscape:box3dsidetype="5"
         d="m 126.12208,257.88619 1.06432,0.17626 23.63089,-4.41192 -0.99946,-0.11034 z"
         points="127.1864,258.06245 150.81729,253.65053 149.81783,253.54019 126.12208,257.88619 " />
      <path
         sodipodi:type="inkscape:box3dside"
         id="path60"
         style="fill:#d7d7ff;fill-rule:evenodd;stroke:none;stroke-linejoin:round"
         inkscape:box3dsidetype="14"
         d="m 127.1864,258.06245 v 11.2652 l 23.63089,-6.77163 v -8.90549 z"
         points="127.1864,269.32765 150.81729,262.55602 150.81729,253.65053 127.1864,258.06245 " />
      <path
         sodipodi:type="inkscape:box3dside"
         id="path58"
         style="fill:#8686bf;fill-rule:evenodd;stroke:none;stroke-linejoin:round"
         inkscape:box3dsidetype="3"
         d="m 126.12208,257.88619 1.06432,0.17626 v 11.2652 l -1.06432,-0.27053 z"
         points="127.1864,258.06245 127.1864,269.32765 126.12208,269.05712 126.12208,257.88619 " />
    </g>
    <g
       sodipodi:type="inkscape:box3d"
       id="g66"
       style="fill:#ffffff;stroke:#000000"
       inkscape:perspectiveID="#perspective22"
       inkscape:corner0="0.21561082 : -0.021855945 : 0 : 1"
       inkscape:corner7="0.07378956 : -0.02932479 : 0.25 : 1">
      <path
         sodipodi:type="inkscape:box3dside"
         id="path68"
         style="fill:#353564;fill-rule:evenodd;stroke:none;stroke-linejoin:round"
         inkscape:box3dsidetype="6"
         d="m 98.715804,271.43203 v 6.14411 l 24.099886,-6.92137 v -5.09607 z"
         points="98.715804,277.57614 122.81569,270.65477 122.81569,265.5587 98.715804,271.43203 " />
      <path
         sodipodi:type="inkscape:box3dside"
         id="path76"
         style="fill:#afafde;fill-rule:evenodd;stroke:none;stroke-linejoin:round"
         inkscape:box3dsidetype="13"
         d="m 98.715804,277.57614 13.037936,5.35911 24.21953,-8.67495 -13.15758,-3.60553 z"
         points="111.75374,282.93525 135.97327,274.2603 122.81569,270.65477 98.715804,277.57614 " />
      <path
         sodipodi:type="inkscape:box3dside"
         id="path78"
         style="fill:#e9e9ff;fill-rule:evenodd;stroke:none;stroke-linejoin:round"
         inkscape:box3dsidetype="11"
         d="m 122.81569,265.5587 13.15758,3.05958 v 5.64202 l -13.15758,-3.60553 z"
         points="135.97327,268.61828 135.97327,274.2603 122.81569,270.65477 122.81569,265.5587 " />
      <path
         sodipodi:type="inkscape:box3dside"
         id="path70"
         style="fill:#4d4d9f;fill-rule:evenodd;stroke:none;stroke-linejoin:round"
         inkscape:box3dsidetype="5"
         d="m 98.715804,271.43203 13.037936,4.54762 24.21953,-7.36137 -13.15758,-3.05958 z"
         points="111.75374,275.97965 135.97327,268.61828 122.81569,265.5587 98.715804,271.43203 " />
      <path
         sodipodi:type="inkscape:box3dside"
         id="path74"
         style="fill:#d7d7ff;fill-rule:evenodd;stroke:none;stroke-linejoin:round"
         inkscape:box3dsidetype="14"
         d="m 111.75374,275.97965 v 6.9556 l 24.21953,-8.67495 v -5.64202 z"
         points="111.75374,282.93525 135.97327,274.2603 135.97327,268.61828 111.75374,275.97965 " />
      <path
         sodipodi:type="inkscape:box3dside"
         id="path72"
         style="fill:#8686bf;fill-rule:evenodd;stroke:none;stroke-linejoin:round"
         inkscape:box3dsidetype="3"
         d="m 98.715804,271.43203 13.037936,4.54762 v 6.9556 l -13.037936,-5.35911 z"
         points="111.75374,275.97965 111.75374,282.93525 98.715804,277.57614 98.715804,271.43203 " />
    </g>
    <g
       sodipodi:type="inkscape:box3d"
       id="g80"
       style="fill:#ffffff;stroke:#000000"
       inkscape:perspectiveID="#perspective22"
       inkscape:corner0="0.72793722 : -0.028331781 : 0 : 1"
       inkscape:corner7="0.39194944 : -0.02896359 : 0.25 : 1">
      <path
         sodipodi:type="inkscape:box3dside"
         id="path82"
         style="fill:#353564;fill-rule:evenodd;stroke:none;stroke-linejoin:round"
         inkscape:box3dsidetype="6"
         d="m 69.446967,264.9708 v 0.36564 l 21.556932,-3.58156 v -0.31943 z"
         points="69.446967,265.33644 91.003899,261.75488 91.003899,261.43545 69.446967,264.9708 " />
      <path
         sodipodi:type="inkscape:box3dside"
         id="path90"
         style="fill:#afafde;fill-rule:evenodd;stroke:none;stroke-linejoin:round"
         inkscape:box3dsidetype="13"
         d="m 69.446967,265.33644 16.76306,6.83983 23.415763,-5.35587 -18.621891,-5.06552 z"
         points="86.210027,272.17627 109.62579,266.8204 91.003899,261.75488 69.446967,265.33644 " />
      <path
         sodipodi:type="inkscape:box3dside"
         id="path92"
         style="fill:#e9e9ff;fill-rule:evenodd;stroke:none;stroke-linejoin:round"
         inkscape:box3dsidetype="11"
         d="m 91.003899,261.43545 18.621891,5.00016 v 0.38479 l -18.621891,-5.06552 z"
         points="109.62579,266.43561 109.62579,266.8204 91.003899,261.75488 91.003899,261.43545 " />
      <path
         sodipodi:type="inkscape:box3dside"
         id="path84"
         style="fill:#4d4d9f;fill-rule:evenodd;stroke:none;stroke-linejoin:round"
         inkscape:box3dsidetype="5"
         d="m 69.446967,264.9708 16.76306,6.75157 23.415763,-5.28676 -18.621891,-5.00016 z"
         points="86.210027,271.72237 109.62579,266.43561 91.003899,261.43545 69.446967,264.9708 " />
      <path
         sodipodi:type="inkscape:box3dside"
         id="path88"
         style="fill:#d7d7ff;fill-rule:evenodd;stroke:none;stroke-linejoin:round"
         inkscape:box3dsidetype="14"
         d="m 86.210027,271.72237 v 0.4539 l 23.415763,-5.35587 v -0.38479 z"
         points="86.210027,272.17627 109.62579,266.8204 109.62579,266.43561 86.210027,271.72237 " />
      <path
         sodipodi:type="inkscape:box3dside"
         id="path86"
         style="fill:#8686bf;fill-rule:evenodd;stroke:none;stroke-linejoin:round"
         inkscape:box3dsidetype="3"
         d="m 69.446967,264.9708 16.76306,6.75157 v 0.4539 l -16.76306,-6.83983 z"
         points="86.210027,271.72237 86.210027,272.17627 69.446967,265.33644 69.446967,264.9708 " />
    </g>
    <g
       sodipodi:type="inkscape:box3d"
       id="g94"
       style="fill:#ffffff;stroke:#000000"
       inkscape:perspectiveID="#perspective22"
       inkscape:corner0="0.84832631 : -0.0061520033 : 0 : 1"
       inkscape:corner7="0.8186506 : -0.023522529 : 0.25 : 1">
      <path
         sodipodi:type="inkscape:box3dside"
         id="path96"
         style="fill:#353564;fill-rule:evenodd;stroke:none;stroke-linejoin:round"
         inkscape:box3dsidetype="6"
         d="m 64.923601,251.14902 v 9.39797 l 20.859053,-2.80545 v -8.27827 z"
         points="64.923601,260.54699 85.782654,257.74154 85.782654,249.46327 64.923601,251.14902 " />
      <path
         sodipodi:type="inkscape:box3dside"
         id="path104"
         style="fill:#afafde;fill-rule:evenodd;stroke:none;stroke-linejoin:round"
         inkscape:box3dsidetype="13"
         d="m 64.923601,260.54699 1.059386,0.38423 21.030257,-2.89213 -1.23059,-0.29755 z"
         points="65.982987,260.93122 87.013244,258.03909 85.782654,257.74154 64.923601,260.54699 " />
      <path
         sodipodi:type="inkscape:box3dside"
         id="path106"
         style="fill:#e9e9ff;fill-rule:evenodd;stroke:none;stroke-linejoin:round"
         inkscape:box3dsidetype="11"
         d="m 85.782654,249.46327 1.23059,0.17879 v 8.39703 l -1.23059,-0.29755 z"
         points="87.013244,249.64206 87.013244,258.03909 85.782654,257.74154 85.782654,249.46327 " />
      <path
         sodipodi:type="inkscape:box3dside"
         id="path98"
         style="fill:#4d4d9f;fill-rule:evenodd;stroke:none;stroke-linejoin:round"
         inkscape:box3dsidetype="5"
         d="m 64.923601,251.14902 1.059386,0.23087 21.030257,-1.73783 -1.23059,-0.17879 z"
         points="65.982987,251.37989 87.013244,249.64206 85.782654,249.46327 64.923601,251.14902 " />
      <path
         sodipodi:type="inkscape:box3dside"
         id="path102"
         style="fill:#d7d7ff;fill-rule:evenodd;stroke:none;stroke-linejoin:round"
         inkscape:box3dsidetype="14"
         d="m 65.982987,251.37989 v 9.55133 l 21.030257,-2.89213 v -8.39703 z"
         points="65.982987,260.93122 87.013244,258.03909 87.013244,249.64206 65.982987,251.37989 " />
      <path
         sodipodi:type="inkscape:box3dside"
         id="path100"
         style="fill:#8686bf;fill-rule:evenodd;stroke:none;stroke-linejoin:round"
         inkscape:box3dsidetype="3"
         d="m 64.923601,251.14902 1.059386,0.23087 v 9.55133 l -1.059386,-0.38423 z"
         points="65.982987,251.37989 65.982987,260.93122 64.923601,260.54699 64.923601,251.14902 " />
    </g>
  </g>
</svg>
