<?xml version="1.0" encoding="UTF-8" standalone="no"?>
<!-- Created with Inkscape (http://www.inkscape.org/) -->

<svg
   id="svg5"
   version="1.1"
   viewBox="0 0 210 297"
   height="297mm"
   width="210mm"
   sodipodi:docname="fundamental-theorem-of-algebra.svg"
   inkscape:version="1.1 (c68e22c387, 2021-05-23)"
   xmlns:inkscape="http://www.inkscape.org/namespaces/inkscape"
   xmlns:sodipodi="http://sodipodi.sourceforge.net/DTD/sodipodi-0.dtd"
   xmlns:xlink="http://www.w3.org/1999/xlink"
   xmlns="http://www.w3.org/2000/svg"
   xmlns:svg="http://www.w3.org/2000/svg">
  <sodipodi:namedview
     id="namedview7"
     pagecolor="#ffffff"
     bordercolor="#666666"
     borderopacity="1.0"
     inkscape:pageshadow="2"
     inkscape:pageopacity="0.0"
     inkscape:pagecheckerboard="0"
     inkscape:document-units="mm"
     showgrid="false"
     inkscape:zoom="0.61647026"
     inkscape:cx="395.80174"
     inkscape:cy="442.03268"
     inkscape:window-width="1538"
     inkscape:window-height="877"
     inkscape:window-x="-8"
     inkscape:window-y="-8"
     inkscape:window-maximized="1"
     inkscape:current-layer="layer1" />
  <defs
     id="defs2">
    <inkscape:path-effect
       effect="bspline"
       id="path-effect2177"
       is_visible="true"
       lpeversion="1"
       weight="33.333333"
       steps="2"
       helper_size="0"
       apply_no_weight="true"
       apply_with_weight="true"
       only_selected="false" />
    <inkscape:path-effect
       effect="bspline"
       id="path-effect1985"
       is_visible="true"
       lpeversion="1"
       weight="33.333333"
       steps="2"
       helper_size="0"
       apply_no_weight="true"
       apply_with_weight="true"
       only_selected="false" />
    <clipPath
       id="clipPath8992">
      <rect
         style="fill:#ffffff;stroke:#0000ff;stroke-width:1;stroke-linejoin:round"
         width="173.39307"
         height="122.74855"
         x="16.309248"
         y="22.317919"
         ry="7.6181479"
         id="rect1916" />
    </clipPath>
    <g
       id="g5246">
      <symbol
         overflow="visible"
         id="symbol6426">
        <path
           style="stroke:none;"
           d=""
           id="path3209" />
      </symbol>
      <symbol
         overflow="visible"
         id="symbol3061">
        <path
           style="stroke:none;"
           d="M 3.296875 2.390625 C 3.296875 2.359375 3.296875 2.34375 3.125 2.171875 C 1.890625 0.921875 1.5625 -0.96875 1.5625 -2.5 C 1.5625 -4.234375 1.9375 -5.96875 3.171875 -7.203125 C 3.296875 -7.328125 3.296875 -7.34375 3.296875 -7.375 C 3.296875 -7.453125 3.265625 -7.484375 3.203125 -7.484375 C 3.09375 -7.484375 2.203125 -6.796875 1.609375 -5.53125 C 1.109375 -4.4375 0.984375 -3.328125 0.984375 -2.5 C 0.984375 -1.71875 1.09375 -0.515625 1.640625 0.625 C 2.25 1.84375 3.09375 2.5 3.203125 2.5 C 3.265625 2.5 3.296875 2.46875 3.296875 2.390625 Z M 3.296875 2.390625 "
           id="path1894" />
      </symbol>
      <symbol
         overflow="visible"
         id="symbol92">
        <path
           style="stroke:none;"
           d="M 2.9375 -1.640625 L 2.9375 -0.78125 C 2.9375 -0.421875 2.90625 -0.3125 2.171875 -0.3125 L 1.96875 -0.3125 L 1.96875 0 C 2.375 -0.03125 2.890625 -0.03125 3.3125 -0.03125 C 3.734375 -0.03125 4.25 -0.03125 4.671875 0 L 4.671875 -0.3125 L 4.453125 -0.3125 C 3.71875 -0.3125 3.703125 -0.421875 3.703125 -0.78125 L 3.703125 -1.640625 L 4.6875 -1.640625 L 4.6875 -1.953125 L 3.703125 -1.953125 L 3.703125 -6.484375 C 3.703125 -6.6875 3.703125 -6.75 3.53125 -6.75 C 3.453125 -6.75 3.421875 -6.75 3.34375 -6.625 L 0.28125 -1.953125 L 0.28125 -1.640625 Z M 2.984375 -1.953125 L 0.5625 -1.953125 L 2.984375 -5.671875 Z M 2.984375 -1.953125 "
           id="path4524" />
      </symbol>
      <symbol
         overflow="visible"
         id="symbol1338">
        <path
           style="stroke:none;"
           d="M 4.578125 -3.1875 C 4.578125 -3.984375 4.53125 -4.78125 4.1875 -5.515625 C 3.734375 -6.484375 2.90625 -6.640625 2.5 -6.640625 C 1.890625 -6.640625 1.171875 -6.375 0.75 -5.453125 C 0.4375 -4.765625 0.390625 -3.984375 0.390625 -3.1875 C 0.390625 -2.4375 0.421875 -1.546875 0.84375 -0.78125 C 1.265625 0.015625 2 0.21875 2.484375 0.21875 C 3.015625 0.21875 3.78125 0.015625 4.21875 -0.9375 C 4.53125 -1.625 4.578125 -2.40625 4.578125 -3.1875 Z M 2.484375 0 C 2.09375 0 1.5 -0.25 1.328125 -1.203125 C 1.21875 -1.796875 1.21875 -2.71875 1.21875 -3.3125 C 1.21875 -3.953125 1.21875 -4.609375 1.296875 -5.140625 C 1.484375 -6.328125 2.234375 -6.421875 2.484375 -6.421875 C 2.8125 -6.421875 3.46875 -6.234375 3.65625 -5.25 C 3.765625 -4.6875 3.765625 -3.9375 3.765625 -3.3125 C 3.765625 -2.5625 3.765625 -1.890625 3.65625 -1.25 C 3.5 -0.296875 2.9375 0 2.484375 0 Z M 2.484375 0 "
           id="path1331" />
      </symbol>
      <symbol
         overflow="visible"
         id="symbol2380">
        <path
           style="stroke:none;"
           d="M 2.875 -2.5 C 2.875 -3.265625 2.765625 -4.46875 2.21875 -5.609375 C 1.625 -6.828125 0.765625 -7.484375 0.671875 -7.484375 C 0.609375 -7.484375 0.5625 -7.4375 0.5625 -7.375 C 0.5625 -7.34375 0.5625 -7.328125 0.75 -7.140625 C 1.734375 -6.15625 2.296875 -4.578125 2.296875 -2.5 C 2.296875 -0.78125 1.9375 0.96875 0.703125 2.21875 C 0.5625 2.34375 0.5625 2.359375 0.5625 2.390625 C 0.5625 2.453125 0.609375 2.5 0.671875 2.5 C 0.765625 2.5 1.671875 1.8125 2.25 0.546875 C 2.765625 -0.546875 2.875 -1.65625 2.875 -2.5 Z M 2.875 -2.5 "
           id="path2713" />
      </symbol>
      <symbol
         overflow="visible"
         id="symbol8386">
        <path
           style="stroke:none;"
           d=""
           id="path6348" />
      </symbol>
      <symbol
         overflow="visible"
         id="symbol275">
        <path
           style="stroke:none;"
           d="M 6.5625 -2.296875 C 6.734375 -2.296875 6.921875 -2.296875 6.921875 -2.5 C 6.921875 -2.6875 6.734375 -2.6875 6.5625 -2.6875 L 1.171875 -2.6875 C 1 -2.6875 0.828125 -2.6875 0.828125 -2.5 C 0.828125 -2.296875 1 -2.296875 1.171875 -2.296875 Z M 6.5625 -2.296875 "
           id="path8517" />
      </symbol>
      <symbol
         overflow="visible"
         id="symbol4404">
        <path
           style="stroke:none;"
           d=""
           id="path4996" />
      </symbol>
      <symbol
         overflow="visible"
         id="symbol2099">
        <path
           style="stroke:none;"
           d="M 2.03125 -0.015625 C 2.03125 -0.671875 1.78125 -1.0625 1.390625 -1.0625 C 1.0625 -1.0625 0.859375 -0.8125 0.859375 -0.53125 C 0.859375 -0.265625 1.0625 0 1.390625 0 C 1.5 0 1.640625 -0.046875 1.734375 -0.125 C 1.765625 -0.15625 1.78125 -0.15625 1.78125 -0.15625 C 1.796875 -0.15625 1.796875 -0.15625 1.796875 -0.015625 C 1.796875 0.734375 1.453125 1.328125 1.125 1.65625 C 1.015625 1.765625 1.015625 1.78125 1.015625 1.8125 C 1.015625 1.890625 1.0625 1.921875 1.109375 1.921875 C 1.21875 1.921875 2.03125 1.15625 2.03125 -0.015625 Z M 2.03125 -0.015625 "
           id="path3542" />
      </symbol>
    </g>
    <g
       id="g836">
      <symbol
         overflow="visible"
         id="symbol4314">
        <path
           style="stroke:none;"
           d=""
           id="path9232" />
      </symbol>
      <symbol
         overflow="visible"
         id="symbol9356">
        <path
           style="stroke:none;"
           d="M 3.296875 2.390625 C 3.296875 2.359375 3.296875 2.34375 3.125 2.171875 C 1.890625 0.921875 1.5625 -0.96875 1.5625 -2.5 C 1.5625 -4.234375 1.9375 -5.96875 3.171875 -7.203125 C 3.296875 -7.328125 3.296875 -7.34375 3.296875 -7.375 C 3.296875 -7.453125 3.265625 -7.484375 3.203125 -7.484375 C 3.09375 -7.484375 2.203125 -6.796875 1.609375 -5.53125 C 1.109375 -4.4375 0.984375 -3.328125 0.984375 -2.5 C 0.984375 -1.71875 1.09375 -0.515625 1.640625 0.625 C 2.25 1.84375 3.09375 2.5 3.203125 2.5 C 3.265625 2.5 3.296875 2.46875 3.296875 2.390625 Z M 3.296875 2.390625 "
           id="path8145" />
      </symbol>
      <symbol
         overflow="visible"
         id="symbol2214">
        <path
           style="stroke:none;"
           d="M 4.75 -6.078125 C 4.828125 -6.1875 4.828125 -6.203125 4.828125 -6.421875 L 2.40625 -6.421875 C 1.203125 -6.421875 1.171875 -6.546875 1.140625 -6.734375 L 0.890625 -6.734375 L 0.5625 -4.6875 L 0.8125 -4.6875 C 0.84375 -4.84375 0.921875 -5.46875 1.0625 -5.59375 C 1.125 -5.65625 1.90625 -5.65625 2.03125 -5.65625 L 4.09375 -5.65625 C 3.984375 -5.5 3.203125 -4.40625 2.984375 -4.078125 C 2.078125 -2.734375 1.75 -1.34375 1.75 -0.328125 C 1.75 -0.234375 1.75 0.21875 2.21875 0.21875 C 2.671875 0.21875 2.671875 -0.234375 2.671875 -0.328125 L 2.671875 -0.84375 C 2.671875 -1.390625 2.703125 -1.9375 2.78125 -2.46875 C 2.828125 -2.703125 2.953125 -3.5625 3.40625 -4.171875 Z M 4.75 -6.078125 "
           id="path4932" />
      </symbol>
      <symbol
         overflow="visible"
         id="symbol9044">
        <path
           style="stroke:none;"
           d="M 4.578125 -3.1875 C 4.578125 -3.984375 4.53125 -4.78125 4.1875 -5.515625 C 3.734375 -6.484375 2.90625 -6.640625 2.5 -6.640625 C 1.890625 -6.640625 1.171875 -6.375 0.75 -5.453125 C 0.4375 -4.765625 0.390625 -3.984375 0.390625 -3.1875 C 0.390625 -2.4375 0.421875 -1.546875 0.84375 -0.78125 C 1.265625 0.015625 2 0.21875 2.484375 0.21875 C 3.015625 0.21875 3.78125 0.015625 4.21875 -0.9375 C 4.53125 -1.625 4.578125 -2.40625 4.578125 -3.1875 Z M 2.484375 0 C 2.09375 0 1.5 -0.25 1.328125 -1.203125 C 1.21875 -1.796875 1.21875 -2.71875 1.21875 -3.3125 C 1.21875 -3.953125 1.21875 -4.609375 1.296875 -5.140625 C 1.484375 -6.328125 2.234375 -6.421875 2.484375 -6.421875 C 2.8125 -6.421875 3.46875 -6.234375 3.65625 -5.25 C 3.765625 -4.6875 3.765625 -3.9375 3.765625 -3.3125 C 3.765625 -2.5625 3.765625 -1.890625 3.65625 -1.25 C 3.5 -0.296875 2.9375 0 2.484375 0 Z M 2.484375 0 "
           id="path683" />
      </symbol>
      <symbol
         overflow="visible"
         id="symbol1832">
        <path
           style="stroke:none;"
           d="M 2.875 -2.5 C 2.875 -3.265625 2.765625 -4.46875 2.21875 -5.609375 C 1.625 -6.828125 0.765625 -7.484375 0.671875 -7.484375 C 0.609375 -7.484375 0.5625 -7.4375 0.5625 -7.375 C 0.5625 -7.34375 0.5625 -7.328125 0.75 -7.140625 C 1.734375 -6.15625 2.296875 -4.578125 2.296875 -2.5 C 2.296875 -0.78125 1.9375 0.96875 0.703125 2.21875 C 0.5625 2.34375 0.5625 2.359375 0.5625 2.390625 C 0.5625 2.453125 0.609375 2.5 0.671875 2.5 C 0.765625 2.5 1.671875 1.8125 2.25 0.546875 C 2.765625 -0.546875 2.875 -1.65625 2.875 -2.5 Z M 2.875 -2.5 "
           id="path2331" />
      </symbol>
      <symbol
         overflow="visible"
         id="symbol1510">
        <path
           style="stroke:none;"
           d=""
           id="path5916" />
      </symbol>
      <symbol
         overflow="visible"
         id="symbol129">
        <path
           style="stroke:none;"
           d="M 2.03125 -0.015625 C 2.03125 -0.671875 1.78125 -1.0625 1.390625 -1.0625 C 1.0625 -1.0625 0.859375 -0.8125 0.859375 -0.53125 C 0.859375 -0.265625 1.0625 0 1.390625 0 C 1.5 0 1.640625 -0.046875 1.734375 -0.125 C 1.765625 -0.15625 1.78125 -0.15625 1.78125 -0.15625 C 1.796875 -0.15625 1.796875 -0.15625 1.796875 -0.015625 C 1.796875 0.734375 1.453125 1.328125 1.125 1.65625 C 1.015625 1.765625 1.015625 1.78125 1.015625 1.8125 C 1.015625 1.890625 1.0625 1.921875 1.109375 1.921875 C 1.21875 1.921875 2.03125 1.15625 2.03125 -0.015625 Z M 2.03125 -0.015625 "
           id="path5337" />
      </symbol>
    </g>
    <g
       id="g318">
      <symbol
         overflow="visible"
         id="symbol4852">
        <path
           style="stroke:none;"
           d=""
           id="path1285" />
      </symbol>
      <symbol
         overflow="visible"
         id="symbol2838">
        <path
           style="stroke:none;"
           d="M 3.65625 -3.984375 L 4.515625 -3.984375 C 4.71875 -3.984375 4.8125 -3.984375 4.8125 -4.1875 C 4.8125 -4.296875 4.71875 -4.296875 4.546875 -4.296875 L 3.71875 -4.296875 L 3.921875 -5.4375 C 3.96875 -5.640625 4.109375 -6.34375 4.171875 -6.46875 C 4.25 -6.65625 4.421875 -6.8125 4.640625 -6.8125 C 4.671875 -6.8125 4.9375 -6.8125 5.125 -6.625 C 4.6875 -6.59375 4.578125 -6.234375 4.578125 -6.09375 C 4.578125 -5.859375 4.765625 -5.734375 4.953125 -5.734375 C 5.21875 -5.734375 5.5 -5.96875 5.5 -6.34375 C 5.5 -6.796875 5.046875 -7.03125 4.640625 -7.03125 C 4.296875 -7.03125 3.671875 -6.84375 3.375 -5.859375 C 3.3125 -5.65625 3.28125 -5.546875 3.046875 -4.296875 L 2.359375 -4.296875 C 2.15625 -4.296875 2.046875 -4.296875 2.046875 -4.109375 C 2.046875 -3.984375 2.140625 -3.984375 2.328125 -3.984375 L 2.984375 -3.984375 L 2.25 -0.046875 C 2.0625 0.921875 1.890625 1.828125 1.375 1.828125 C 1.328125 1.828125 1.09375 1.828125 0.890625 1.640625 C 1.359375 1.609375 1.453125 1.25 1.453125 1.109375 C 1.453125 0.875 1.265625 0.75 1.078125 0.75 C 0.8125 0.75 0.53125 0.984375 0.53125 1.359375 C 0.53125 1.796875 0.96875 2.046875 1.375 2.046875 C 1.921875 2.046875 2.328125 1.453125 2.5 1.078125 C 2.828125 0.453125 3.046875 -0.75 3.0625 -0.828125 Z M 3.65625 -3.984375 "
           id="path6643" />
      </symbol>
      <symbol
         overflow="visible"
         id="symbol3083">
        <path
           style="stroke:none;"
           d="M 3.328125 -3.015625 C 3.390625 -3.265625 3.625 -4.1875 4.3125 -4.1875 C 4.359375 -4.1875 4.609375 -4.1875 4.8125 -4.0625 C 4.53125 -4 4.34375 -3.765625 4.34375 -3.515625 C 4.34375 -3.359375 4.453125 -3.171875 4.71875 -3.171875 C 4.9375 -3.171875 5.25 -3.34375 5.25 -3.75 C 5.25 -4.265625 4.671875 -4.40625 4.328125 -4.40625 C 3.75 -4.40625 3.40625 -3.875 3.28125 -3.65625 C 3.03125 -4.3125 2.5 -4.40625 2.203125 -4.40625 C 1.171875 -4.40625 0.59375 -3.125 0.59375 -2.875 C 0.59375 -2.765625 0.703125 -2.765625 0.71875 -2.765625 C 0.796875 -2.765625 0.828125 -2.796875 0.84375 -2.875 C 1.1875 -3.9375 1.84375 -4.1875 2.1875 -4.1875 C 2.375 -4.1875 2.71875 -4.09375 2.71875 -3.515625 C 2.71875 -3.203125 2.546875 -2.546875 2.1875 -1.140625 C 2.03125 -0.53125 1.671875 -0.109375 1.234375 -0.109375 C 1.171875 -0.109375 0.953125 -0.109375 0.734375 -0.234375 C 0.984375 -0.296875 1.203125 -0.5 1.203125 -0.78125 C 1.203125 -1.046875 0.984375 -1.125 0.84375 -1.125 C 0.53125 -1.125 0.296875 -0.875 0.296875 -0.546875 C 0.296875 -0.09375 0.78125 0.109375 1.21875 0.109375 C 1.890625 0.109375 2.25 -0.59375 2.265625 -0.640625 C 2.390625 -0.28125 2.75 0.109375 3.34375 0.109375 C 4.375 0.109375 4.9375 -1.171875 4.9375 -1.421875 C 4.9375 -1.53125 4.859375 -1.53125 4.828125 -1.53125 C 4.734375 -1.53125 4.71875 -1.484375 4.6875 -1.421875 C 4.359375 -0.34375 3.6875 -0.109375 3.375 -0.109375 C 2.984375 -0.109375 2.828125 -0.421875 2.828125 -0.765625 C 2.828125 -0.984375 2.875 -1.203125 2.984375 -1.640625 Z M 3.328125 -3.015625 "
           id="path1805" />
      </symbol>
      <symbol
         overflow="visible"
         id="symbol59">
        <path
           style="stroke:none;"
           d=""
           id="path263" />
      </symbol>
      <symbol
         overflow="visible"
         id="symbol2911">
        <path
           style="stroke:none;"
           d="M 3.296875 2.390625 C 3.296875 2.359375 3.296875 2.34375 3.125 2.171875 C 1.890625 0.921875 1.5625 -0.96875 1.5625 -2.5 C 1.5625 -4.234375 1.9375 -5.96875 3.171875 -7.203125 C 3.296875 -7.328125 3.296875 -7.34375 3.296875 -7.375 C 3.296875 -7.453125 3.265625 -7.484375 3.203125 -7.484375 C 3.09375 -7.484375 2.203125 -6.796875 1.609375 -5.53125 C 1.109375 -4.4375 0.984375 -3.328125 0.984375 -2.5 C 0.984375 -1.71875 1.09375 -0.515625 1.640625 0.625 C 2.25 1.84375 3.09375 2.5 3.203125 2.5 C 3.265625 2.5 3.296875 2.46875 3.296875 2.390625 Z M 3.296875 2.390625 "
           id="path5675" />
      </symbol>
      <symbol
         overflow="visible"
         id="symbol4033">
        <path
           style="stroke:none;"
           d="M 2.875 -2.5 C 2.875 -3.265625 2.765625 -4.46875 2.21875 -5.609375 C 1.625 -6.828125 0.765625 -7.484375 0.671875 -7.484375 C 0.609375 -7.484375 0.5625 -7.4375 0.5625 -7.375 C 0.5625 -7.34375 0.5625 -7.328125 0.75 -7.140625 C 1.734375 -6.15625 2.296875 -4.578125 2.296875 -2.5 C 2.296875 -0.78125 1.9375 0.96875 0.703125 2.21875 C 0.5625 2.34375 0.5625 2.359375 0.5625 2.390625 C 0.5625 2.453125 0.609375 2.5 0.671875 2.5 C 0.765625 2.5 1.671875 1.8125 2.25 0.546875 C 2.765625 -0.546875 2.875 -1.65625 2.875 -2.5 Z M 2.875 -2.5 "
           id="path3951" />
      </symbol>
      <symbol
         overflow="visible"
         id="symbol2780">
        <path
           style="stroke:none;"
           d="M 6.84375 -3.265625 C 7 -3.265625 7.1875 -3.265625 7.1875 -3.453125 C 7.1875 -3.65625 7 -3.65625 6.859375 -3.65625 L 0.890625 -3.65625 C 0.75 -3.65625 0.5625 -3.65625 0.5625 -3.453125 C 0.5625 -3.265625 0.75 -3.265625 0.890625 -3.265625 Z M 6.859375 -1.328125 C 7 -1.328125 7.1875 -1.328125 7.1875 -1.53125 C 7.1875 -1.71875 7 -1.71875 6.84375 -1.71875 L 0.890625 -1.71875 C 0.75 -1.71875 0.5625 -1.71875 0.5625 -1.53125 C 0.5625 -1.328125 0.75 -1.328125 0.890625 -1.328125 Z M 6.859375 -1.328125 "
           id="path2733" />
      </symbol>
      <symbol
         overflow="visible"
         id="symbol3267">
        <path
           style="stroke:none;"
           d="M 2.890625 -3.515625 C 3.703125 -3.78125 4.28125 -4.46875 4.28125 -5.265625 C 4.28125 -6.078125 3.40625 -6.640625 2.453125 -6.640625 C 1.453125 -6.640625 0.6875 -6.046875 0.6875 -5.28125 C 0.6875 -4.953125 0.90625 -4.765625 1.203125 -4.765625 C 1.5 -4.765625 1.703125 -4.984375 1.703125 -5.28125 C 1.703125 -5.765625 1.234375 -5.765625 1.09375 -5.765625 C 1.390625 -6.265625 2.046875 -6.390625 2.40625 -6.390625 C 2.828125 -6.390625 3.375 -6.171875 3.375 -5.28125 C 3.375 -5.15625 3.34375 -4.578125 3.09375 -4.140625 C 2.796875 -3.65625 2.453125 -3.625 2.203125 -3.625 C 2.125 -3.609375 1.890625 -3.59375 1.8125 -3.59375 C 1.734375 -3.578125 1.671875 -3.5625 1.671875 -3.46875 C 1.671875 -3.359375 1.734375 -3.359375 1.90625 -3.359375 L 2.34375 -3.359375 C 3.15625 -3.359375 3.53125 -2.6875 3.53125 -1.703125 C 3.53125 -0.34375 2.84375 -0.0625 2.40625 -0.0625 C 1.96875 -0.0625 1.21875 -0.234375 0.875 -0.8125 C 1.21875 -0.765625 1.53125 -0.984375 1.53125 -1.359375 C 1.53125 -1.71875 1.265625 -1.921875 0.984375 -1.921875 C 0.734375 -1.921875 0.421875 -1.78125 0.421875 -1.34375 C 0.421875 -0.4375 1.34375 0.21875 2.4375 0.21875 C 3.65625 0.21875 4.5625 -0.6875 4.5625 -1.703125 C 4.5625 -2.515625 3.921875 -3.296875 2.890625 -3.515625 Z M 2.890625 -3.515625 "
           id="path9961" />
      </symbol>
      <symbol
         overflow="visible"
         id="symbol1146">
        <path
           style="stroke:none;"
           d="M 1.265625 -0.765625 L 2.328125 -1.796875 C 3.875 -3.171875 4.46875 -3.703125 4.46875 -4.703125 C 4.46875 -5.84375 3.578125 -6.640625 2.359375 -6.640625 C 1.234375 -6.640625 0.5 -5.71875 0.5 -4.828125 C 0.5 -4.28125 1 -4.28125 1.03125 -4.28125 C 1.203125 -4.28125 1.546875 -4.390625 1.546875 -4.8125 C 1.546875 -5.0625 1.359375 -5.328125 1.015625 -5.328125 C 0.9375 -5.328125 0.921875 -5.328125 0.890625 -5.3125 C 1.109375 -5.96875 1.65625 -6.328125 2.234375 -6.328125 C 3.140625 -6.328125 3.5625 -5.515625 3.5625 -4.703125 C 3.5625 -3.90625 3.078125 -3.125 2.515625 -2.5 L 0.609375 -0.375 C 0.5 -0.265625 0.5 -0.234375 0.5 0 L 4.203125 0 L 4.46875 -1.734375 L 4.234375 -1.734375 C 4.171875 -1.4375 4.109375 -1 4 -0.84375 C 3.9375 -0.765625 3.28125 -0.765625 3.0625 -0.765625 Z M 1.265625 -0.765625 "
           id="path3301" />
      </symbol>
      <symbol
         overflow="visible"
         id="symbol9905">
        <path
           style="stroke:none;"
           d="M 1.625 -4.5625 C 1.171875 -4.859375 1.125 -5.1875 1.125 -5.359375 C 1.125 -5.96875 1.78125 -6.390625 2.484375 -6.390625 C 3.203125 -6.390625 3.84375 -5.875 3.84375 -5.15625 C 3.84375 -4.578125 3.453125 -4.109375 2.859375 -3.765625 Z M 3.078125 -3.609375 C 3.796875 -3.984375 4.28125 -4.5 4.28125 -5.15625 C 4.28125 -6.078125 3.40625 -6.640625 2.5 -6.640625 C 1.5 -6.640625 0.6875 -5.90625 0.6875 -4.96875 C 0.6875 -4.796875 0.703125 -4.34375 1.125 -3.875 C 1.234375 -3.765625 1.609375 -3.515625 1.859375 -3.34375 C 1.28125 -3.046875 0.421875 -2.5 0.421875 -1.5 C 0.421875 -0.453125 1.4375 0.21875 2.484375 0.21875 C 3.609375 0.21875 4.5625 -0.609375 4.5625 -1.671875 C 4.5625 -2.03125 4.453125 -2.484375 4.0625 -2.90625 C 3.875 -3.109375 3.71875 -3.203125 3.078125 -3.609375 Z M 2.078125 -3.1875 L 3.3125 -2.40625 C 3.59375 -2.21875 4.0625 -1.921875 4.0625 -1.3125 C 4.0625 -0.578125 3.3125 -0.0625 2.5 -0.0625 C 1.640625 -0.0625 0.921875 -0.671875 0.921875 -1.5 C 0.921875 -2.078125 1.234375 -2.71875 2.078125 -3.1875 Z M 2.078125 -3.1875 "
           id="path6337" />
      </symbol>
      <symbol
         overflow="visible"
         id="symbol544">
        <path
           style="stroke:none;"
           d=""
           id="path9313" />
      </symbol>
      <symbol
         overflow="visible"
         id="symbol4628">
        <path
           style="stroke:none;"
           d="M 3.515625 -1.265625 L 3.28125 -1.265625 C 3.265625 -1.109375 3.1875 -0.703125 3.09375 -0.640625 C 3.046875 -0.59375 2.515625 -0.59375 2.40625 -0.59375 L 1.125 -0.59375 C 1.859375 -1.234375 2.109375 -1.4375 2.515625 -1.765625 C 3.03125 -2.171875 3.515625 -2.609375 3.515625 -3.265625 C 3.515625 -4.109375 2.78125 -4.625 1.890625 -4.625 C 1.03125 -4.625 0.4375 -4.015625 0.4375 -3.375 C 0.4375 -3.03125 0.734375 -2.984375 0.8125 -2.984375 C 0.96875 -2.984375 1.171875 -3.109375 1.171875 -3.359375 C 1.171875 -3.484375 1.125 -3.734375 0.765625 -3.734375 C 0.984375 -4.21875 1.453125 -4.375 1.78125 -4.375 C 2.484375 -4.375 2.84375 -3.828125 2.84375 -3.265625 C 2.84375 -2.65625 2.40625 -2.1875 2.1875 -1.9375 L 0.515625 -0.265625 C 0.4375 -0.203125 0.4375 -0.1875 0.4375 0 L 3.3125 0 Z M 3.515625 -1.265625 "
           id="path6993" />
      </symbol>
      <symbol
         overflow="visible"
         id="symbol581">
        <path
           style="stroke:none;"
           d=""
           id="path3187" />
      </symbol>
      <symbol
         overflow="visible"
         id="symbol178">
        <path
           style="stroke:none;"
           d="M 6.5625 -2.296875 C 6.734375 -2.296875 6.921875 -2.296875 6.921875 -2.5 C 6.921875 -2.6875 6.734375 -2.6875 6.5625 -2.6875 L 1.171875 -2.6875 C 1 -2.6875 0.828125 -2.6875 0.828125 -2.5 C 0.828125 -2.296875 1 -2.296875 1.171875 -2.296875 Z M 6.5625 -2.296875 "
           id="path3445" />
      </symbol>
    </g>
  </defs>
  <g
     inkscape:label="Layer 1"
     inkscape:groupmode="layer"
     id="layer1">
    <rect
       style="fill:#ffffff;stroke:#0000ff;stroke-width:1;stroke-linejoin:round"
       id="rect848"
       width="173.39307"
       height="122.74855"
       x="16.309248"
       y="22.317919"
       ry="7.6181479" />
    <path
       style="fill:#ffffff;stroke:#0000ff;stroke-width:1;stroke-linejoin:round"
       d="M 16.3092 39.8534 L 16.3092 -2.23179 C 16.3671 -2.10073 16.425 -1.72438 16.4828 -1.59355 C 16.5407 -1.46272 16.5985 -1.08729 16.6564 -0.956683 C 16.7142 -0.82608 16.7721 -0.45157 16.8299 -0.321196 C 16.8878 -0.190822 16.9457 0.18277 17.0035 0.312914 C 17.0614 0.443059 17.1192 0.815732 17.1771 0.945647 C 17.2349 1.07556 17.2928 1.44732 17.3506 1.577 C 17.4085 1.70669 17.4664 2.07752 17.5242 2.20698 C 17.5821 2.33643 17.6399 2.70635 17.6978 2.83558 C 17.7556 2.96481 17.8135 3.3338 17.8713 3.4628 C 17.9292 3.5918 17.9871 3.95988 18.0449 4.08865 C 18.1028 4.21741 18.1606 4.58458 18.2185 4.71311 C 18.2763 4.84165 18.3342 5.2079 18.392 5.3362 C 18.4499 5.46451 18.5078 5.82984 18.5656 5.95792 C 18.6235 6.08599 18.6813 6.4504 18.7392 6.57825 C 18.797 6.7061 18.8549 7.06959 18.9127 7.19721 C 18.9706 7.32483 19.0285 7.6874 19.0863 7.81479 C 19.1442 7.94218 19.202 8.30383 19.2599 8.43099 C 19.3177 8.55815 19.3756 8.91888 19.4334 9.04581 C 19.4913 9.17274 19.5492 9.53256 19.607 9.65926 C 19.6649 9.78596 19.7227 10.1449 19.7806 10.2713 C 19.8384 10.3978 19.8963 10.7558 19.9541 10.882 C 20.012 11.0083 20.0699 11.3653 20.1277 11.4913 C 20.1856 11.6173 20.2434 11.9735 20.3013 12.0993 C 20.3591 12.2251 20.417 12.5803 20.4748 12.7058 C 20.5327 12.8314 20.5906 13.1857 20.6484 13.311 C 20.7063 13.4363 20.7641 13.7897 20.822 13.9148 C 20.8798 14.0399 20.9377 14.3924 20.9955 14.5172 C 21.0534 14.6421 21.1113 14.9937 21.1691 15.1183 C 21.227 15.2429 21.2848 15.5936 21.3427 15.718 C 21.4005 15.8424 21.4584 16.1921 21.5162 16.3163 C 21.5741 16.4404 21.632 16.7892 21.6898 16.9132 C 21.7477 17.0371 21.8055 17.385 21.8634 17.5087 C 21.9212 17.6324 21.9791 17.9794 22.0369 18.1029 C 22.0948 18.2264 22.1527 18.5724 22.2105 18.6957 C 22.2684 18.8189 22.3262 19.164 22.3841 19.2871 C 22.4419 19.4101 22.4998 19.7543 22.5576 19.8771 C 22.6155 19.9999 22.6734 20.3432 22.7312 20.4657 C 22.7891 20.5883 22.8469 20.9307 22.9048 21.053 C 22.9626 21.1754 23.0205 21.5168 23.0783 21.6389 C 23.1362 21.761 23.1941 22.1016 23.2519 22.2234 C 23.3098 22.3453 23.3676 22.6849 23.4255 22.8066 C 23.4833 22.9282 23.5412 23.2669 23.599 23.3883 C 23.6569 23.5098 23.7148 23.8475 23.7726 23.9687 C 23.8305 24.0899 23.8883 24.4268 23.9462 24.5477 C 24.004 24.6687 24.0619 25.0046 24.1197 25.1254 C 24.1776 25.2461 24.2355 25.5811 24.2933 25.7016 C 24.3512 25.8221 24.409 26.1562 24.4669 26.2765 C 24.5247 26.3968 24.5826 26.73 24.6404 26.85 C 24.6983 26.97 24.7562 27.3023 24.814 27.4221 C 24.8719 27.5419 24.9297 27.8733 24.9876 27.9929 C 25.0454 28.1124 25.1033 28.4429 25.1611 28.5622 C 25.219 28.6816 25.2769 29.0111 25.3347 29.1302 C 25.3926 29.2493 25.4504 29.5779 25.5083 29.6968 C 25.5661 29.8157 25.624 30.1434 25.6818 30.2621 C 25.7397 30.3807 25.7976 30.7075 25.8554 30.8259 C 25.9133 30.9443 25.9711 31.2702 26.029 31.3884 C 26.0868 31.5066 26.1447 31.8315 26.2025 31.9495 C 26.2604 32.0675 26.3183 32.3915 26.3761 32.5092 C 26.434 32.627 26.4918 32.95 26.5497 33.0676 C 26.6075 33.1851 26.6654 33.5072 26.7232 33.6245 C 26.7811 33.7418 26.839 34.0631 26.8968 34.1801 C 26.9547 34.2972 27.0125 34.6175 27.0704 34.7343 C 27.1282 34.8512 27.1861 35.1706 27.2439 35.2872 C 27.3018 35.4038 27.3597 35.7223 27.4175 35.8386 C 27.4754 35.955 27.5332 36.2726 27.5911 36.3887 C 27.6489 36.5048 27.7068 36.8215 27.7646 36.9374 C 27.8225 37.0533 27.8804 37.369 27.9382 37.4847 C 27.9961 37.6004 28.0539 37.9152 28.1118 38.0307 C 28.1696 38.1461 28.2275 38.46 28.2853 38.5752 C 28.3432 38.6905 28.4011 39.0034 28.4589 39.1184 C 28.5168 39.2334 28.5746 39.5455 28.6325 39.6603 C 28.6903 39.775 28.7482 40.0862 28.806 40.2007 C 28.8639 40.3152 28.9218 40.6254 28.9796 40.7398 C 29.0375 40.8541 29.0953 41.1634 29.1532 41.2774 C 29.211 41.3915 29.2689 41.6999 29.3267 41.8137 C 29.3846 41.9276 29.4425 42.2351 29.5003 42.3487 C 29.5582 42.4623 29.616 42.7688 29.6739 42.8822 C 29.7317 42.9956 29.7896 43.3012 29.8474 43.4144 C 29.9053 43.5275 29.9632 43.8323 30.021 43.9452 C 30.0789 44.0581 30.1367 44.3619 30.1946 44.4746 C 30.2524 44.5873 30.3103 44.8902 30.3681 45.0026 C 30.426 45.1151 30.4839 45.4171 30.5417 45.5293 C 30.5996 45.6415 30.6574 45.9426 30.7153 46.0546 C 30.7731 46.1666 30.831 46.4667 30.8888 46.5785 C 30.9467 46.6903 31.0046 46.9895 31.0624 47.101 C 31.1203 47.2126 31.1781 47.5109 31.236 47.6222 C 31.2938 47.7335 31.3517 48.0309 31.4095 48.1419 C 31.4674 48.253 31.5253 48.5495 31.5831 48.6603 C 31.641 48.7712 31.6988 49.0667 31.7567 49.1774 C 31.8145 49.288 31.8724 49.5826 31.9302 49.693 C 31.9881 49.8034 32.046 50.0971 32.1038 50.2073 C 32.1617 50.3174 32.2195 50.6102 32.2774 50.7202 C 32.3352 50.8301 32.3931 51.122 32.4509 51.2317 C 32.5088 51.3414 32.5667 51.6323 32.6245 51.7418 C 32.6824 51.8513 32.7402 52.1413 32.7981 52.2506 C 32.8559 52.3598 32.9138 52.6489 32.9716 52.7579 C 33.0295 52.867 33.0874 53.1551 33.1452 53.2639 C 33.2031 53.3727 33.2609 53.66 33.3188 53.7686 C 33.3766 53.8771 33.4345 54.1635 33.4923 54.2718 C 33.5502 54.3801 33.6081 54.6656 33.6659 54.7737 C 33.7238 54.8818 33.7816 55.1663 33.8395 55.2741 C 33.8973 55.382 33.9552 55.6656 34.013 55.7733 C 34.0709 55.8809 34.1288 56.1636 34.1866 56.271 C 34.2445 56.3784 34.3023 56.6602 34.3602 56.7674 C 34.418 56.8745 34.4759 57.1554 34.5337 57.2623 C 34.5916 57.3693 34.6495 57.6492 34.7073 57.7559 C 34.7652 57.8627 34.823 58.1417 34.8809 58.2482 C 34.9387 58.3547 34.9966 58.6327 35.0544 58.739 C 35.1123 58.8453 35.1702 59.1224 35.228 59.2285 C 35.2859 59.3345 35.3437 59.6108 35.4016 59.7166 C 35.4594 59.8224 35.5173 60.0977 35.5751 60.2033 C 35.633 60.3089 35.6909 60.5833 35.7487 60.6886 C 35.8066 60.794 35.8644 61.0674 35.9223 61.1726 C 35.9801 61.2777 36.038 61.5503 36.0958 61.6551 C 36.1537 61.76 36.2116 62.0317 36.2694 62.1364 C 36.3273 62.241 36.3851 62.5117 36.443 62.6162 C 36.5008 62.7206 36.5587 62.9904 36.6165 63.0946 C 36.6744 63.1988 36.7323 63.4677 36.7901 63.5717 C 36.848 63.6757 36.9058 63.9436 36.9637 64.0474 C 37.0215 64.1511 37.0794 64.4182 37.1372 64.5217 C 37.1951 64.6252 37.253 64.8914 37.3108 64.9946 C 37.3687 65.0979 37.4265 65.3632 37.4844 65.4662 C 37.5422 65.5693 37.6001 65.8336 37.6579 65.9364 C 37.7158 66.0392 37.7737 66.3026 37.8315 66.4052 C 37.8894 66.5078 37.9472 66.7703 38.0051 66.8726 C 38.0629 66.975 38.1208 67.2365 38.1786 67.3387 C 38.2365 67.4408 38.2944 67.7014 38.3522 67.8033 C 38.4101 67.9052 38.4679 68.165 38.5258 68.2666 C 38.5836 68.3683 38.6415 68.6271 38.6993 68.7286 C 38.7572 68.83 38.8151 69.0879 38.8729 69.1891 C 38.9308 69.2903 38.9886 69.5473 39.0465 69.6483 C 39.1043 69.7492 39.1622 70.0053 39.22 70.106 C 39.2779 70.2068 39.3358 70.4619 39.3936 70.5625 C 39.4515 70.663 39.5093 70.9172 39.5672 71.0175 C 39.625 71.1178 39.6829 71.3711 39.7407 71.4711 C 39.7986 71.5712 39.8565 71.8236 39.9143 71.9234 C 39.9722 72.0233 40.03 72.2747 40.0879 72.3743 C 40.1457 72.4739 40.2036 72.7244 40.2614 72.8238 C 40.3193 72.9232 40.3772 73.1728 40.435 73.272 C 40.4929 73.3711 40.5507 73.6198 40.6086 73.7187 C 40.6664 73.8177 40.7243 74.0654 40.7821 74.1641 C 40.84 74.2628 40.8979 74.5097 40.9557 74.6081 C 41.0136 74.7066 41.0714 74.9525 41.1293 75.0508 C 41.1871 75.149 41.245 75.394 41.3028 75.492 C 41.3607 75.59 41.4186 75.8341 41.4764 75.9319 C 41.5343 76.0297 41.5921 76.2729 41.65 76.3704 C 41.7078 76.4679 41.7657 76.7102 41.8235 76.8075 C 41.8814 76.9048 41.9393 77.1462 41.9971 77.2433 C 42.055 77.3403 42.1128 77.5808 42.1707 77.6776 C 42.2285 77.7745 42.2864 78.014 42.3442 78.1106 C 42.4021 78.2072 42.46 78.4458 42.5178 78.5422 C 42.5757 78.6386 42.6335 78.8763 42.6914 78.9725 C 42.7492 79.0686 42.8071 79.3054 42.8649 79.4013 C 42.9228 79.4973 42.9807 79.7331 43.0385 79.8288 C 43.0964 79.9245 43.1542 80.1594 43.2121 80.2549 C 43.2699 80.3504 43.3278 80.5844 43.3856 80.6796 C 43.4435 80.7749 43.5014 81.008 43.5592 81.103 C 43.6171 81.198 43.6749 81.4302 43.7328 81.5249 C 43.7906 81.6197 43.8485 81.851 43.9063 81.9455 C 43.9642 82.0401 44.0221 82.2704 44.0799 82.3648 C 44.1378 82.4591 44.1956 82.6885 44.2535 82.7826 C 44.3113 82.8767 44.3692 83.1052 44.427 83.199 C 44.4849 83.2929 44.5428 83.5205 44.6006 83.6141 C 44.6585 83.7078 44.7163 83.9344 44.7742 84.0278 C 44.832 84.1212 44.8899 84.347 44.9477 84.4402 C 45.0056 84.5333 45.0635 84.7582 45.1213 84.8511 C 45.1792 84.9441 45.237 85.168 45.2949 85.2607 C 45.3527 85.3534 45.4106 85.5764 45.4684 85.6689 C 45.5263 85.7614 45.5842 85.9834 45.642 86.0757 C 45.6999 86.168 45.7577 86.3891 45.8156 86.4811 C 45.8734 86.5732 45.9313 86.7934 45.9891 86.8852 C 46.047 86.977 46.1049 87.1963 46.1627 87.2879 C 46.2206 87.3794 46.2784 87.5978 46.3363 87.6892 C 46.3941 87.7805 46.452 87.998 46.5098 88.0891 C 46.5677 88.1802 46.6256 88.3968 46.6834 88.4877 C 46.7413 88.5785 46.7991 88.7942 46.857 88.8848 C 46.9148 88.9755 46.9727 89.1902 47.0305 89.2806 C 47.0884 89.3711 47.1463 89.5849 47.2041 89.675 C 47.262 89.7652 47.3198 89.9781 47.3777 90.0681 C 47.4355 90.1581 47.4934 90.37 47.5512 90.4598 C 47.6091 90.5495 47.667 90.7605 47.7248 90.85 C 47.7827 90.9395 47.8405 91.1497 47.8984 91.2389 C 47.9562 91.3282 48.0141 91.5374 48.0719 91.6265 C 48.1298 91.7155 48.1877 91.9238 48.2455 92.0126 C 48.3034 92.1014 48.3612 92.3088 48.4191 92.3974 C 48.4769 92.486 48.5348 92.6924 48.5926 92.7808 C 48.6505 92.8692 48.7084 93.0747 48.7662 93.1628 C 48.8241 93.251 48.8819 93.4556 48.9398 93.5435 C 48.9976 93.6314 49.0555 93.8351 49.1133 93.9227 C 49.1712 94.0104 49.2291 94.2132 49.2869 94.3006 C 49.3448 94.3881 49.4026 94.5899 49.4605 94.6771 C 49.5183 94.7643 49.5762 94.9653 49.634 95.0523 C 49.6919 95.1392 49.7498 95.3393 49.8076 95.426 C 49.8655 95.5128 49.9233 95.7119 49.9812 95.7984 C 50.039 95.8849 50.0969 96.0831 50.1547 96.1694 C 50.2126 96.2557 50.2705 96.453 50.3283 96.539 C 50.3862 96.6251 50.444 96.8214 50.5019 96.9073 C 50.5597 96.9931 50.6176 97.1885 50.6754 97.2741 C 50.7333 97.3597 50.7912 97.5543 50.849 97.6396 C 50.9069 97.725 50.9647 97.9186 51.0226 98.0037 C 51.0804 98.0889 51.1383 98.2816 51.1961 98.3665 C 51.254 98.4514 51.3119 98.6431 51.3697 98.7278 C 51.4276 98.8125 51.4854 99.0034 51.5433 99.0878 C 51.6011 99.1723 51.659 99.3622 51.7168 99.4464 C 51.7747 99.5306 51.8326 99.7196 51.8904 99.8036 C 51.9483 99.8876 52.0061 100.076 52.064 100.159 C 52.1218 100.243 52.1797 100.43 52.2375 100.514 C 52.2954 100.597 52.3533 100.784 52.4111 100.867 C 52.469 100.95 52.5268 101.136 52.5847 101.219 C 52.6425 101.302 52.7004 101.486 52.7582 101.569 C 52.8161 101.652 52.874 101.835 52.9318 101.918 C 52.9897 102.001 53.0475 102.183 53.1054 102.266 C 53.1632 102.348 53.2211 102.53 53.2789 102.612 C 53.3368 102.694 53.3947 102.875 53.4525 102.957 C 53.5104 103.039 53.5682 103.218 53.6261 103.3 C 53.6839 103.382 53.7418 103.561 53.7996 103.642 C 53.8575 103.724 53.9154 103.902 53.9732 103.983 C 54.0311 104.064 54.0889 104.241 54.1468 104.322 C 54.2046 104.403 54.2625 104.579 54.3203 104.66 C 54.3782 104.741 54.4361 104.916 54.4939 104.997 C 54.5518 105.077 54.6096 105.252 54.6675 105.332 C 54.7253 105.412 54.7832 105.586 54.841 105.666 C 54.8989 105.746 54.9568 105.918 55.0146 105.998 C 55.0725 106.078 55.1303 106.25 55.1882 106.329 C 55.246 106.409 55.3039 106.579 55.3617 106.659 C 55.4196 106.738 55.4775 106.908 55.5353 106.987 C 55.5932 107.066 55.651 107.235 55.7089 107.314 C 55.7667 107.393 55.8246 107.561 55.8824 107.64 C 55.9403 107.718 55.9982 107.885 56.056 107.964 C 56.1139 108.042 56.1717 108.208 56.2296 108.287 C 56.2874 108.365 56.3453 108.53 56.4031 108.608 C 56.461 108.686 56.5189 108.85 56.5767 108.928 C 56.6346 109.006 56.6924 109.169 56.7503 109.247 C 56.8081 109.324 56.866 109.487 56.9238 109.564 C 56.9817 109.641 57.0396 109.803 57.0974 109.88 C 57.1553 109.957 57.2131 110.117 57.271 110.194 C 57.3288 110.271 57.3867 110.431 57.4445 110.507 C 57.5024 110.584 57.5603 110.743 57.6181 110.819 C 57.676 110.896 57.7338 111.053 57.7917 111.13 C 57.8495 111.206 57.9074 111.363 57.9652 111.439 C 58.0231 111.515 58.081 111.671 58.1388 111.746 C 58.1967 111.822 58.2545 111.977 58.3124 112.053 C 58.3702 112.128 58.4281 112.282 58.4859 112.357 C 58.5438 112.433 58.6017 112.586 58.6595 112.661 C 58.7174 112.736 58.7752 112.888 58.8331 112.963 C 58.8909 113.038 58.9488 113.189 59.0066 113.264 C 59.0645 113.338 59.1224 113.489 59.1802 113.563 C 59.2381 113.638 59.2959 113.787 59.3538 113.861 C 59.4116 113.935 59.4695 114.084 59.5273 114.158 C 59.5852 114.232 59.6431 114.379 59.7009 114.453 C 59.7588 114.527 59.8166 114.673 59.8745 114.747 C 59.9323 114.82 59.9902 114.966 60.048 115.039 C 60.1059 115.113 60.1638 115.257 60.2216 115.33 C 60.2795 115.403 60.3373 115.547 60.3952 115.62 C 60.453 115.693 60.5109 115.836 60.5687 115.909 C 60.6266 115.981 60.6845 116.123 60.7423 116.195 C 60.8002 116.268 60.858 116.409 60.9159 116.481 C 60.9737 116.553 61.0316 116.693 61.0894 116.765 C 61.1473 116.837 61.2052 116.977 61.263 117.048 C 61.3209 117.12 61.3787 117.258 61.4366 117.33 C 61.4944 117.401 61.5523 117.539 61.6101 117.61 C 61.668 117.681 61.7259 117.817 61.7837 117.888 C 61.8416 117.959 61.8994 118.095 61.9573 118.166 C 62.0151 118.236 62.073 118.371 62.1308 118.442 C 62.1887 118.512 62.2466 118.646 62.3044 118.716 C 62.3623 118.786 62.4201 118.919 62.478 118.989 C 62.5358 119.059 62.5937 119.191 62.6515 119.261 C 62.7094 119.331 62.7673 119.462 62.8251 119.532 C 62.883 119.601 62.9408 119.731 62.9987 119.801 C 63.0565 119.87 63.1144 119.999 63.1722 120.068 C 63.2301 120.138 63.288 120.266 63.3458 120.335 C 63.4037 120.404 63.4615 120.531 63.5194 120.6 C 63.5772 120.668 63.6351 120.795 63.6929 120.863 C 63.7508 120.932 63.8087 121.057 63.8665 121.125 C 63.9244 121.194 63.9822 121.318 64.0401 121.386 C 64.0979 121.454 64.1558 121.578 64.2136 121.646 C 64.2715 121.713 64.3294 121.836 64.3872 121.904 C 64.4451 121.971 64.5029 122.093 64.5608 122.16 C 64.6186 122.228 64.6765 122.349 64.7343 122.416 C 64.7922 122.483 64.8501 122.603 64.9079 122.67 C 64.9658 122.736 65.0236 122.856 65.0815 122.922 C 65.1393 122.989 65.1972 123.107 65.255 123.173 C 65.3129 123.24 65.3708 123.357 65.4286 123.423 C 65.4865 123.489 65.5443 123.606 65.6022 123.671 C 65.66 123.737 65.7179 123.853 65.7757 123.918 C 65.8336 123.984 65.8915 124.099 65.9493 124.164 C 66.0072 124.229 66.065 124.343 66.1229 124.408 C 66.1807 124.473 66.2386 124.586 66.2964 124.651 C 66.3543 124.716 66.4122 124.828 66.47 124.893 C 66.5279 124.957 66.5857 125.068 66.6436 125.133 C 66.7014 125.197 66.7593 125.307 66.8171 125.372 C 66.875 125.436 66.9329 125.545 66.9907 125.609 C 67.0486 125.673 67.1064 125.781 67.1643 125.845 C 67.2221 125.909 67.28 126.016 67.3378 126.08 C 67.3957 126.143 67.4536 126.25 67.5114 126.313 C 67.5693 126.376 67.6271 126.482 67.685 126.545 C 67.7428 126.608 67.8007 126.712 67.8585 126.775 C 67.9164 126.838 67.9743 126.942 68.0321 127.004 C 68.09 127.067 68.1478 127.17 68.2057 127.232 C 68.2635 127.294 68.3214 127.396 68.3792 127.458 C 68.4371 127.521 68.495 127.621 68.5528 127.683 C 68.6107 127.745 68.6685 127.845 68.7264 127.907 C 68.7842 127.969 68.8421 128.068 68.8999 128.129 C 68.9578 128.191 69.0156 128.289 69.0735 128.35 C 69.1314 128.411 69.1892 128.509 69.2471 128.57 C 69.3049 128.631 69.3628 128.727 69.4206 128.788 C 69.4785 128.848 69.5363 128.944 69.5942 129.004 C 69.6521 129.065 69.7099 129.159 69.7678 129.22 C 69.8256 129.28 69.8835 129.374 69.9413 129.434 C 69.9992 129.494 70.057 129.586 70.1149 129.646 C 70.1728 129.706 70.2306 129.798 70.2885 129.857 C 70.3463 129.917 70.4042 130.008 70.462 130.067 C 70.5199 130.127 70.5777 130.217 70.6356 130.276 C 70.6935 130.335 70.7513 130.424 70.8092 130.483 C 70.867 130.542 70.9249 130.63 70.9827 130.689 C 71.0406 130.747 71.0984 130.834 71.1563 130.893 C 71.2142 130.951 71.272 131.037 71.3299 131.096 C 71.3877 131.154 71.4456 131.239 71.5034 131.297 C 71.5613 131.355 71.6191 131.44 71.677 131.498 C 71.7349 131.555 71.7927 131.639 71.8506 131.696 C 71.9084 131.754 71.9663 131.836 72.0241 131.894 C 72.082 131.951 72.1398 132.033 72.1977 132.09 C 72.2556 132.147 72.3134 132.228 72.3713 132.284 C 72.4291 132.341 72.487 132.421 72.5448 132.478 C 72.6027 132.534 72.6605 132.613 72.7184 132.67 C 72.7763 132.726 72.8341 132.804 72.892 132.86 C 72.9498 132.916 73.0077 132.993 73.0655 133.049 C 73.1234 133.105 73.1812 133.181 73.2391 133.237 C 73.297 133.293 73.3548 133.368 73.4127 133.424 C 73.4705 133.479 73.5284 133.553 73.5862 133.609 C 73.6441 133.664 73.7019 133.737 73.7598 133.792 C 73.8177 133.847 73.8755 133.92 73.9334 133.975 C 73.9912 134.029 74.0491 134.101 74.1069 134.155 C 74.1648 134.21 74.2226 134.281 74.2805 134.335 C 74.3384 134.389 74.3962 134.459 74.4541 134.513 C 74.5119 134.567 74.5698 134.636 74.6276 134.69 C 74.6855 134.744 74.7433 134.812 74.8012 134.865 C 74.8591 134.919 74.9169 134.986 74.9748 135.039 C 75.0326 135.093 75.0905 135.159 75.1483 135.212 C 75.2062 135.265 75.264 135.33 75.3219 135.383 C 75.3798 135.436 75.4376 135.5 75.4955 135.553 C 75.5533 135.606 75.6112 135.669 75.669 135.722 C 75.7269 135.774 75.7847 135.836 75.8426 135.889 C 75.9005 135.941 75.9583 136.002 76.0162 136.054 C 76.074 136.107 76.1319 136.167 76.1897 136.219 C 76.2476 136.271 76.3054 136.33 76.3633 136.382 C 76.4212 136.433 76.479 136.492 76.5369 136.543 C 76.5947 136.595 76.6526 136.653 76.7104 136.704 C 76.7683 136.755 76.8261 136.812 76.884 136.863 C 76.9419 136.913 76.9997 136.969 77.0576 137.02 C 77.1154 137.071 77.1733 137.126 77.2311 137.176 C 77.289 137.227 77.3468 137.281 77.4047 137.331 C 77.4626 137.381 77.5204 137.434 77.5783 137.484 C 77.6361 137.534 77.694 137.586 77.7518 137.636 C 77.8097 137.686 77.8675 137.737 77.9254 137.787 C 77.9833 137.836 78.0411 137.887 78.099 137.936 C 78.1568 137.985 78.2147 138.035 78.2725 138.084 C 78.3304 138.133 78.3882 138.181 78.4461 138.23 C 78.504 138.279 78.5618 138.327 78.6197 138.375 C 78.6775 138.424 78.7354 138.471 78.7932 138.519 C 78.8511 138.567 78.9089 138.613 78.9668 138.661 C 79.0247 138.71 79.0825 138.754 79.1404 138.802 C 79.1982 138.85 79.2561 138.894 79.3139 138.942 C 79.3718 138.99 79.4296 139.033 79.4875 139.08 C 79.5454 139.128 79.6032 139.17 79.6611 139.217 C 79.7189 139.264 79.7768 139.305 79.8346 139.352 C 79.8925 139.399 79.9503 139.44 80.0082 139.486 C 80.0661 139.533 80.1239 139.573 80.1818 139.619 C 80.2396 139.666 80.2975 139.704 80.3553 139.75 C 80.4132 139.797 80.471 139.834 80.5289 139.88 C 80.5868 139.926 80.6446 139.963 80.7025 140.009 C 80.7603 140.055 80.8182 140.09 80.876 140.136 C 80.9339 140.182 80.9917 140.216 81.0496 140.262 C 81.1075 140.307 81.1653 140.341 81.2232 140.386 C 81.281 140.432 81.3389 140.464 81.3967 140.509 C 81.4546 140.554 81.5124 140.586 81.5703 140.631 C 81.6282 140.676 81.686 140.707 81.7439 140.751 C 81.8017 140.796 81.8596 140.826 81.9174 140.87 C 81.9753 140.915 82.0331 140.944 82.091 140.988 C 82.1489 141.032 82.2067 141.06 82.2646 141.104 C 82.3224 141.148 82.3803 141.175 82.4381 141.219 C 82.496 141.262 82.5538 141.289 82.6117 141.332 C 82.6696 141.375 82.7274 141.401 82.7853 141.444 C 82.8431 141.487 82.901 141.512 82.9588 141.555 C 83.0167 141.598 83.0745 141.621 83.1324 141.664 C 83.1903 141.707 83.2481 141.729 83.306 141.772 C 83.3638 141.814 83.4217 141.836 83.4795 141.878 C 83.5374 141.921 83.5952 141.942 83.6531 141.984 C 83.711 142.026 83.7688 142.046 83.8267 142.087 C 83.8845 142.129 83.9424 142.148 84.0002 142.19 C 84.0581 142.231 84.1159 142.249 84.1738 142.291 C 84.2317 142.332 84.2895 142.349 84.3474 142.39 C 84.4052 142.431 84.4631 142.448 84.5209 142.489 C 84.5788 142.529 84.6366 142.545 84.6945 142.585 C 84.7524 142.626 84.8102 142.641 84.8681 142.681 C 84.9259 142.721 84.9838 142.735 85.0416 142.775 C 85.0995 142.815 85.1573 142.828 85.2152 142.868 C 85.2731 142.908 85.3309 142.919 85.3888 142.959 C 85.4466 142.999 85.5045 143.01 85.5623 143.049 C 85.6202 143.089 85.678 143.099 85.7359 143.138 C 85.7938 143.177 85.8516 143.186 85.9095 143.225 C 85.9673 143.264 86.0252 143.272 86.083 143.311 C 86.1409 143.35 86.1987 143.357 86.2566 143.395 C 86.3145 143.434 86.3723 143.44 86.4302 143.478 C 86.488 143.517 86.5459 143.522 86.6037 143.56 C 86.6616 143.598 86.7194 143.603 86.7773 143.64 C 86.8352 143.678 86.893 143.682 86.9509 143.719 C 87.0087 143.757 87.0666 143.76 87.1244 143.797 C 87.1823 143.834 87.2401 143.836 87.298 143.873 C 87.3559 143.91 87.4137 143.911 87.4716 143.948 C 87.5294 143.985 87.5873 143.985 87.6451 144.022 C 87.703 144.058 87.7608 144.057 87.8187 144.094 C 87.8766 144.13 87.9344 144.128 87.9923 144.164 C 88.0501 144.201 88.108 144.198 88.1658 144.234 C 88.2237 144.27 88.2815 144.266 88.3394 144.302 C 88.3973 144.337 88.4551 144.333 88.513 144.368 C 88.5708 144.404 88.6287 144.398 88.6865 144.433 C 88.7444 144.469 88.8022 144.462 88.8601 144.497 C 88.918 144.532 88.9758 144.525 89.0337 144.56 C 89.0915 144.594 89.1494 144.586 89.2072 144.621 C 89.2651 144.655 89.3229 144.646 89.3808 144.68 C 89.4387 144.715 89.4965 144.704 89.5544 144.739 C 89.6122 144.773 89.6701 144.762 89.7279 144.795 C 89.7858 144.829 89.8436 144.817 89.9015 144.851 C 89.9594 144.885 90.0172 144.872 90.0751 144.905 C 90.1329 144.939 90.1908 144.925 90.2486 144.958 C 90.3065 144.991 90.3643 144.976 90.4222 145.009 C 90.4801 145.042 90.5379 145.027 90.5958 145.059 C 90.6536 145.092 90.7115 145.076 90.7693 145.108 C 90.8272 145.141 90.885 145.123 90.9429 145.155 C 91.0008 145.188 91.0586 145.169 91.1165 145.201 C 91.1743 145.233 91.2322 145.214 91.29 145.246 C 91.3479 145.278 91.4057 145.257 91.4636 145.289 C 91.5215 145.321 91.5793 145.299 91.6372 145.331 C 91.695 145.362 91.7529 145.34 91.8107 145.371 C 91.8686 145.402 91.9264 145.379 91.9843 145.41 C 92.0422 145.441 92.1 145.417 92.1579 145.448 C 92.2157 145.478 92.2736 145.454 92.3314 145.484 C 92.3893 145.515 92.4471 145.489 92.505 145.519 C 92.5629 145.549 92.6207 145.522 92.6786 145.552 C 92.7364 145.582 92.7943 145.555 92.8521 145.585 C 92.91 145.614 92.9678 145.586 93.0257 145.615 C 93.0836 145.645 93.1414 145.615 93.1993 145.645 C 93.2571 145.674 93.315 145.644 93.3728 145.673 C 93.4307 145.702 93.4885 145.67 93.5464 145.699 C 93.6043 145.728 93.6621 145.696 93.72 145.724 C 93.7778 145.753 93.8357 145.72 93.8935 145.748 C 93.9514 145.777 94.0092 145.743 94.0671 145.771 C 94.125 145.799 94.1828 145.764 94.2407 145.792 C 94.2985 145.82 94.3564 145.784 94.4142 145.812 C 94.4721 145.839 94.5299 145.803 94.5878 145.83 C 94.6457 145.858 94.7035 145.82 94.7614 145.847 C 94.8192 145.874 94.8771 145.836 94.9349 145.863 C 94.9928 145.89 95.0506 145.85 95.1085 145.877 C 95.1664 145.904 95.2242 145.863 95.2821 145.89 C 95.3399 145.916 95.3978 145.875 95.4556 145.901 C 95.5135 145.927 95.5713 145.885 95.6292 145.911 C 95.6871 145.937 95.7449 145.894 95.8028 145.92 C 95.8606 145.946 95.9185 145.902 95.9763 145.927 C 96.0342 145.953 96.092 145.908 96.1499 145.933 C 96.2078 145.959 96.2656 145.913 96.3235 145.938 C 96.3813 145.963 96.4392 145.916 96.497 145.941 C 96.5549 145.966 96.6127 145.918 96.6706 145.943 C 96.7285 145.968 96.7863 145.919 96.8442 145.943 C 96.902 145.968 96.9599 145.918 97.0177 145.942 C 97.0756 145.967 97.1334 145.916 97.1913 145.94 C 97.2492 145.964 97.307 145.912 97.3649 145.936 C 97.4227 145.96 97.4806 145.908 97.5384 145.931 C 97.5963 145.955 97.6541 145.901 97.712 145.925 C 97.7699 145.948 97.8277 145.894 97.8856 145.917 C 97.9434 145.94 98.0013 145.885 98.0591 145.908 C 98.117 145.931 98.1748 145.874 98.2327 145.897 C 98.2906 145.92 98.3484 145.863 98.4063 145.885 C 98.4641 145.908 98.522 145.85 98.5798 145.872 C 98.6377 145.894 98.6955 145.835 98.7534 145.857 C 98.8113 145.879 98.8691 145.819 98.927 145.841 C 98.9848 145.863 99.0427 145.802 99.1005 145.824 C 99.1584 145.845 99.2162 145.783 99.2741 145.805 C 99.332 145.826 99.3898 145.763 99.4477 145.785 C 99.5055 145.806 99.5634 145.742 99.6212 145.763 C 99.6791 145.784 99.7369 145.719 99.7948 145.74 C 99.8527 145.761 99.9105 145.695 99.9684 145.716 C 100.026 145.736 100.084 145.67 100.142 145.69 C 100.2 145.71 100.258 145.643 100.316 145.663 C 100.373 145.683 100.431 145.615 100.489 145.634 C 100.547 145.654 100.605 145.585 100.663 145.604 C 100.72 145.624 100.778 145.554 100.836 145.573 C 100.894 145.592 100.952 145.522 101.01 145.541 C 101.068 145.56 101.125 145.488 101.183 145.507 C 101.241 145.525 101.299 145.453 101.357 145.471 C 101.415 145.49 101.473 145.416 101.53 145.434 C 101.588 145.453 101.646 145.378 101.704 145.396 C 101.762 145.414 101.82 145.339 101.878 145.357 C 101.935 145.375 101.993 145.298 102.051 145.316 C 102.109 145.334 102.167 145.256 102.225 145.274 C 102.283 145.291 102.34 145.213 102.398 145.23 C 102.456 145.247 102.514 145.168 102.572 145.185 C 102.63 145.202 102.688 145.122 102.745 145.139 C 102.803 145.155 102.861 145.074 102.919 145.091 C 102.977 145.107 103.035 145.025 103.093 145.042 C 103.15 145.058 103.208 144.975 103.266 144.991 C 103.324 145.007 103.382 144.923 103.44 144.939 C 103.498 144.955 103.555 144.87 103.613 144.886 C 103.671 144.902 103.729 144.816 103.787 144.831 C 103.845 144.847 103.903 144.76 103.96 144.775 C 104.018 144.79 104.076 144.703 104.134 144.718 C 104.192 144.733 104.25 144.644 104.308 144.659 C 104.365 144.674 104.423 144.585 104.481 144.599 C 104.539 144.613 104.597 144.523 104.655 144.537 C 104.713 144.552 104.77 144.461 104.828 144.474 C 104.886 144.488 104.944 144.396 105.002 144.41 C 105.06 144.424 105.118 144.331 105.175 144.344 C 105.233 144.358 105.291 144.264 105.349 144.277 C 105.407 144.291 105.465 144.196 105.522 144.209 C 105.58 144.222 105.638 144.126 105.696 144.139 C 105.754 144.152 105.812 144.055 105.87 144.068 C 105.927 144.081 105.985 143.983 106.043 143.995 C 106.101 144.008 106.159 143.909 106.217 143.921 C 106.275 143.934 106.332 143.834 106.39 143.846 C 106.448 143.858 106.506 143.758 106.564 143.769 C 106.622 143.781 106.68 143.68 106.737 143.691 C 106.795 143.703 106.853 143.601 106.911 143.612 C 106.969 143.623 107.027 143.52 107.085 143.531 C 107.142 143.542 107.2 143.438 107.258 143.449 C 107.316 143.46 107.374 143.355 107.432 143.365 C 107.49 143.376 107.547 143.27 107.605 143.28 C 107.663 143.291 107.721 143.184 107.779 143.194 C 107.837 143.204 107.895 143.096 107.952 143.106 C 108.01 143.116 108.068 143.008 108.126 143.017 C 108.184 143.027 108.242 142.917 108.3 142.927 C 108.357 142.936 108.415 142.826 108.473 142.835 C 108.531 142.844 108.589 142.733 108.647 142.742 C 108.705 142.751 108.762 142.638 108.82 142.647 C 108.878 142.656 108.936 142.543 108.994 142.551 C 109.052 142.559 109.11 142.445 109.167 142.454 C 109.225 142.462 109.283 142.347 109.341 142.355 C 109.399 142.363 109.457 142.247 109.515 142.255 C 109.572 142.263 109.63 142.146 109.688 142.153 C 109.746 142.161 109.804 142.043 109.862 142.05 C 109.92 142.058 109.977 141.939 110.035 141.946 C 110.093 141.953 110.151 141.834 110.209 141.841 C 110.267 141.847 110.325 141.727 110.382 141.734 C 110.44 141.74 110.498 141.619 110.556 141.625 C 110.614 141.632 110.672 141.509 110.729 141.515 C 110.787 141.522 110.845 141.398 110.903 141.404 C 110.961 141.41 111.019 141.286 111.077 141.292 C 111.134 141.297 111.192 141.172 111.25 141.178 C 111.308 141.183 111.366 141.057 111.424 141.063 C 111.482 141.068 111.539 140.941 111.597 140.946 C 111.655 140.951 111.713 140.823 111.771 140.828 C 111.829 140.833 111.887 140.704 111.944 140.709 C 112.002 140.713 112.06 140.583 112.118 140.588 C 112.176 140.592 112.234 140.461 112.292 140.466 C 112.349 140.47 112.407 140.338 112.465 140.342 C 112.523 140.346 112.581 140.214 112.639 140.217 C 112.697 140.221 112.754 140.087 112.812 140.091 C 112.87 140.094 112.928 139.96 112.986 139.963 C 113.044 139.966 113.102 139.831 113.159 139.834 C 113.217 139.837 113.275 139.701 113.333 139.704 C 113.391 139.706 113.449 139.569 113.507 139.572 C 113.564 139.574 113.622 139.436 113.68 139.439 C 113.738 139.441 113.796 139.302 113.854 139.304 C 113.912 139.306 113.969 139.166 114.027 139.168 C 114.085 139.17 114.143 139.029 114.201 139.031 C 114.259 139.033 114.317 138.891 114.374 138.892 C 114.432 138.894 114.49 138.751 114.548 138.752 C 114.606 138.753 114.664 138.61 114.722 138.611 C 114.779 138.612 114.837 138.467 114.895 138.468 C 114.953 138.469 115.011 138.323 115.069 138.324 C 115.127 138.324 115.184 138.178 115.242 138.178 C 115.3 138.178 115.358 138.031 115.416 138.031 C 115.474 138.031 115.532 137.883 115.589 137.883 C 115.647 137.883 115.705 137.734 115.763 137.733 C 115.821 137.733 115.879 137.583 115.936 137.582 C 115.994 137.581 116.052 137.431 116.11 137.43 C 116.168 137.429 116.226 137.277 116.284 137.276 C 116.341 137.275 116.399 137.122 116.457 137.121 C 116.515 137.119 116.573 136.966 116.631 136.964 C 116.689 136.962 116.746 136.808 116.804 136.806 C 116.862 136.804 116.92 136.649 116.978 136.647 C 117.036 136.645 117.094 136.488 117.151 136.486 C 117.209 136.484 117.267 136.326 117.325 136.324 C 117.383 136.321 117.441 136.163 117.499 136.16 C 117.556 136.158 117.614 135.998 117.672 135.995 C 117.73 135.992 117.788 135.832 117.846 135.829 C 117.904 135.826 117.961 135.665 118.019 135.662 C 118.077 135.658 118.135 135.496 118.193 135.493 C 118.251 135.489 118.309 135.326 118.366 135.322 C 118.424 135.318 118.482 135.155 118.54 135.15 C 118.598 135.146 118.656 134.982 118.714 134.977 C 118.771 134.973 118.829 134.807 118.887 134.803 C 118.945 134.798 119.003 134.632 119.061 134.627 C 119.119 134.622 119.176 134.455 119.234 134.45 C 119.292 134.445 119.35 134.276 119.408 134.271 C 119.466 134.266 119.524 134.097 119.581 134.091 C 119.639 134.085 119.697 133.915 119.755 133.91 C 119.813 133.904 119.871 133.733 119.929 133.727 C 119.986 133.721 120.044 133.549 120.102 133.543 C 120.16 133.536 120.218 133.364 120.276 133.357 C 120.334 133.351 120.391 133.177 120.449 133.17 C 120.507 133.164 120.565 132.989 120.623 132.982 C 120.681 132.975 120.739 132.8 120.796 132.792 C 120.854 132.785 120.912 132.609 120.97 132.601 C 121.028 132.594 121.086 132.417 121.143 132.409 C 121.201 132.401 121.259 132.223 121.317 132.215 C 121.375 132.207 121.433 132.028 121.491 132.02 C 121.548 132.012 121.606 131.832 121.664 131.823 C 121.722 131.815 121.78 131.634 121.838 131.625 C 121.896 131.617 121.953 131.435 122.011 131.426 C 122.069 131.417 122.127 131.235 122.185 131.226 C 122.243 131.217 122.301 131.033 122.358 131.023 C 122.416 131.014 122.474 130.829 122.532 130.82 C 122.59 130.811 122.648 130.625 122.706 130.615 C 122.763 130.606 122.821 130.419 122.879 130.409 C 122.937 130.399 122.995 130.212 123.053 130.201 C 123.111 130.191 123.168 130.003 123.226 129.993 C 123.284 129.982 123.342 129.793 123.4 129.782 C 123.458 129.772 123.516 129.581 123.573 129.571 C 123.631 129.56 123.689 129.368 123.747 129.357 C 123.805 129.346 123.863 129.154 123.921 129.143 C 123.978 129.132 124.036 128.939 124.094 128.927 C 124.152 128.916 124.21 128.722 124.268 128.71 C 124.326 128.698 124.383 128.503 124.441 128.491 C 124.499 128.479 124.557 128.284 124.615 128.271 C 124.673 128.259 124.731 128.062 124.788 128.05 C 124.846 128.038 124.904 127.84 124.962 127.827 C 125.02 127.815 125.078 127.616 125.136 127.603 C 125.193 127.59 125.251 127.391 125.309 127.378 C 125.367 127.365 125.425 127.164 125.483 127.151 C 125.541 127.138 125.598 126.936 125.656 126.923 C 125.714 126.909 125.772 126.707 125.83 126.693 C 125.888 126.679 125.946 126.476 126.003 126.462 C 126.061 126.448 126.119 126.244 126.177 126.23 C 126.235 126.215 126.293 126.01 126.35 125.996 C 126.408 125.981 126.466 125.776 126.524 125.761 C 126.582 125.746 126.64 125.539 126.698 125.524 C 126.755 125.509 126.813 125.302 126.871 125.287 C 126.929 125.271 126.987 125.063 127.045 125.047 C 127.103 125.032 127.16 124.822 127.218 124.807 C 127.276 124.791 127.334 124.581 127.392 124.565 C 127.45 124.549 127.508 124.337 127.565 124.321 C 127.623 124.305 127.681 124.093 127.739 124.076 C 127.797 124.06 127.855 123.847 127.913 123.83 C 127.97 123.814 128.028 123.6 128.086 123.583 C 128.144 123.566 128.202 123.351 128.26 123.334 C 128.318 123.317 128.375 123.101 128.433 123.084 C 128.491 123.066 128.549 122.85 128.607 122.832 C 128.665 122.815 128.723 122.597 128.78 122.579 C 128.838 122.561 128.896 122.343 128.954 122.325 C 129.012 122.307 129.07 122.087 129.128 122.069 C 129.185 122.051 129.243 121.83 129.301 121.812 C 129.359 121.793 129.417 121.572 129.475 121.553 C 129.533 121.535 129.59 121.312 129.648 121.293 C 129.706 121.274 129.764 121.051 129.822 121.032 C 129.88 121.013 129.938 120.789 129.995 120.769 C 130.053 120.75 130.111 120.525 130.169 120.505 C 130.227 120.486 130.285 120.26 130.343 120.24 C 130.4 120.22 130.458 119.993 130.516 119.973 C 130.574 119.953 130.632 119.725 130.69 119.705 C 130.748 119.685 130.805 119.456 130.863 119.435 C 130.921 119.415 130.979 119.185 131.037 119.164 C 131.095 119.144 131.153 118.913 131.21 118.892 C 131.268 118.871 131.326 118.639 131.384 118.618 C 131.442 118.597 131.5 118.365 131.557 118.343 C 131.615 118.322 131.673 118.088 131.731 118.067 C 131.789 118.045 131.847 117.811 131.905 117.789 C 131.962 117.767 132.02 117.532 132.078 117.51 C 132.136 117.488 132.194 117.252 132.252 117.229 C 132.31 117.207 132.367 116.97 132.425 116.947 C 132.483 116.925 132.541 116.687 132.599 116.664 C 132.657 116.641 132.715 116.402 132.772 116.379 C 132.83 116.356 132.888 116.116 132.946 116.093 C 133.004 116.07 133.062 115.829 133.12 115.806 C 133.177 115.782 133.235 115.541 133.293 115.517 C 133.351 115.493 133.409 115.251 133.467 115.227 C 133.525 115.203 133.582 114.959 133.64 114.935 C 133.698 114.911 133.756 114.666 133.814 114.642 C 133.872 114.618 133.93 114.372 133.987 114.348 C 134.045 114.323 134.103 114.077 134.161 114.052 C 134.219 114.027 134.277 113.78 134.335 113.755 C 134.392 113.73 134.45 113.482 134.508 113.456 C 134.566 113.431 134.624 113.182 134.682 113.157 C 134.74 113.131 134.797 112.881 134.855 112.855 C 134.913 112.83 134.971 112.579 135.029 112.553 C 135.087 112.527 135.145 112.275 135.202 112.249 C 135.26 112.222 135.318 111.97 135.376 111.943 C 135.434 111.917 135.492 111.663 135.55 111.637 C 135.607 111.61 135.665 111.355 135.723 111.328 C 135.781 111.302 135.839 111.046 135.897 111.019 C 135.955 110.992 136.012 110.735 136.07 110.708 C 136.128 110.681 136.186 110.423 136.244 110.396 C 136.302 110.368 136.36 110.11 136.417 110.082 C 136.475 110.054 136.533 109.795 136.591 109.767 C 136.649 109.739 136.707 109.479 136.764 109.451 C 136.822 109.423 136.88 109.162 136.938 109.133 C 136.996 109.105 137.054 108.843 137.112 108.814 C 137.169 108.785 137.227 108.522 137.285 108.493 C 137.343 108.464 137.401 108.201 137.459 108.171 C 137.517 108.142 137.574 107.878 137.632 107.848 C 137.69 107.819 137.748 107.553 137.806 107.524 C 137.864 107.494 137.922 107.227 137.979 107.197 C 138.037 107.168 138.095 106.9 138.153 106.87 C 138.211 106.84 138.269 106.572 138.327 106.541 C 138.384 106.511 138.442 106.242 138.5 106.211 C 138.558 106.181 138.616 105.91 138.674 105.88 C 138.732 105.849 138.789 105.578 138.847 105.547 C 138.905 105.516 138.963 105.244 139.021 105.212 C 139.079 105.181 139.137 104.908 139.194 104.877 C 139.252 104.845 139.31 104.571 139.368 104.54 C 139.426 104.508 139.484 104.233 139.542 104.201 C 139.599 104.169 139.657 103.894 139.715 103.861 C 139.773 103.829 139.831 103.553 139.889 103.52 C 139.947 103.488 140.004 103.21 140.062 103.178 C 140.12 103.145 140.178 102.867 140.236 102.834 C 140.294 102.801 140.352 102.521 140.409 102.488 C 140.467 102.455 140.525 102.175 140.583 102.142 C 140.641 102.108 140.699 101.827 140.757 101.794 C 140.814 101.76 140.872 101.478 140.93 101.444 C 140.988 101.41 141.046 101.127 141.104 101.093 C 141.162 101.059 141.219 100.775 141.277 100.741 C 141.335 100.707 141.393 100.422 141.451 100.388 C 141.509 100.353 141.567 100.067 141.624 100.033 C 141.682 99.9979 141.74 99.7111 141.798 99.6762 C 141.856 99.6413 141.914 99.3537 141.971 99.3185 C 142.029 99.2833 142.087 98.9948 142.145 98.9594 C 142.203 98.924 142.261 98.6346 142.319 98.5989 C 142.376 98.5633 142.434 98.2729 142.492 98.2371 C 142.55 98.2012 142.608 97.9099 142.666 97.8739 C 142.724 97.8378 142.781 97.5456 142.839 97.5093 C 142.897 97.4729 142.955 97.1798 143.013 97.1433 C 143.071 97.1067 143.129 96.8127 143.186 96.7759 C 143.244 96.7391 143.302 96.4442 143.36 96.4072 C 143.418 96.3702 143.476 96.0743 143.534 96.0371 C 143.591 95.9998 143.649 95.703 143.707 95.6656 C 143.765 95.6281 143.823 95.3304 143.881 95.2927 C 143.939 95.255 143.996 94.9564 144.054 94.9184 C 144.112 94.8805 144.17 94.581 144.228 94.5428 C 144.286 94.5047 144.344 94.2042 144.401 94.1658 C 144.459 94.1274 144.517 93.826 144.575 93.7874 C 144.633 93.7488 144.691 93.4465 144.749 93.4077 C 144.806 93.3688 144.864 93.0656 144.922 93.0265 C 144.98 92.9875 145.038 92.6833 145.096 92.644 C 145.154 92.6047 145.211 92.2997 145.269 92.2601 C 145.327 92.2206 145.385 91.9146 145.443 91.8749 C 145.501 91.8351 145.559 91.5282 145.616 91.4882 C 145.674 91.4483 145.732 91.1404 145.79 91.1002 C 145.848 91.06 145.906 90.7512 145.964 90.7108 C 146.021 90.6704 146.079 90.3607 146.137 90.32 C 146.195 90.2794 146.253 89.9688 146.311 89.9279 C 146.369 89.887 146.426 89.5755 146.484 89.5343 C 146.542 89.4932 146.6 89.1808 146.658 89.1394 C 146.716 89.0981 146.774 88.7847 146.831 88.7431 C 146.889 88.7016 146.947 88.3873 147.005 88.3455 C 147.063 88.3037 147.121 87.9885 147.178 87.9464 C 147.236 87.9044 147.294 87.5883 147.352 87.546 C 147.41 87.5037 147.468 87.1867 147.526 87.1442 C 147.583 87.1017 147.641 86.7838 147.699 86.741 C 147.757 86.6983 147.815 86.3795 147.873 86.3365 C 147.931 86.2935 147.988 85.9738 148.046 85.9306 C 148.104 85.8874 148.162 85.5667 148.22 85.5232 C 148.278 85.4798 148.336 85.1582 148.393 85.1146 C 148.451 85.0709 148.509 84.7484 148.567 84.7045 C 148.625 84.6606 148.683 84.3372 148.741 84.2931 C 148.798 84.2489 148.856 83.9246 148.914 83.8802 C 148.972 83.8359 149.03 83.5106 149.088 83.466 C 149.146 83.4215 149.203 83.0953 149.261 83.0505 C 149.319 83.0057 149.377 82.6786 149.435 82.6335 C 149.493 82.5885 149.551 82.2605 149.608 82.2152 C 149.666 82.1699 149.724 81.841 149.782 81.7955 C 149.84 81.75 149.898 81.4201 149.956 81.3744 C 150.013 81.3287 150.071 80.9979 150.129 80.9519 C 150.187 80.906 150.245 80.5743 150.303 80.5281 C 150.361 80.4819 150.418 80.1493 150.476 80.1029 C 150.534 80.0565 150.592 79.7229 150.65 79.6763 C 150.708 79.6297 150.766 79.2952 150.823 79.2483 C 150.881 79.2015 150.939 78.8661 150.997 78.819 C 151.055 78.7719 151.113 78.4356 151.171 78.3882 C 151.228 78.3409 151.286 78.0037 151.344 77.9561 C 151.402 77.9086 151.46 77.5704 151.518 77.5227 C 151.576 77.4749 151.633 77.1358 151.691 77.0878 C 151.749 77.0398 151.807 76.6998 151.865 76.6516 C 151.923 76.6033 151.981 76.2624 152.038 76.2139 C 152.096 76.1655 152.154 75.8237 152.212 75.775 C 152.27 75.7263 152.328 75.3835 152.385 75.3346 C 152.443 75.2857 152.501 74.942 152.559 74.8928 C 152.617 74.8437 152.675 74.4991 152.733 74.4497 C 152.79 74.4003 152.848 74.0548 152.906 74.0052 C 152.964 73.9556 153.022 73.6092 153.08 73.5593 C 153.138 73.5095 153.195 73.1622 153.253 73.1121 C 153.311 73.062 153.369 72.7138 153.427 72.6634 C 153.485 72.6131 153.543 72.264 153.6 72.2134 C 153.658 72.1629 153.716 71.8128 153.774 71.762 C 153.832 71.7113 153.89 71.3603 153.948 71.3093 C 154.005 71.2583 154.063 70.9064 154.121 70.8551 C 154.179 70.8039 154.237 70.4511 154.295 70.3996 C 154.353 70.3481 154.41 69.9944 154.468 69.9427 C 154.526 69.891 154.584 69.5364 154.642 69.4844 C 154.7 69.4325 154.758 69.0769 154.815 69.0248 C 154.873 68.9726 154.931 68.6161 154.989 68.5637 C 155.047 68.5114 155.105 68.1539 155.163 68.1013 C 155.22 68.0487 155.278 67.6904 155.336 67.6375 C 155.394 67.5847 155.452 67.2255 155.51 67.1724 C 155.568 67.1193 155.625 66.7591 155.683 66.7058 C 155.741 66.6525 155.799 66.2914 155.857 66.2379 C 155.915 66.1844 155.973 65.8224 156.03 65.7686 C 156.088 65.7149 156.146 65.3519 156.204 65.2979 C 156.262 65.244 156.32 64.8801 156.378 64.8259 C 156.435 64.7717 156.493 64.4069 156.551 64.3525 C 156.609 64.298 156.667 63.9323 156.725 63.8777 C 156.783 63.823 156.84 63.4564 156.898 63.4015 C 156.956 63.3466 157.014 62.979 157.072 62.9239 C 157.13 62.8688 157.188 62.5003 157.245 62.445 C 157.303 62.3896 157.361 62.0202 157.419 61.9647 C 157.477 61.9091 157.535 61.5388 157.592 61.483 C 157.65 61.4271 157.708 61.0559 157.766 60.9999 C 157.824 60.9438 157.882 60.5717 157.94 60.5154 C 157.997 60.4592 158.055 60.0861 158.113 60.0296 C 158.171 59.9731 158.229 59.5991 158.287 59.5424 C 158.345 59.4857 158.402 59.1108 158.46 59.0538 C 158.518 58.9968 158.576 58.6211 158.634 58.5639 C 158.692 58.5067 158.75 58.1299 158.807 58.0725 C 158.865 58.0151 158.923 57.6375 158.981 57.5798 C 159.039 57.5221 159.097 57.1436 159.155 57.0857 C 159.212 57.0278 159.27 56.6484 159.328 56.5902 C 159.386 56.5321 159.444 56.1517 159.502 56.0934 C 159.56 56.035 159.617 55.6537 159.675 55.5952 C 159.733 55.5366 159.791 55.1544 159.849 55.0956 C 159.907 55.0368 159.965 54.6536 160.022 54.5946 C 160.08 54.5355 160.138 54.1515 160.196 54.0922 C 160.254 54.033 160.312 53.648 160.37 53.5885 C 160.427 53.529 160.485 53.1431 160.543 53.0834 C 160.601 53.0236 160.659 52.6368 160.717 52.5769 C 160.775 52.5169 160.832 52.1292 160.89 52.069 C 160.948 52.0088 161.006 51.6202 161.064 51.5598 C 161.122 51.4994 161.18 51.1098 161.237 51.0491 C 161.295 50.9885 161.353 50.598 161.411 50.5371 C 161.469 50.4763 161.527 50.0849 161.585 50.0238 C 161.642 49.9627 161.7 49.5703 161.758 49.509 C 161.816 49.4477 161.874 49.0544 161.932 48.9929 C 161.99 48.9313 162.047 48.5372 162.105 48.4754 C 162.163 48.4136 162.221 48.0185 162.279 47.9565 C 162.337 47.8945 162.395 47.4985 162.452 47.4362 C 162.51 47.374 162.568 46.977 162.626 46.9146 C 162.684 46.8521 162.742 46.4543 162.799 46.3915 C 162.857 46.3288 162.915 45.9301 162.973 45.8671 C 163.031 45.8042 163.089 45.4045 163.147 45.3414 C 163.204 45.2782 163.262 44.8776 163.32 44.8142 C 163.378 44.7508 163.436 44.3493 163.494 44.2857 C 163.552 44.2221 163.609 43.8196 163.667 43.7558 C 163.725 43.6919 163.783 43.2886 163.841 43.2245 C 163.899 43.1604 163.957 42.7561 164.014 42.6918 C 164.072 42.6275 164.13 42.2223 164.188 42.1578 C 164.246 42.0932 164.304 41.6871 164.362 41.6224 C 164.419 41.5576 164.477 41.1506 164.535 41.0856 C 164.593 41.0206 164.651 40.6126 164.709 40.5474 C 164.767 40.4822 164.824 40.0733 164.882 40.0078 C 164.94 39.9424 164.998 39.5326 165.056 39.4669 C 165.114 39.4012 165.172 38.9905 165.229 38.9246 C 165.287 38.8587 165.345 38.4471 165.403 38.3809 C 165.461 38.3148 165.519 37.9022 165.577 37.8359 C 165.634 37.7695 165.692 37.356 165.75 37.2894 C 165.808 37.2228 165.866 36.8084 165.924 36.7416 C 165.982 36.6748 166.039 36.2595 166.097 36.1924 C 166.155 36.1253 166.213 35.7091 166.271 35.6418 C 166.329 35.5745 166.387 35.1574 166.444 35.0899 C 166.502 35.0223 166.56 34.6043 166.618 34.5366 C 166.676 34.4688 166.734 34.0498 166.792 33.9818 C 166.849 33.9139 166.907 33.494 166.965 33.4258 C 167.023 33.3575 167.081 32.9368 167.139 32.8683 C 167.197 32.7999 167.254 32.3781 167.312 32.3095 C 167.37 32.2408 167.428 31.8182 167.486 31.7493 C 167.544 31.6803 167.601 31.2568 167.659 31.1877 C 167.717 31.1185 167.775 30.6941 167.833 30.6247 C 167.891 30.5553 167.949 30.1299 168.006 30.0603 C 168.064 29.9907 168.122 29.5644 168.18 29.4946 C 168.238 29.4248 168.296 28.9976 168.354 28.9275 C 168.411 28.8575 168.469 28.4293 168.527 28.359 C 168.585 28.2887 168.643 27.8597 168.701 27.7892 C 168.759 27.7187 168.816 27.2887 168.874 27.2179 C 168.932 27.1472 168.99 26.7163 169.048 26.6453 C 169.106 26.5744 169.164 26.1425 169.221 26.0713 C 169.279 26.0001 169.337 25.5674 169.395 25.496 C 169.453 25.4245 169.511 24.9909 169.569 24.9192 C 169.626 24.8476 169.684 24.413 169.742 24.3411 C 169.8 24.2692 169.858 23.8337 169.916 23.7616 C 169.974 23.6895 170.031 23.2531 170.089 23.1807 C 170.147 23.1084 170.205 22.6711 170.263 22.5985 C 170.321 22.5259 170.379 22.0876 170.436 22.0148 C 170.494 21.942 170.552 21.5029 170.61 21.4298 C 170.668 21.3568 170.726 20.9167 170.784 20.8434 C 170.841 20.7702 170.899 20.3292 170.957 20.2557 C 171.015 20.1822 171.073 19.7403 171.131 19.6665 C 171.189 19.5928 171.246 19.15 171.304 19.076 C 171.362 19.002 171.42 18.5583 171.478 18.4841 C 171.536 18.4099 171.594 17.9653 171.651 17.8908 C 171.709 17.8164 171.767 17.3708 171.825 17.2962 C 171.883 17.2215 171.941 16.775 171.999 16.7001 C 172.056 16.6253 172.114 16.1778 172.172 16.1027 C 172.23 16.0276 172.288 15.5793 172.346 15.504 C 172.404 15.4286 172.461 14.9794 172.519 14.9038 C 172.577 14.8282 172.635 14.378 172.693 14.3022 C 172.751 14.2265 172.808 13.7754 172.866 13.6993 C 172.924 13.6233 172.982 13.1713 173.04 13.095 C 173.098 13.0188 173.156 12.5658 173.213 12.4894 C 173.271 12.4129 173.329 11.959 173.387 11.8823 C 173.445 11.8056 173.503 11.3508 173.561 11.2739 C 173.618 11.1969 173.676 10.7413 173.734 10.6641 C 173.792 10.5869 173.85 10.1303 173.908 10.0529 C 173.966 9.97549 174.023 9.51796 174.081 9.44033 C 174.139 9.3627 174.197 8.90425 174.255 8.82639 C 174.313 8.74853 174.371 8.28917 174.428 8.21107 C 174.486 8.13298 174.544 7.6727 174.602 7.59438 C 174.66 7.51606 174.718 7.05486 174.776 6.97631 C 174.833 6.89776 174.891 6.43564 174.949 6.35686 C 175.007 6.27808 175.065 5.81504 175.123 5.73603 C 175.181 5.65702 175.238 5.19307 175.296 5.11383 C 175.354 5.03459 175.412 4.56972 175.47 4.49025 C 175.528 4.41078 175.586 3.94499 175.643 3.86529 C 175.701 3.78559 175.759 3.31888 175.817 3.23895 C 175.875 3.15902 175.933 2.6914 175.991 2.61124 C 176.048 2.53108 176.106 2.06253 176.164 1.98215 C 176.222 1.90176 176.28 1.43229 176.338 1.35168 C 176.396 1.27106 176.453 0.800677 176.511 0.719829 C 176.569 0.638981 176.627 0.167682 176.685 0.0866045 C 176.743 0.00552662 176.801 -0.46669 176.858 -0.547997 C 176.916 -0.629305 176.974 -1.10244 177.032 -1.18398 C 177.09 -1.26551 177.148 -1.73957 177.206 -1.82133 C 177.263 -1.9031 177.321 -2.37807 177.379 -2.46007 C 177.437 -2.54206 177.495 -3.01795 177.553 -3.10018 C 177.611 -3.18241 177.668 -3.65921 177.726 -3.74167 C 177.784 -3.82413 177.842 -4.30185 177.9 -4.38454 C 177.958 -4.46722 178.015 -4.94587 178.073 -5.02878 C 178.131 -5.1117 178.189 -5.59126 178.247 -5.6744 C 178.305 -5.75755 178.363 -6.23803 178.42 -6.3214 C 178.478 -6.40478 178.536 -6.88618 178.594 -6.96978 C 178.652 -7.05339 178.71 -7.5357 178.768 -7.61954 C 178.825 -7.70337 178.883 -8.18661 178.941 -8.27067 C 178.999 -8.35473 179.057 -8.83889 179.115 -8.92318 C 179.173 -9.00747 179.23 -9.49254 179.288 -9.57707 C 179.346 -9.66159 179.404 -10.1476 179.462 -10.2323 C 179.52 -10.3171 179.578 -10.804 179.635 -10.889 C 179.693 -10.974 179.751 -11.4618 179.809 -11.547 C 179.867 -11.6322 179.925 -12.121 179.983 -12.2064 C 180.04 -12.2918 180.098 -12.7815 180.156 -12.8672 C 180.214 -12.9528 180.272 -13.4434 180.33 -13.5293 C 180.388 -13.6152 180.445 -14.1067 180.503 -14.1929 C 180.561 -14.279 180.619 -14.7714 180.677 -14.8578 C 180.735 -14.9441 180.793 -15.4375 180.85 -15.524 C 180.908 -15.6106 180.966 -16.1049 181.024 -16.1917 C 181.082 -16.2785 181.14 -16.7737 181.198 -16.8607 C 181.255 -16.9478 181.313 -17.4439 181.371 -17.5312 C 181.429 -17.6184 181.487 -18.1155 181.545 -18.203 C 181.603 -18.2905 181.66 -18.7884 181.718 -18.8761 C 181.776 -18.9639 181.834 -19.4627 181.892 -19.5507 C 181.95 -19.6386 182.008 -20.1384 182.065 -20.2266 C 182.123 -20.3148 182.181 -20.8155 182.239 -20.9039 C 182.297 -20.9923 182.355 -21.4939 182.413 -21.5826 C 182.47 -21.6713 182.528 -22.1738 182.586 -22.2627 C 182.644 -22.3515 182.702 -22.855 182.76 -22.9441 C 182.818 -23.0332 182.875 -23.5376 182.933 -23.6269 C 182.991 -23.7163 183.049 -24.2215 183.107 -24.3111 C 183.165 -24.4007 183.222 -24.9069 183.28 -24.9967 C 183.338 -25.0865 183.396 -25.5936 183.454 -25.6836 C 183.512 -25.7737 183.57 -26.2817 183.627 -26.372 C 183.685 -26.4622 183.743 -26.9712 183.801 -27.0617 C 183.859 -27.1521 183.917 -27.662 183.975 -27.7527 C 184.032 -27.8435 184.09 -28.3542 184.148 -28.4452 C 184.206 -28.5361 184.264 -29.0479 184.322 -29.139 C 184.38 -29.2302 184.437 -29.7428 184.495 -29.8342 C 184.553 -29.9257 184.611 -30.4392 184.669 -30.5308 C 184.727 -30.6225 184.785 -31.1369 184.842 -31.2288 C 184.9 -31.3207 184.958 -31.8361 185.016 -31.9282 C 185.074 -32.0203 185.132 -32.5365 185.19 -32.6289 C 185.247 -32.7212 185.305 -33.2384 185.363 -33.331 C 185.421 -33.4235 185.479 -33.9417 185.537 -34.0345 C 185.595 -34.1272 185.652 -34.6463 185.71 -34.7393 C 185.768 -34.8323 185.826 -35.3523 185.884 -35.4455 C 185.942 -35.5388 186 -36.0597 186.057 -36.1532 C 186.115 -36.2466 186.173 -36.7684 186.231 -36.8621 C 186.289 -36.9559 186.347 -37.4786 186.405 -37.5725 C 186.462 -37.6664 186.52 -38.1901 186.578 -38.2843 C 186.636 -38.3784 186.694 -38.903 186.752 -38.9974 C 186.81 -39.0918 186.867 -39.6173 186.925 -39.7119 C 186.983 -39.8065 187.041 -40.3329 187.099 -40.4278 C 187.157 -40.5226 187.215 -41.0499 187.272 -41.145 C 187.33 -41.2401 187.388 -41.7683 187.446 -41.8636 C 187.504 -41.959 187.562 -42.4881 187.62 -42.5837 C 187.677 -42.6792 187.735 -43.2093 187.793 -43.305 C 187.851 -43.4008 187.909 -43.9318 187.967 -44.0278 C 188.025 -44.1238 188.082 -44.6557 188.14 -44.7519 C 188.198 -44.8482 188.256 -45.381 188.314 -45.4775 C 188.372 -45.5739 188.429 -46.1077 188.487 -46.2044 C 188.545 -46.3011 188.603 -46.8357 188.661 -46.9326 C 188.719 -47.0296 188.777 -47.5651 188.834 -47.6623 C 188.892 -47.7594 188.95 -48.2959 189.008 -48.3933 C 189.066 -48.4907 189.124 -49.0281 189.182 -49.1257 C 189.239 -49.2233 189.297 -49.7617 189.355 -49.8595 C 189.413 -49.9573 189.471 -50.4966 189.529 -50.5947 C 189.587 -50.6927 189.644 -51.2329 189.702 -51.3312 L 189.702 39.8534"
       title="x**2-3*x-28"
       clip-path="url(#clipPath8992)"
       id="path1921" />
    <path
       style="fill:#000000;stroke:#000000;stroke-width:1;stroke-linecap:butt;stroke-linejoin:miter;stroke-opacity:1;stroke-miterlimit:4;stroke-dasharray:none"
       d="M 95.709535,145.06647 C 96.281786,104.00749 96.854041,62.948236 97.4263,21.888728"
       id="path1983"
       inkscape:path-effect="#path-effect1985"
       inkscape:original-d="M 95.709535,145.06647 C 96.282056,104.00749 96.85431,62.94824 97.4263,21.888728" />
    <path
       style="fill:none;stroke:#000000;stroke-width:1;stroke-linecap:butt;stroke-linejoin:miter;stroke-opacity:1;stroke-miterlimit:4;stroke-dasharray:none"
       d="m 16.3092,39.853399 c 57.797863,0 115.59546,0 173.3928,0"
       id="path2175"
       inkscape:path-effect="#path-effect2177"
       inkscape:original-d="m 16.3092,39.853399 c 57.797863,2.64e-4 115.59546,2.64e-4 173.3928,0" />
    <path
       style="fill:#ff0000;stroke:#ff0000;stroke-width:3.77953;stroke-linejoin:round;stroke-miterlimit:4;stroke-dasharray:none"
       id="path2381"
       sodipodi:type="arc"
       sodipodi:cx="28.970375"
       sodipodi:cy="39.914738"
       sodipodi:rx="3.6481214"
       sodipodi:ry="3.433526"
       sodipodi:start="6.032556"
       sodipodi:end="6.0193962"
       sodipodi:open="true"
       sodipodi:arc-type="arc"
       d="m 32.504516,39.063176 a 3.6481214,3.433526 0 0 1 -2.617735,4.174993 3.6481214,3.433526 0 0 1 -4.444518,-2.450002 3.6481214,3.433526 0 0 1 2.588491,-4.191113 3.6481214,3.433526 0 0 1 4.46155,2.422425" />
    <path
       style="fill:#ff0000;stroke:#ff0000;stroke-width:3.77953;stroke-linejoin:round;stroke-miterlimit:4;stroke-dasharray:none"
       id="path2381-3"
       sodipodi:type="arc"
       sodipodi:cx="164.8091"
       sodipodi:cy="39.914776"
       sodipodi:rx="3.6481214"
       sodipodi:ry="3.433526"
       sodipodi:start="6.032556"
       sodipodi:end="6.0193962"
       sodipodi:open="true"
       sodipodi:arc-type="arc"
       d="m 168.34324,39.063215 a 3.6481214,3.433526 0 0 1 -2.61774,4.174992 3.6481214,3.433526 0 0 1 -4.44451,-2.450002 3.6481214,3.433526 0 0 1 2.58849,-4.191113 3.6481214,3.433526 0 0 1 4.46155,2.422425" />
    <g
       inkscape:label=""
       transform="translate(104.937, 116.954)"
       id="g2528">
      <g
         id="g6896"
         transform="translate(-164.38006,-148.5)">
        <g
           style="fill:#000000;fill-opacity:1"
           id="g4704">
          <use
             xlink:href="#symbol3061"
             x="91.925003"
             y="81.962997"
             id="use6571"
             width="100%"
             height="100%" />
        </g>
        <g
           style="fill:#000000;fill-opacity:1"
           id="g1423">
          <use
             xlink:href="#symbol275"
             x="95.800003"
             y="81.962997"
             id="use632"
             width="100%"
             height="100%" />
        </g>
        <g
           style="fill:#000000;fill-opacity:1"
           id="g6077">
          <use
             xlink:href="#symbol92"
             x="103.548"
             y="81.962997"
             id="use6475"
             width="100%"
             height="100%" />
        </g>
        <g
           style="fill:#000000;fill-opacity:1"
           id="g9599">
          <use
             xlink:href="#symbol2099"
             x="108.53"
             y="81.962997"
             id="use9856"
             width="100%"
             height="100%" />
        </g>
        <g
           style="fill:#000000;fill-opacity:1"
           id="g7029">
          <use
             xlink:href="#symbol1338"
             x="112.958"
             y="81.962997"
             id="use9434"
             width="100%"
             height="100%" />
          <use
             xlink:href="#symbol2380"
             x="117.9393"
             y="81.962997"
             id="use887"
             width="100%"
             height="100%" />
        </g>
      </g>
    </g>
    <g
       inkscape:label=""
       transform="translate(43.348723,-31.116809)"
       id="g2782">
      <g
         id="g1283">
        <g
           style="fill:#000000;fill-opacity:1"
           id="g4936">
          <use
             xlink:href="#symbol9356"
             x="91.925003"
             y="81.962997"
             id="use2387"
             width="100%"
             height="100%" />
          <use
             xlink:href="#symbol2214"
             x="95.799454"
             y="81.962997"
             id="use6696"
             width="100%"
             height="100%" />
        </g>
        <g
           style="fill:#000000;fill-opacity:1"
           id="g7289">
          <use
             xlink:href="#symbol129"
             x="100.781"
             y="81.962997"
             id="use7300"
             width="100%"
             height="100%" />
        </g>
        <g
           style="fill:#000000;fill-opacity:1"
           id="g3280">
          <use
             xlink:href="#symbol9044"
             x="105.209"
             y="81.962997"
             id="use5787"
             width="100%"
             height="100%" />
          <use
             xlink:href="#symbol1832"
             x="110.1903"
             y="81.962997"
             id="use3257"
             width="100%"
             height="100%" />
        </g>
      </g>
    </g>
    <g
       inkscape:label=""
       transform="translate(-36.480757,-69.314786)"
       id="g3024">
      <g
         id="g9243">
        <g
           style="fill:#000000;fill-opacity:1"
           id="g2839">
          <use
             xlink:href="#symbol2838"
             x="91.925003"
             y="81.962997"
             id="use5041"
             width="100%"
             height="100%" />
        </g>
        <g
           style="fill:#000000;fill-opacity:1"
           id="g5775">
          <use
             xlink:href="#symbol2911"
             x="97.875"
             y="81.962997"
             id="use2302"
             width="100%"
             height="100%" />
        </g>
        <g
           style="fill:#000000;fill-opacity:1"
           id="g8726">
          <use
             xlink:href="#symbol3083"
             x="101.75"
             y="81.962997"
             id="use2584"
             width="100%"
             height="100%" />
        </g>
        <g
           style="fill:#000000;fill-opacity:1"
           id="g9002">
          <use
             xlink:href="#symbol4033"
             x="107.443"
             y="81.962997"
             id="use861"
             width="100%"
             height="100%" />
        </g>
        <g
           style="fill:#000000;fill-opacity:1"
           id="g7818">
          <use
             xlink:href="#symbol2780"
             x="114.08706"
             y="81.962997"
             id="use244"
             width="100%"
             height="100%" />
        </g>
        <g
           style="fill:#000000;fill-opacity:1"
           id="g9090">
          <use
             xlink:href="#symbol3083"
             x="124.601"
             y="81.962997"
             id="use3254"
             width="100%"
             height="100%" />
        </g>
        <g
           style="fill:#000000;fill-opacity:1"
           id="g3339">
          <use
             xlink:href="#symbol4628"
             x="130.295"
             y="78.348"
             id="use6997"
             width="100%"
             height="100%" />
        </g>
        <g
           style="fill:#000000;fill-opacity:1"
           id="g2472">
          <use
             xlink:href="#symbol178"
             x="136.978"
             y="81.962997"
             id="use5210"
             width="100%"
             height="100%" />
        </g>
        <g
           style="fill:#000000;fill-opacity:1"
           id="g1566">
          <use
             xlink:href="#symbol3267"
             x="146.94099"
             y="81.962997"
             id="use6777"
             width="100%"
             height="100%" />
        </g>
        <g
           style="fill:#000000;fill-opacity:1"
           id="g9478">
          <use
             xlink:href="#symbol3083"
             x="151.922"
             y="81.962997"
             id="use3743"
             width="100%"
             height="100%" />
        </g>
        <g
           style="fill:#000000;fill-opacity:1"
           id="g5380">
          <use
             xlink:href="#symbol178"
             x="159.83"
             y="81.962997"
             id="use6366"
             width="100%"
             height="100%" />
        </g>
        <g
           style="fill:#000000;fill-opacity:1"
           id="g544">
          <use
             xlink:href="#symbol1146"
             x="169.793"
             y="81.962997"
             id="use6389"
             width="100%"
             height="100%" />
          <use
             xlink:href="#symbol9905"
             x="174.77431"
             y="81.962997"
             id="use4357"
             width="100%"
             height="100%" />
        </g>
      </g>
    </g>
  </g>
</svg>
