<?xml version="1.0" encoding="UTF-8" standalone="no"?>
<!-- Created with Inkscape (http://www.inkscape.org/) -->

<svg
   sodipodi:docname="parabola.svg"
   id="svg5"
   version="1.1"
   viewBox="0 0 210 297"
   height="297mm"
   width="210mm"
   inkscape:version="1.1 (c68e22c387, 2021-05-23)"
   xmlns:inkscape="http://www.inkscape.org/namespaces/inkscape"
   xmlns:sodipodi="http://sodipodi.sourceforge.net/DTD/sodipodi-0.dtd"
   xmlns:xlink="http://www.w3.org/1999/xlink"
   xmlns="http://www.w3.org/2000/svg"
   xmlns:svg="http://www.w3.org/2000/svg"
   xmlns:rdf="http://www.w3.org/1999/02/22-rdf-syntax-ns#"
   xmlns:cc="http://creativecommons.org/ns#"
   xmlns:dc="http://purl.org/dc/elements/1.1/">
  <title
     id="title9747">parabola</title>
  <sodipodi:namedview
     id="namedview7"
     pagecolor="#ffffff"
     bordercolor="#666666"
     borderopacity="1.0"
     inkscape:pageshadow="2"
     inkscape:pageopacity="0.0"
     inkscape:pagecheckerboard="0"
     inkscape:document-units="mm"
     showgrid="false"
     inkscape:zoom="0.45254834"
     inkscape:cx="511.54756"
     inkscape:cy="551.32232"
     inkscape:window-width="1538"
     inkscape:window-height="877"
     inkscape:window-x="-8"
     inkscape:window-y="-8"
     inkscape:window-maximized="1"
     inkscape:current-layer="layer1" />
  <defs
     id="defs2">
    <inkscape:path-effect
       effect="bspline"
       id="path-effect1046"
       is_visible="true"
       lpeversion="1"
       weight="33.333333"
       steps="2"
       helper_size="0"
       apply_no_weight="true"
       apply_with_weight="true"
       only_selected="false" />
    <inkscape:path-effect
       effect="bspline"
       id="path-effect8628"
       is_visible="true"
       lpeversion="1"
       weight="33.333333"
       steps="2"
       helper_size="0"
       apply_no_weight="true"
       apply_with_weight="true"
       only_selected="false" />
    <marker
       style="overflow:visible;"
       id="Arrow1Mend"
       refX="0.0"
       refY="0.0"
       orient="auto"
       inkscape:stockid="Arrow1Mend"
       inkscape:isstock="true">
      <path
         transform="scale(0.4) rotate(180) translate(10,0)"
         style="fill-rule:evenodd;fill:context-stroke;stroke:context-stroke;stroke-width:1.0pt;"
         d="M 0.0,0.0 L 5.0,-5.0 L -12.5,0.0 L 5.0,5.0 L 0.0,0.0 z "
         id="path4772" />
    </marker>
    <marker
       style="overflow:visible"
       id="Arrow1Mstart"
       refX="0.0"
       refY="0.0"
       orient="auto"
       inkscape:stockid="Arrow1Mstart"
       inkscape:isstock="true">
      <path
         transform="scale(0.4) translate(10,0)"
         style="fill-rule:evenodd;fill:context-stroke;stroke:context-stroke;stroke-width:1.0pt"
         d="M 0.0,0.0 L 5.0,-5.0 L -12.5,0.0 L 5.0,5.0 L 0.0,0.0 z "
         id="path4769" />
    </marker>
    <clipPath
       id="clipPath8611">
      <rect
         style="fill:none;stroke:#000000;stroke-width:0.79375"
         width="175.96822"
         height="271.24854"
         x="12.017343"
         y="14.592488"
         ry="0"
         id="rect4626" />
    </clipPath>
    <g
       id="g3036">
      <symbol
         overflow="visible"
         id="symbol1401">
        <path
           style="stroke:none;"
           d=""
           id="path7357" />
      </symbol>
      <symbol
         overflow="visible"
         id="symbol6762">
        <path
           style="stroke:none;"
           d="M 3.65625 -3.984375 L 4.515625 -3.984375 C 4.71875 -3.984375 4.8125 -3.984375 4.8125 -4.1875 C 4.8125 -4.296875 4.71875 -4.296875 4.546875 -4.296875 L 3.71875 -4.296875 L 3.921875 -5.4375 C 3.96875 -5.640625 4.109375 -6.34375 4.171875 -6.46875 C 4.25 -6.65625 4.421875 -6.8125 4.640625 -6.8125 C 4.671875 -6.8125 4.9375 -6.8125 5.125 -6.625 C 4.6875 -6.59375 4.578125 -6.234375 4.578125 -6.09375 C 4.578125 -5.859375 4.765625 -5.734375 4.953125 -5.734375 C 5.21875 -5.734375 5.5 -5.96875 5.5 -6.34375 C 5.5 -6.796875 5.046875 -7.03125 4.640625 -7.03125 C 4.296875 -7.03125 3.671875 -6.84375 3.375 -5.859375 C 3.3125 -5.65625 3.28125 -5.546875 3.046875 -4.296875 L 2.359375 -4.296875 C 2.15625 -4.296875 2.046875 -4.296875 2.046875 -4.109375 C 2.046875 -3.984375 2.140625 -3.984375 2.328125 -3.984375 L 2.984375 -3.984375 L 2.25 -0.046875 C 2.0625 0.921875 1.890625 1.828125 1.375 1.828125 C 1.328125 1.828125 1.09375 1.828125 0.890625 1.640625 C 1.359375 1.609375 1.453125 1.25 1.453125 1.109375 C 1.453125 0.875 1.265625 0.75 1.078125 0.75 C 0.8125 0.75 0.53125 0.984375 0.53125 1.359375 C 0.53125 1.796875 0.96875 2.046875 1.375 2.046875 C 1.921875 2.046875 2.328125 1.453125 2.5 1.078125 C 2.828125 0.453125 3.046875 -0.75 3.0625 -0.828125 Z M 3.65625 -3.984375 "
           id="path5348" />
      </symbol>
      <symbol
         overflow="visible"
         id="symbol8299">
        <path
           style="stroke:none;"
           d="M 4.6875 -3.765625 C 4.703125 -3.8125 4.71875 -3.875 4.71875 -3.9375 C 4.71875 -4.109375 4.609375 -4.203125 4.4375 -4.203125 C 4.34375 -4.203125 4.0625 -4.140625 4.03125 -3.78125 C 3.84375 -4.140625 3.5 -4.40625 3.09375 -4.40625 C 1.96875 -4.40625 0.734375 -3.015625 0.734375 -1.578125 C 0.734375 -0.59375 1.328125 0 2.046875 0 C 2.640625 0 3.109375 -0.46875 3.203125 -0.578125 L 3.21875 -0.5625 C 3.015625 0.3125 2.890625 0.734375 2.890625 0.75 C 2.84375 0.84375 2.515625 1.828125 1.453125 1.828125 C 1.265625 1.828125 0.9375 1.8125 0.65625 1.71875 C 0.953125 1.640625 1.0625 1.375 1.0625 1.203125 C 1.0625 1.046875 0.953125 0.859375 0.6875 0.859375 C 0.46875 0.859375 0.15625 1.03125 0.15625 1.4375 C 0.15625 1.84375 0.515625 2.046875 1.46875 2.046875 C 2.71875 2.046875 3.4375 1.265625 3.59375 0.671875 Z M 3.40625 -1.28125 C 3.34375 -1.015625 3.109375 -0.765625 2.890625 -0.578125 C 2.6875 -0.40625 2.375 -0.21875 2.078125 -0.21875 C 1.578125 -0.21875 1.4375 -0.734375 1.4375 -1.140625 C 1.4375 -1.609375 1.71875 -2.796875 2 -3.296875 C 2.265625 -3.78125 2.6875 -4.1875 3.109375 -4.1875 C 3.765625 -4.1875 3.90625 -3.375 3.90625 -3.328125 C 3.90625 -3.28125 3.890625 -3.21875 3.875 -3.1875 Z M 3.40625 -1.28125 "
           id="path4413" />
      </symbol>
      <symbol
         overflow="visible"
         id="symbol8816">
        <path
           style="stroke:none;"
           d="M 3.328125 -3.015625 C 3.390625 -3.265625 3.625 -4.1875 4.3125 -4.1875 C 4.359375 -4.1875 4.609375 -4.1875 4.8125 -4.0625 C 4.53125 -4 4.34375 -3.765625 4.34375 -3.515625 C 4.34375 -3.359375 4.453125 -3.171875 4.71875 -3.171875 C 4.9375 -3.171875 5.25 -3.34375 5.25 -3.75 C 5.25 -4.265625 4.671875 -4.40625 4.328125 -4.40625 C 3.75 -4.40625 3.40625 -3.875 3.28125 -3.65625 C 3.03125 -4.3125 2.5 -4.40625 2.203125 -4.40625 C 1.171875 -4.40625 0.59375 -3.125 0.59375 -2.875 C 0.59375 -2.765625 0.703125 -2.765625 0.71875 -2.765625 C 0.796875 -2.765625 0.828125 -2.796875 0.84375 -2.875 C 1.1875 -3.9375 1.84375 -4.1875 2.1875 -4.1875 C 2.375 -4.1875 2.71875 -4.09375 2.71875 -3.515625 C 2.71875 -3.203125 2.546875 -2.546875 2.1875 -1.140625 C 2.03125 -0.53125 1.671875 -0.109375 1.234375 -0.109375 C 1.171875 -0.109375 0.953125 -0.109375 0.734375 -0.234375 C 0.984375 -0.296875 1.203125 -0.5 1.203125 -0.78125 C 1.203125 -1.046875 0.984375 -1.125 0.84375 -1.125 C 0.53125 -1.125 0.296875 -0.875 0.296875 -0.546875 C 0.296875 -0.09375 0.78125 0.109375 1.21875 0.109375 C 1.890625 0.109375 2.25 -0.59375 2.265625 -0.640625 C 2.390625 -0.28125 2.75 0.109375 3.34375 0.109375 C 4.375 0.109375 4.9375 -1.171875 4.9375 -1.421875 C 4.9375 -1.53125 4.859375 -1.53125 4.828125 -1.53125 C 4.734375 -1.53125 4.71875 -1.484375 4.6875 -1.421875 C 4.359375 -0.34375 3.6875 -0.109375 3.375 -0.109375 C 2.984375 -0.109375 2.828125 -0.421875 2.828125 -0.765625 C 2.828125 -0.984375 2.875 -1.203125 2.984375 -1.640625 Z M 3.328125 -3.015625 "
           id="path8315" />
      </symbol>
      <symbol
         overflow="visible"
         id="symbol2344">
        <path
           style="stroke:none;"
           d=""
           id="path8210" />
      </symbol>
      <symbol
         overflow="visible"
         id="symbol8934">
        <path
           style="stroke:none;"
           d="M 3.296875 2.390625 C 3.296875 2.359375 3.296875 2.34375 3.125 2.171875 C 1.890625 0.921875 1.5625 -0.96875 1.5625 -2.5 C 1.5625 -4.234375 1.9375 -5.96875 3.171875 -7.203125 C 3.296875 -7.328125 3.296875 -7.34375 3.296875 -7.375 C 3.296875 -7.453125 3.265625 -7.484375 3.203125 -7.484375 C 3.09375 -7.484375 2.203125 -6.796875 1.609375 -5.53125 C 1.109375 -4.4375 0.984375 -3.328125 0.984375 -2.5 C 0.984375 -1.71875 1.09375 -0.515625 1.640625 0.625 C 2.25 1.84375 3.09375 2.5 3.203125 2.5 C 3.265625 2.5 3.296875 2.46875 3.296875 2.390625 Z M 3.296875 2.390625 "
           id="path7153" />
      </symbol>
      <symbol
         overflow="visible"
         id="symbol9303">
        <path
           style="stroke:none;"
           d="M 2.875 -2.5 C 2.875 -3.265625 2.765625 -4.46875 2.21875 -5.609375 C 1.625 -6.828125 0.765625 -7.484375 0.671875 -7.484375 C 0.609375 -7.484375 0.5625 -7.4375 0.5625 -7.375 C 0.5625 -7.34375 0.5625 -7.328125 0.75 -7.140625 C 1.734375 -6.15625 2.296875 -4.578125 2.296875 -2.5 C 2.296875 -0.78125 1.9375 0.96875 0.703125 2.21875 C 0.5625 2.34375 0.5625 2.359375 0.5625 2.390625 C 0.5625 2.453125 0.609375 2.5 0.671875 2.5 C 0.765625 2.5 1.671875 1.8125 2.25 0.546875 C 2.765625 -0.546875 2.875 -1.65625 2.875 -2.5 Z M 2.875 -2.5 "
           id="path7346" />
      </symbol>
      <symbol
         overflow="visible"
         id="symbol6215">
        <path
           style="stroke:none;"
           d="M 6.84375 -3.265625 C 7 -3.265625 7.1875 -3.265625 7.1875 -3.453125 C 7.1875 -3.65625 7 -3.65625 6.859375 -3.65625 L 0.890625 -3.65625 C 0.75 -3.65625 0.5625 -3.65625 0.5625 -3.453125 C 0.5625 -3.265625 0.75 -3.265625 0.890625 -3.265625 Z M 6.859375 -1.328125 C 7 -1.328125 7.1875 -1.328125 7.1875 -1.53125 C 7.1875 -1.71875 7 -1.71875 6.84375 -1.71875 L 0.890625 -1.71875 C 0.75 -1.71875 0.5625 -1.71875 0.5625 -1.53125 C 0.5625 -1.328125 0.75 -1.328125 0.890625 -1.328125 Z M 6.859375 -1.328125 "
           id="path3608" />
      </symbol>
      <symbol
         overflow="visible"
         id="symbol3920">
        <path
           style="stroke:none;"
           d="M 4.078125 -2.296875 L 6.859375 -2.296875 C 7 -2.296875 7.1875 -2.296875 7.1875 -2.5 C 7.1875 -2.6875 7 -2.6875 6.859375 -2.6875 L 4.078125 -2.6875 L 4.078125 -5.484375 C 4.078125 -5.625 4.078125 -5.8125 3.875 -5.8125 C 3.671875 -5.8125 3.671875 -5.625 3.671875 -5.484375 L 3.671875 -2.6875 L 0.890625 -2.6875 C 0.75 -2.6875 0.5625 -2.6875 0.5625 -2.5 C 0.5625 -2.296875 0.75 -2.296875 0.890625 -2.296875 L 3.671875 -2.296875 L 3.671875 0.5 C 3.671875 0.640625 3.671875 0.828125 3.875 0.828125 C 4.078125 0.828125 4.078125 0.640625 4.078125 0.5 Z M 4.078125 -2.296875 "
           id="path7727" />
      </symbol>
      <symbol
         overflow="visible"
         id="symbol5712">
        <path
           style="stroke:none;"
           d="M 2.890625 -3.515625 C 3.703125 -3.78125 4.28125 -4.46875 4.28125 -5.265625 C 4.28125 -6.078125 3.40625 -6.640625 2.453125 -6.640625 C 1.453125 -6.640625 0.6875 -6.046875 0.6875 -5.28125 C 0.6875 -4.953125 0.90625 -4.765625 1.203125 -4.765625 C 1.5 -4.765625 1.703125 -4.984375 1.703125 -5.28125 C 1.703125 -5.765625 1.234375 -5.765625 1.09375 -5.765625 C 1.390625 -6.265625 2.046875 -6.390625 2.40625 -6.390625 C 2.828125 -6.390625 3.375 -6.171875 3.375 -5.28125 C 3.375 -5.15625 3.34375 -4.578125 3.09375 -4.140625 C 2.796875 -3.65625 2.453125 -3.625 2.203125 -3.625 C 2.125 -3.609375 1.890625 -3.59375 1.8125 -3.59375 C 1.734375 -3.578125 1.671875 -3.5625 1.671875 -3.46875 C 1.671875 -3.359375 1.734375 -3.359375 1.90625 -3.359375 L 2.34375 -3.359375 C 3.15625 -3.359375 3.53125 -2.6875 3.53125 -1.703125 C 3.53125 -0.34375 2.84375 -0.0625 2.40625 -0.0625 C 1.96875 -0.0625 1.21875 -0.234375 0.875 -0.8125 C 1.21875 -0.765625 1.53125 -0.984375 1.53125 -1.359375 C 1.53125 -1.71875 1.265625 -1.921875 0.984375 -1.921875 C 0.734375 -1.921875 0.421875 -1.78125 0.421875 -1.34375 C 0.421875 -0.4375 1.34375 0.21875 2.4375 0.21875 C 3.65625 0.21875 4.5625 -0.6875 4.5625 -1.703125 C 4.5625 -2.515625 3.921875 -3.296875 2.890625 -3.515625 Z M 2.890625 -3.515625 "
           id="path49" />
      </symbol>
      <symbol
         overflow="visible"
         id="symbol2376">
        <path
           style="stroke:none;"
           d="M 2.9375 -6.375 C 2.9375 -6.625 2.9375 -6.640625 2.703125 -6.640625 C 2.078125 -6 1.203125 -6 0.890625 -6 L 0.890625 -5.6875 C 1.09375 -5.6875 1.671875 -5.6875 2.1875 -5.953125 L 2.1875 -0.78125 C 2.1875 -0.421875 2.15625 -0.3125 1.265625 -0.3125 L 0.953125 -0.3125 L 0.953125 0 C 1.296875 -0.03125 2.15625 -0.03125 2.5625 -0.03125 C 2.953125 -0.03125 3.828125 -0.03125 4.171875 0 L 4.171875 -0.3125 L 3.859375 -0.3125 C 2.953125 -0.3125 2.9375 -0.421875 2.9375 -0.78125 Z M 2.9375 -6.375 "
           id="path4198" />
      </symbol>
      <symbol
         overflow="visible"
         id="symbol9093">
        <path
           style="stroke:none;"
           d=""
           id="path893" />
      </symbol>
      <symbol
         overflow="visible"
         id="symbol7226">
        <path
           style="stroke:none;"
           d="M 3.515625 -1.265625 L 3.28125 -1.265625 C 3.265625 -1.109375 3.1875 -0.703125 3.09375 -0.640625 C 3.046875 -0.59375 2.515625 -0.59375 2.40625 -0.59375 L 1.125 -0.59375 C 1.859375 -1.234375 2.109375 -1.4375 2.515625 -1.765625 C 3.03125 -2.171875 3.515625 -2.609375 3.515625 -3.265625 C 3.515625 -4.109375 2.78125 -4.625 1.890625 -4.625 C 1.03125 -4.625 0.4375 -4.015625 0.4375 -3.375 C 0.4375 -3.03125 0.734375 -2.984375 0.8125 -2.984375 C 0.96875 -2.984375 1.171875 -3.109375 1.171875 -3.359375 C 1.171875 -3.484375 1.125 -3.734375 0.765625 -3.734375 C 0.984375 -4.21875 1.453125 -4.375 1.78125 -4.375 C 2.484375 -4.375 2.84375 -3.828125 2.84375 -3.265625 C 2.84375 -2.65625 2.40625 -2.1875 2.1875 -1.9375 L 0.515625 -0.265625 C 0.4375 -0.203125 0.4375 -0.1875 0.4375 0 L 3.3125 0 Z M 3.515625 -1.265625 "
           id="path1955" />
      </symbol>
      <symbol
         overflow="visible"
         id="symbol8460">
        <path
           style="stroke:none;"
           d=""
           id="path4456" />
      </symbol>
      <symbol
         overflow="visible"
         id="symbol3701">
        <path
           style="stroke:none;"
           d="M 6.5625 -2.296875 C 6.734375 -2.296875 6.921875 -2.296875 6.921875 -2.5 C 6.921875 -2.6875 6.734375 -2.6875 6.5625 -2.6875 L 1.171875 -2.6875 C 1 -2.6875 0.828125 -2.6875 0.828125 -2.5 C 0.828125 -2.296875 1 -2.296875 1.171875 -2.296875 Z M 6.5625 -2.296875 "
           id="path1511" />
      </symbol>
    </g>
    <g
       id="g9838">
      <symbol
         overflow="visible"
         id="symbol1223">
        <path
           style="stroke:none;"
           d=""
           id="path305" />
      </symbol>
      <symbol
         overflow="visible"
         id="symbol6649">
        <path
           style="stroke:none;"
           d="M 3.296875 2.390625 C 3.296875 2.359375 3.296875 2.34375 3.125 2.171875 C 1.890625 0.921875 1.5625 -0.96875 1.5625 -2.5 C 1.5625 -4.234375 1.9375 -5.96875 3.171875 -7.203125 C 3.296875 -7.328125 3.296875 -7.34375 3.296875 -7.375 C 3.296875 -7.453125 3.265625 -7.484375 3.203125 -7.484375 C 3.09375 -7.484375 2.203125 -6.796875 1.609375 -5.53125 C 1.109375 -4.4375 0.984375 -3.328125 0.984375 -2.5 C 0.984375 -1.71875 1.09375 -0.515625 1.640625 0.625 C 2.25 1.84375 3.09375 2.5 3.203125 2.5 C 3.265625 2.5 3.296875 2.46875 3.296875 2.390625 Z M 3.296875 2.390625 "
           id="path5428" />
      </symbol>
      <symbol
         overflow="visible"
         id="symbol9564">
        <path
           style="stroke:none;"
           d="M 4.578125 -3.1875 C 4.578125 -3.984375 4.53125 -4.78125 4.1875 -5.515625 C 3.734375 -6.484375 2.90625 -6.640625 2.5 -6.640625 C 1.890625 -6.640625 1.171875 -6.375 0.75 -5.453125 C 0.4375 -4.765625 0.390625 -3.984375 0.390625 -3.1875 C 0.390625 -2.4375 0.421875 -1.546875 0.84375 -0.78125 C 1.265625 0.015625 2 0.21875 2.484375 0.21875 C 3.015625 0.21875 3.78125 0.015625 4.21875 -0.9375 C 4.53125 -1.625 4.578125 -2.40625 4.578125 -3.1875 Z M 2.484375 0 C 2.09375 0 1.5 -0.25 1.328125 -1.203125 C 1.21875 -1.796875 1.21875 -2.71875 1.21875 -3.3125 C 1.21875 -3.953125 1.21875 -4.609375 1.296875 -5.140625 C 1.484375 -6.328125 2.234375 -6.421875 2.484375 -6.421875 C 2.8125 -6.421875 3.46875 -6.234375 3.65625 -5.25 C 3.765625 -4.6875 3.765625 -3.9375 3.765625 -3.3125 C 3.765625 -2.5625 3.765625 -1.890625 3.65625 -1.25 C 3.5 -0.296875 2.9375 0 2.484375 0 Z M 2.484375 0 "
           id="path7030" />
      </symbol>
      <symbol
         overflow="visible"
         id="symbol8344">
        <path
           style="stroke:none;"
           d="M 3.65625 -3.171875 L 3.65625 -2.84375 C 3.65625 -0.515625 2.625 -0.0625 2.046875 -0.0625 C 1.875 -0.0625 1.328125 -0.078125 1.0625 -0.421875 C 1.5 -0.421875 1.578125 -0.703125 1.578125 -0.875 C 1.578125 -1.1875 1.34375 -1.328125 1.125 -1.328125 C 0.96875 -1.328125 0.671875 -1.25 0.671875 -0.859375 C 0.671875 -0.1875 1.203125 0.21875 2.046875 0.21875 C 3.34375 0.21875 4.5625 -1.140625 4.5625 -3.28125 C 4.5625 -5.96875 3.40625 -6.640625 2.515625 -6.640625 C 1.96875 -6.640625 1.484375 -6.453125 1.0625 -6.015625 C 0.640625 -5.5625 0.421875 -5.140625 0.421875 -4.390625 C 0.421875 -3.15625 1.296875 -2.171875 2.40625 -2.171875 C 3.015625 -2.171875 3.421875 -2.59375 3.65625 -3.171875 Z M 2.421875 -2.40625 C 2.265625 -2.40625 1.796875 -2.40625 1.5 -3.03125 C 1.3125 -3.40625 1.3125 -3.890625 1.3125 -4.390625 C 1.3125 -4.921875 1.3125 -5.390625 1.53125 -5.765625 C 1.796875 -6.265625 2.171875 -6.390625 2.515625 -6.390625 C 2.984375 -6.390625 3.3125 -6.046875 3.484375 -5.609375 C 3.59375 -5.28125 3.640625 -4.65625 3.640625 -4.203125 C 3.640625 -3.375 3.296875 -2.40625 2.421875 -2.40625 Z M 2.421875 -2.40625 "
           id="path4701" />
      </symbol>
      <symbol
         overflow="visible"
         id="symbol382">
        <path
           style="stroke:none;"
           d="M 2.875 -2.5 C 2.875 -3.265625 2.765625 -4.46875 2.21875 -5.609375 C 1.625 -6.828125 0.765625 -7.484375 0.671875 -7.484375 C 0.609375 -7.484375 0.5625 -7.4375 0.5625 -7.375 C 0.5625 -7.34375 0.5625 -7.328125 0.75 -7.140625 C 1.734375 -6.15625 2.296875 -4.578125 2.296875 -2.5 C 2.296875 -0.78125 1.9375 0.96875 0.703125 2.21875 C 0.5625 2.34375 0.5625 2.359375 0.5625 2.390625 C 0.5625 2.453125 0.609375 2.5 0.671875 2.5 C 0.765625 2.5 1.671875 1.8125 2.25 0.546875 C 2.765625 -0.546875 2.875 -1.65625 2.875 -2.5 Z M 2.875 -2.5 "
           id="path6300" />
      </symbol>
      <symbol
         overflow="visible"
         id="symbol19">
        <path
           style="stroke:none;"
           d=""
           id="path8220" />
      </symbol>
      <symbol
         overflow="visible"
         id="symbol1955">
        <path
           style="stroke:none;"
           d="M 2.03125 -0.015625 C 2.03125 -0.671875 1.78125 -1.0625 1.390625 -1.0625 C 1.0625 -1.0625 0.859375 -0.8125 0.859375 -0.53125 C 0.859375 -0.265625 1.0625 0 1.390625 0 C 1.5 0 1.640625 -0.046875 1.734375 -0.125 C 1.765625 -0.15625 1.78125 -0.15625 1.78125 -0.15625 C 1.796875 -0.15625 1.796875 -0.15625 1.796875 -0.015625 C 1.796875 0.734375 1.453125 1.328125 1.125 1.65625 C 1.015625 1.765625 1.015625 1.78125 1.015625 1.8125 C 1.015625 1.890625 1.0625 1.921875 1.109375 1.921875 C 1.21875 1.921875 2.03125 1.15625 2.03125 -0.015625 Z M 2.03125 -0.015625 "
           id="path8254" />
      </symbol>
    </g>
    <g
       id="g9878">
      <symbol
         overflow="visible"
         id="symbol7931">
        <path
           style="stroke:none;"
           d=""
           id="path5837" />
      </symbol>
      <symbol
         overflow="visible"
         id="symbol4523">
        <path
           style="stroke:none;"
           d="M 3.296875 2.390625 C 3.296875 2.359375 3.296875 2.34375 3.125 2.171875 C 1.890625 0.921875 1.5625 -0.96875 1.5625 -2.5 C 1.5625 -4.234375 1.9375 -5.96875 3.171875 -7.203125 C 3.296875 -7.328125 3.296875 -7.34375 3.296875 -7.375 C 3.296875 -7.453125 3.265625 -7.484375 3.203125 -7.484375 C 3.09375 -7.484375 2.203125 -6.796875 1.609375 -5.53125 C 1.109375 -4.4375 0.984375 -3.328125 0.984375 -2.5 C 0.984375 -1.71875 1.09375 -0.515625 1.640625 0.625 C 2.25 1.84375 3.09375 2.5 3.203125 2.5 C 3.265625 2.5 3.296875 2.46875 3.296875 2.390625 Z M 3.296875 2.390625 "
           id="path3355" />
      </symbol>
      <symbol
         overflow="visible"
         id="symbol9470">
        <path
           style="stroke:none;"
           d="M 4.578125 -3.1875 C 4.578125 -3.984375 4.53125 -4.78125 4.1875 -5.515625 C 3.734375 -6.484375 2.90625 -6.640625 2.5 -6.640625 C 1.890625 -6.640625 1.171875 -6.375 0.75 -5.453125 C 0.4375 -4.765625 0.390625 -3.984375 0.390625 -3.1875 C 0.390625 -2.4375 0.421875 -1.546875 0.84375 -0.78125 C 1.265625 0.015625 2 0.21875 2.484375 0.21875 C 3.015625 0.21875 3.78125 0.015625 4.21875 -0.9375 C 4.53125 -1.625 4.578125 -2.40625 4.578125 -3.1875 Z M 2.484375 0 C 2.09375 0 1.5 -0.25 1.328125 -1.203125 C 1.21875 -1.796875 1.21875 -2.71875 1.21875 -3.3125 C 1.21875 -3.953125 1.21875 -4.609375 1.296875 -5.140625 C 1.484375 -6.328125 2.234375 -6.421875 2.484375 -6.421875 C 2.8125 -6.421875 3.46875 -6.234375 3.65625 -5.25 C 3.765625 -4.6875 3.765625 -3.9375 3.765625 -3.3125 C 3.765625 -2.5625 3.765625 -1.890625 3.65625 -1.25 C 3.5 -0.296875 2.9375 0 2.484375 0 Z M 2.484375 0 "
           id="path6328" />
      </symbol>
      <symbol
         overflow="visible"
         id="symbol1567">
        <path
           style="stroke:none;"
           d="M 1.625 -4.5625 C 1.171875 -4.859375 1.125 -5.1875 1.125 -5.359375 C 1.125 -5.96875 1.78125 -6.390625 2.484375 -6.390625 C 3.203125 -6.390625 3.84375 -5.875 3.84375 -5.15625 C 3.84375 -4.578125 3.453125 -4.109375 2.859375 -3.765625 Z M 3.078125 -3.609375 C 3.796875 -3.984375 4.28125 -4.5 4.28125 -5.15625 C 4.28125 -6.078125 3.40625 -6.640625 2.5 -6.640625 C 1.5 -6.640625 0.6875 -5.90625 0.6875 -4.96875 C 0.6875 -4.796875 0.703125 -4.34375 1.125 -3.875 C 1.234375 -3.765625 1.609375 -3.515625 1.859375 -3.34375 C 1.28125 -3.046875 0.421875 -2.5 0.421875 -1.5 C 0.421875 -0.453125 1.4375 0.21875 2.484375 0.21875 C 3.609375 0.21875 4.5625 -0.609375 4.5625 -1.671875 C 4.5625 -2.03125 4.453125 -2.484375 4.0625 -2.90625 C 3.875 -3.109375 3.71875 -3.203125 3.078125 -3.609375 Z M 2.078125 -3.1875 L 3.3125 -2.40625 C 3.59375 -2.21875 4.0625 -1.921875 4.0625 -1.3125 C 4.0625 -0.578125 3.3125 -0.0625 2.5 -0.0625 C 1.640625 -0.0625 0.921875 -0.671875 0.921875 -1.5 C 0.921875 -2.078125 1.234375 -2.71875 2.078125 -3.1875 Z M 2.078125 -3.1875 "
           id="path4836" />
      </symbol>
      <symbol
         overflow="visible"
         id="symbol8725">
        <path
           style="stroke:none;"
           d="M 2.875 -2.5 C 2.875 -3.265625 2.765625 -4.46875 2.21875 -5.609375 C 1.625 -6.828125 0.765625 -7.484375 0.671875 -7.484375 C 0.609375 -7.484375 0.5625 -7.4375 0.5625 -7.375 C 0.5625 -7.34375 0.5625 -7.328125 0.75 -7.140625 C 1.734375 -6.15625 2.296875 -4.578125 2.296875 -2.5 C 2.296875 -0.78125 1.9375 0.96875 0.703125 2.21875 C 0.5625 2.34375 0.5625 2.359375 0.5625 2.390625 C 0.5625 2.453125 0.609375 2.5 0.671875 2.5 C 0.765625 2.5 1.671875 1.8125 2.25 0.546875 C 2.765625 -0.546875 2.875 -1.65625 2.875 -2.5 Z M 2.875 -2.5 "
           id="path2490" />
      </symbol>
      <symbol
         overflow="visible"
         id="symbol7640">
        <path
           style="stroke:none;"
           d=""
           id="path1947" />
      </symbol>
      <symbol
         overflow="visible"
         id="symbol9184">
        <path
           style="stroke:none;"
           d="M 2.03125 -0.015625 C 2.03125 -0.671875 1.78125 -1.0625 1.390625 -1.0625 C 1.0625 -1.0625 0.859375 -0.8125 0.859375 -0.53125 C 0.859375 -0.265625 1.0625 0 1.390625 0 C 1.5 0 1.640625 -0.046875 1.734375 -0.125 C 1.765625 -0.15625 1.78125 -0.15625 1.78125 -0.15625 C 1.796875 -0.15625 1.796875 -0.15625 1.796875 -0.015625 C 1.796875 0.734375 1.453125 1.328125 1.125 1.65625 C 1.015625 1.765625 1.015625 1.78125 1.015625 1.8125 C 1.015625 1.890625 1.0625 1.921875 1.109375 1.921875 C 1.21875 1.921875 2.03125 1.15625 2.03125 -0.015625 Z M 2.03125 -0.015625 "
           id="path7902" />
      </symbol>
    </g>
    <g
       id="g6093">
      <symbol
         overflow="visible"
         id="symbol5453">
        <path
           style="stroke:none;"
           d=""
           id="path46" />
      </symbol>
      <symbol
         overflow="visible"
         id="symbol8937">
        <path
           style="stroke:none;"
           d="M 3.296875 2.390625 C 3.296875 2.359375 3.296875 2.34375 3.125 2.171875 C 1.890625 0.921875 1.5625 -0.96875 1.5625 -2.5 C 1.5625 -4.234375 1.9375 -5.96875 3.171875 -7.203125 C 3.296875 -7.328125 3.296875 -7.34375 3.296875 -7.375 C 3.296875 -7.453125 3.265625 -7.484375 3.203125 -7.484375 C 3.09375 -7.484375 2.203125 -6.796875 1.609375 -5.53125 C 1.109375 -4.4375 0.984375 -3.328125 0.984375 -2.5 C 0.984375 -1.71875 1.09375 -0.515625 1.640625 0.625 C 2.25 1.84375 3.09375 2.5 3.203125 2.5 C 3.265625 2.5 3.296875 2.46875 3.296875 2.390625 Z M 3.296875 2.390625 "
           id="path7950" />
      </symbol>
      <symbol
         overflow="visible"
         id="symbol2876">
        <path
           style="stroke:none;"
           d="M 1.3125 -3.265625 L 1.3125 -3.515625 C 1.3125 -6.03125 2.546875 -6.390625 3.0625 -6.390625 C 3.296875 -6.390625 3.71875 -6.328125 3.9375 -5.984375 C 3.78125 -5.984375 3.390625 -5.984375 3.390625 -5.546875 C 3.390625 -5.234375 3.625 -5.078125 3.84375 -5.078125 C 4 -5.078125 4.3125 -5.171875 4.3125 -5.5625 C 4.3125 -6.15625 3.875 -6.640625 3.046875 -6.640625 C 1.765625 -6.640625 0.421875 -5.359375 0.421875 -3.15625 C 0.421875 -0.484375 1.578125 0.21875 2.5 0.21875 C 3.609375 0.21875 4.5625 -0.71875 4.5625 -2.03125 C 4.5625 -3.296875 3.671875 -4.25 2.5625 -4.25 C 1.890625 -4.25 1.515625 -3.75 1.3125 -3.265625 Z M 2.5 -0.0625 C 1.875 -0.0625 1.578125 -0.65625 1.515625 -0.8125 C 1.328125 -1.28125 1.328125 -2.078125 1.328125 -2.25 C 1.328125 -3.03125 1.65625 -4.03125 2.546875 -4.03125 C 2.71875 -4.03125 3.171875 -4.03125 3.484375 -3.40625 C 3.65625 -3.046875 3.65625 -2.53125 3.65625 -2.046875 C 3.65625 -1.5625 3.65625 -1.0625 3.484375 -0.703125 C 3.1875 -0.109375 2.734375 -0.0625 2.5 -0.0625 Z M 2.5 -0.0625 "
           id="path5727" />
      </symbol>
      <symbol
         overflow="visible"
         id="symbol8238">
        <path
           style="stroke:none;"
           d="M 1.625 -4.5625 C 1.171875 -4.859375 1.125 -5.1875 1.125 -5.359375 C 1.125 -5.96875 1.78125 -6.390625 2.484375 -6.390625 C 3.203125 -6.390625 3.84375 -5.875 3.84375 -5.15625 C 3.84375 -4.578125 3.453125 -4.109375 2.859375 -3.765625 Z M 3.078125 -3.609375 C 3.796875 -3.984375 4.28125 -4.5 4.28125 -5.15625 C 4.28125 -6.078125 3.40625 -6.640625 2.5 -6.640625 C 1.5 -6.640625 0.6875 -5.90625 0.6875 -4.96875 C 0.6875 -4.796875 0.703125 -4.34375 1.125 -3.875 C 1.234375 -3.765625 1.609375 -3.515625 1.859375 -3.34375 C 1.28125 -3.046875 0.421875 -2.5 0.421875 -1.5 C 0.421875 -0.453125 1.4375 0.21875 2.484375 0.21875 C 3.609375 0.21875 4.5625 -0.609375 4.5625 -1.671875 C 4.5625 -2.03125 4.453125 -2.484375 4.0625 -2.90625 C 3.875 -3.109375 3.71875 -3.203125 3.078125 -3.609375 Z M 2.078125 -3.1875 L 3.3125 -2.40625 C 3.59375 -2.21875 4.0625 -1.921875 4.0625 -1.3125 C 4.0625 -0.578125 3.3125 -0.0625 2.5 -0.0625 C 1.640625 -0.0625 0.921875 -0.671875 0.921875 -1.5 C 0.921875 -2.078125 1.234375 -2.71875 2.078125 -3.1875 Z M 2.078125 -3.1875 "
           id="path7454" />
      </symbol>
      <symbol
         overflow="visible"
         id="symbol6002">
        <path
           style="stroke:none;"
           d="M 2.875 -2.5 C 2.875 -3.265625 2.765625 -4.46875 2.21875 -5.609375 C 1.625 -6.828125 0.765625 -7.484375 0.671875 -7.484375 C 0.609375 -7.484375 0.5625 -7.4375 0.5625 -7.375 C 0.5625 -7.34375 0.5625 -7.328125 0.75 -7.140625 C 1.734375 -6.15625 2.296875 -4.578125 2.296875 -2.5 C 2.296875 -0.78125 1.9375 0.96875 0.703125 2.21875 C 0.5625 2.34375 0.5625 2.359375 0.5625 2.390625 C 0.5625 2.453125 0.609375 2.5 0.671875 2.5 C 0.765625 2.5 1.671875 1.8125 2.25 0.546875 C 2.765625 -0.546875 2.875 -1.65625 2.875 -2.5 Z M 2.875 -2.5 "
           id="path9131" />
      </symbol>
      <symbol
         overflow="visible"
         id="symbol6956">
        <path
           style="stroke:none;"
           d=""
           id="path1620" />
      </symbol>
      <symbol
         overflow="visible"
         id="symbol7448">
        <path
           style="stroke:none;"
           d="M 6.5625 -2.296875 C 6.734375 -2.296875 6.921875 -2.296875 6.921875 -2.5 C 6.921875 -2.6875 6.734375 -2.6875 6.5625 -2.6875 L 1.171875 -2.6875 C 1 -2.6875 0.828125 -2.6875 0.828125 -2.5 C 0.828125 -2.296875 1 -2.296875 1.171875 -2.296875 Z M 6.5625 -2.296875 "
           id="path9990" />
      </symbol>
      <symbol
         overflow="visible"
         id="symbol9517">
        <path
           style="stroke:none;"
           d=""
           id="path8591" />
      </symbol>
      <symbol
         overflow="visible"
         id="symbol3348">
        <path
           style="stroke:none;"
           d="M 2.03125 -0.015625 C 2.03125 -0.671875 1.78125 -1.0625 1.390625 -1.0625 C 1.0625 -1.0625 0.859375 -0.8125 0.859375 -0.53125 C 0.859375 -0.265625 1.0625 0 1.390625 0 C 1.5 0 1.640625 -0.046875 1.734375 -0.125 C 1.765625 -0.15625 1.78125 -0.15625 1.78125 -0.15625 C 1.796875 -0.15625 1.796875 -0.15625 1.796875 -0.015625 C 1.796875 0.734375 1.453125 1.328125 1.125 1.65625 C 1.015625 1.765625 1.015625 1.78125 1.015625 1.8125 C 1.015625 1.890625 1.0625 1.921875 1.109375 1.921875 C 1.21875 1.921875 2.03125 1.15625 2.03125 -0.015625 Z M 2.03125 -0.015625 "
           id="path3343" />
      </symbol>
    </g>
    <g
       id="g6240">
      <symbol
         overflow="visible"
         id="symbol9952">
        <path
           style="stroke:none;"
           d=""
           id="path4957" />
      </symbol>
      <symbol
         overflow="visible"
         id="symbol6351">
        <path
           style="stroke:none;"
           d="M 3.296875 2.390625 C 3.296875 2.359375 3.296875 2.34375 3.125 2.171875 C 1.890625 0.921875 1.5625 -0.96875 1.5625 -2.5 C 1.5625 -4.234375 1.9375 -5.96875 3.171875 -7.203125 C 3.296875 -7.328125 3.296875 -7.34375 3.296875 -7.375 C 3.296875 -7.453125 3.265625 -7.484375 3.203125 -7.484375 C 3.09375 -7.484375 2.203125 -6.796875 1.609375 -5.53125 C 1.109375 -4.4375 0.984375 -3.328125 0.984375 -2.5 C 0.984375 -1.71875 1.09375 -0.515625 1.640625 0.625 C 2.25 1.84375 3.09375 2.5 3.203125 2.5 C 3.265625 2.5 3.296875 2.46875 3.296875 2.390625 Z M 3.296875 2.390625 "
           id="path2371" />
      </symbol>
      <symbol
         overflow="visible"
         id="symbol9789">
        <path
           style="stroke:none;"
           d="M 2.890625 -3.515625 C 3.703125 -3.78125 4.28125 -4.46875 4.28125 -5.265625 C 4.28125 -6.078125 3.40625 -6.640625 2.453125 -6.640625 C 1.453125 -6.640625 0.6875 -6.046875 0.6875 -5.28125 C 0.6875 -4.953125 0.90625 -4.765625 1.203125 -4.765625 C 1.5 -4.765625 1.703125 -4.984375 1.703125 -5.28125 C 1.703125 -5.765625 1.234375 -5.765625 1.09375 -5.765625 C 1.390625 -6.265625 2.046875 -6.390625 2.40625 -6.390625 C 2.828125 -6.390625 3.375 -6.171875 3.375 -5.28125 C 3.375 -5.15625 3.34375 -4.578125 3.09375 -4.140625 C 2.796875 -3.65625 2.453125 -3.625 2.203125 -3.625 C 2.125 -3.609375 1.890625 -3.59375 1.8125 -3.59375 C 1.734375 -3.578125 1.671875 -3.5625 1.671875 -3.46875 C 1.671875 -3.359375 1.734375 -3.359375 1.90625 -3.359375 L 2.34375 -3.359375 C 3.15625 -3.359375 3.53125 -2.6875 3.53125 -1.703125 C 3.53125 -0.34375 2.84375 -0.0625 2.40625 -0.0625 C 1.96875 -0.0625 1.21875 -0.234375 0.875 -0.8125 C 1.21875 -0.765625 1.53125 -0.984375 1.53125 -1.359375 C 1.53125 -1.71875 1.265625 -1.921875 0.984375 -1.921875 C 0.734375 -1.921875 0.421875 -1.78125 0.421875 -1.34375 C 0.421875 -0.4375 1.34375 0.21875 2.4375 0.21875 C 3.65625 0.21875 4.5625 -0.6875 4.5625 -1.703125 C 4.5625 -2.515625 3.921875 -3.296875 2.890625 -3.515625 Z M 2.890625 -3.515625 "
           id="path9570" />
      </symbol>
      <symbol
         overflow="visible"
         id="symbol2954">
        <path
           style="stroke:none;"
           d="M 2.9375 -6.375 C 2.9375 -6.625 2.9375 -6.640625 2.703125 -6.640625 C 2.078125 -6 1.203125 -6 0.890625 -6 L 0.890625 -5.6875 C 1.09375 -5.6875 1.671875 -5.6875 2.1875 -5.953125 L 2.1875 -0.78125 C 2.1875 -0.421875 2.15625 -0.3125 1.265625 -0.3125 L 0.953125 -0.3125 L 0.953125 0 C 1.296875 -0.03125 2.15625 -0.03125 2.5625 -0.03125 C 2.953125 -0.03125 3.828125 -0.03125 4.171875 0 L 4.171875 -0.3125 L 3.859375 -0.3125 C 2.953125 -0.3125 2.9375 -0.421875 2.9375 -0.78125 Z M 2.9375 -6.375 "
           id="path1357" />
      </symbol>
      <symbol
         overflow="visible"
         id="symbol1681">
        <path
           style="stroke:none;"
           d="M 2.875 -2.5 C 2.875 -3.265625 2.765625 -4.46875 2.21875 -5.609375 C 1.625 -6.828125 0.765625 -7.484375 0.671875 -7.484375 C 0.609375 -7.484375 0.5625 -7.4375 0.5625 -7.375 C 0.5625 -7.34375 0.5625 -7.328125 0.75 -7.140625 C 1.734375 -6.15625 2.296875 -4.578125 2.296875 -2.5 C 2.296875 -0.78125 1.9375 0.96875 0.703125 2.21875 C 0.5625 2.34375 0.5625 2.359375 0.5625 2.390625 C 0.5625 2.453125 0.609375 2.5 0.671875 2.5 C 0.765625 2.5 1.671875 1.8125 2.25 0.546875 C 2.765625 -0.546875 2.875 -1.65625 2.875 -2.5 Z M 2.875 -2.5 "
           id="path4007" />
      </symbol>
      <symbol
         overflow="visible"
         id="symbol4381">
        <path
           style="stroke:none;"
           d=""
           id="path3970" />
      </symbol>
      <symbol
         overflow="visible"
         id="symbol1050">
        <path
           style="stroke:none;"
           d="M 6.5625 -2.296875 C 6.734375 -2.296875 6.921875 -2.296875 6.921875 -2.5 C 6.921875 -2.6875 6.734375 -2.6875 6.5625 -2.6875 L 1.171875 -2.6875 C 1 -2.6875 0.828125 -2.6875 0.828125 -2.5 C 0.828125 -2.296875 1 -2.296875 1.171875 -2.296875 Z M 6.5625 -2.296875 "
           id="path9533" />
      </symbol>
      <symbol
         overflow="visible"
         id="symbol7609">
        <path
           style="stroke:none;"
           d=""
           id="path9584" />
      </symbol>
      <symbol
         overflow="visible"
         id="symbol9571">
        <path
           style="stroke:none;"
           d="M 2.03125 -0.015625 C 2.03125 -0.671875 1.78125 -1.0625 1.390625 -1.0625 C 1.0625 -1.0625 0.859375 -0.8125 0.859375 -0.53125 C 0.859375 -0.265625 1.0625 0 1.390625 0 C 1.5 0 1.640625 -0.046875 1.734375 -0.125 C 1.765625 -0.15625 1.78125 -0.15625 1.78125 -0.15625 C 1.796875 -0.15625 1.796875 -0.15625 1.796875 -0.015625 C 1.796875 0.734375 1.453125 1.328125 1.125 1.65625 C 1.015625 1.765625 1.015625 1.78125 1.015625 1.8125 C 1.015625 1.890625 1.0625 1.921875 1.109375 1.921875 C 1.21875 1.921875 2.03125 1.15625 2.03125 -0.015625 Z M 2.03125 -0.015625 "
           id="path1724" />
      </symbol>
    </g>
  </defs>
  <g
     inkscape:label="Layer 1"
     inkscape:groupmode="layer"
     id="layer1">
    <rect
       style="fill:none;stroke:#000000;stroke-width:1.46692;stroke-linejoin:round;stroke-miterlimit:4;stroke-dasharray:none"
       id="rect5360"
       width="189.41435"
       height="175.94077"
       x="9.5458097"
       y="59.769054" />
    <g
       inkscape:label=""
       transform="matrix(1.3333203,0,0,1.6139216,-73.859059,-88.29136)"
       id="g5439">
      <g
         id="g7861">
        <g
           style="fill:#000000;fill-opacity:1"
           id="g5509">
          <use
             xlink:href="#symbol6762"
             x="91.925003"
             y="81.962997"
             id="use9367"
             width="100%"
             height="100%" />
        </g>
        <g
           style="fill:#000000;fill-opacity:1"
           id="g6647">
          <use
             xlink:href="#symbol8934"
             x="97.875"
             y="81.962997"
             id="use6043"
             width="100%"
             height="100%" />
        </g>
        <g
           style="fill:#000000;fill-opacity:1"
           id="g3620">
          <use
             xlink:href="#symbol8299"
             x="101.75"
             y="81.962997"
             id="use4007"
             width="100%"
             height="100%" />
        </g>
        <g
           style="fill:#000000;fill-opacity:1"
           id="g7571">
          <use
             xlink:href="#symbol9303"
             x="106.859"
             y="81.962997"
             id="use1839"
             width="100%"
             height="100%" />
        </g>
        <g
           style="fill:#000000;fill-opacity:1"
           id="g4845">
          <use
             xlink:href="#symbol6215"
             x="113.50306"
             y="81.962997"
             id="use5104"
             width="100%"
             height="100%" />
        </g>
        <g
           style="fill:#000000;fill-opacity:1"
           id="g3304">
          <use
             xlink:href="#symbol8934"
             x="124.02157"
             y="81.962997"
             id="use8532"
             width="100%"
             height="100%" />
        </g>
        <g
           style="fill:#000000;fill-opacity:1"
           id="g6588">
          <use
             xlink:href="#symbol8816"
             x="127.891"
             y="81.962997"
             id="use2237"
             width="100%"
             height="100%" />
        </g>
        <g
           style="fill:#000000;fill-opacity:1"
           id="g6161">
          <use
             xlink:href="#symbol3920"
             x="135.799"
             y="81.962997"
             id="use9130"
             width="100%"
             height="100%" />
        </g>
        <g
           style="fill:#000000;fill-opacity:1"
           id="g4815">
          <use
             xlink:href="#symbol5712"
             x="145.75961"
             y="81.962997"
             id="use9929"
             width="100%"
             height="100%" />
          <use
             xlink:href="#symbol9303"
             x="150.74091"
             y="81.962997"
             id="use2701"
             width="100%"
             height="100%" />
        </g>
        <g
           style="fill:#000000;fill-opacity:1"
           id="g4872">
          <use
             xlink:href="#symbol7226"
             x="154.617"
             y="78.348"
             id="use5176"
             width="100%"
             height="100%" />
        </g>
        <g
           style="fill:#000000;fill-opacity:1"
           id="g9687">
          <use
             xlink:href="#symbol3701"
             x="161.3"
             y="81.962997"
             id="use1866"
             width="100%"
             height="100%" />
        </g>
        <g
           style="fill:#000000;fill-opacity:1"
           id="g6170">
          <use
             xlink:href="#symbol2376"
             x="171.263"
             y="81.962997"
             id="use5917"
             width="100%"
             height="100%" />
        </g>
      </g>
    </g>
    <path
       style="fill:none;stroke:#0000ff;stroke-width:1.46692;stroke-linejoin:round;stroke-miterlimit:4;stroke-dasharray:none"
       d="m 9.545816,59.76899 c 0.2535578,0.942206 0.507128,1.876665 0.760661,2.815001 0.253596,0.938331 0.507194,1.857783 0.760791,2.792403 0.253464,0.934463 0.507062,1.838745 0.760658,2.769653 0.253599,0.93075 0.507064,1.819859 0.76066,2.746895 0.253597,0.926875 0.507196,1.800973 0.760662,2.724137 0.253596,0.923163 0.507192,1.782094 0.76079,2.701544 0.253599,0.919289 0.507063,1.763047 0.76066,2.678785 0.253596,0.91558 0.507193,1.744167 0.760659,2.656031 0.253598,0.911867 0.507196,1.725284 0.760792,2.633437 0.253464,0.907994 0.507064,1.706398 0.760661,2.610679 0.253597,0.90428 0.507194,1.687515 0.760657,2.587925 0.253597,0.900567 0.507196,1.66863 0.760793,2.565328 0.253465,0.896697 0.50706,1.649752 0.760662,2.542568 0.253596,0.892984 0.507061,1.630709 0.760659,2.51998 0.253597,0.889103 0.507195,1.611826 0.76079,2.497057 0.253464,0.885397 0.507063,1.592937 0.760659,2.474627 0.253596,0.88152 0.507064,1.5739 0.760659,2.45171 0.253599,0.87781 0.507197,1.55501 0.760662,2.42911 0.253598,0.87395 0.507193,1.53613 0.760792,2.40637 0.253599,0.87021 0.507061,1.51723 0.760659,2.38359 0.253598,0.86651 0.507194,1.49836 0.76066,2.361 0.253597,0.86265 0.507194,1.47948 0.760792,2.33825 0.253464,0.85894 0.507062,1.46061 0.760659,2.31566 0.253601,0.85504 0.507197,1.44155 0.76066,2.29289 0.253596,0.85119 0.507195,1.42252 0.760794,2.27015 0.253462,0.84748 0.507059,1.40362 0.760656,2.24739 0.253599,0.84376 0.507063,1.3849 0.760659,2.2248 0.253602,0.84003 0.507197,1.36584 0.760793,2.20201 0.253466,0.83617 0.507063,1.34699 0.76066,2.17945 0.253596,0.8323 0.507062,1.32794 0.760661,2.15668 0.253595,0.8286 0.507191,1.30905 0.760659,2.13393 0.253597,0.82488 0.507195,1.29015 0.760793,2.11117 0.253595,0.82117 0.507061,1.27127 0.760658,2.08858 0.253598,0.81727 0.507195,1.2524 0.760659,2.06582 0.253599,0.81356 0.507195,1.23351 0.760792,2.04321 0.253465,0.8097 0.507063,1.21446 0.760659,2.02047 0.253598,0.80583 0.507198,1.19559 0.760662,1.99772 0.253594,0.80212 0.507192,1.17671 0.760791,1.97513 0.253464,0.79823 0.507062,1.15766 0.76066,1.95219 0.253596,0.79471 0.507061,1.13892 0.760657,1.92977 0.253599,0.79067 0.507196,1.11989 0.760794,1.90684 0.253464,0.78711 0.507063,1.10101 0.760659,1.88425 0.253597,0.78325 0.507063,1.08213 0.760659,1.8615 0.253598,0.77951 0.507194,1.06326 0.76066,1.83891 0.253596,0.77564 0.507196,1.04421 0.760792,1.81614 0.253599,0.77178 0.507061,1.02532 0.760659,1.79338 0.2536,0.76807 0.507196,1.00646 0.760661,1.7708 0.253596,0.7642 0.507193,0.98758 0.760794,1.74804 0.253463,0.76048 0.507061,0.96852 0.760656,1.72529 0.2536,0.75679 0.507194,0.94962 0.760661,1.70267 0.253596,0.7529 0.507194,0.93076 0.760793,1.67993 0.253462,0.74905 0.50706,0.91171 0.760658,1.65719 0.253599,0.74531 0.507063,0.89298 0.76066,1.63459 0.253597,0.74142 0.507194,0.87395 0.760792,1.61164 0.253463,0.73789 0.507062,0.85521 0.760659,1.58924 0.253596,0.73401 0.507063,0.83617 0.760659,1.56631 0.253599,0.7303 0.507194,0.8173 0.76066,1.54371 0.253598,0.72658 0.507195,0.79842 0.760793,1.52112 0.253597,0.72255 0.50706,0.77938 0.760656,1.4987 0.253599,0.71819 0.507199,0.76013 0.760664,1.47509 0.253595,0.71501 0.507191,0.74245 0.760791,1.45255 0.253465,0.71176 0.507061,0.72305 0.760658,1.42994 0.253598,0.70849 0.507197,0.70365 0.760658,1.40894 0.2536,0.70367 0.507196,0.68431 0.760795,1.38477 0.253465,0.69882 0.507061,0.66493 0.760659,1.36214 0.253599,0.69559 0.507061,0.64558 0.76066,1.33794 0.253597,0.69238 0.507194,0.62944 0.760792,1.31695 0.253462,0.68914 0.507063,0.61007 0.760659,1.29436 0.253595,0.68432 0.50706,0.59071 0.76066,1.27176 0.253597,0.68111 0.507195,0.57135 0.76066,1.24758 0.253596,0.67784 0.507195,0.55359 0.760791,1.22656 0.253599,0.67302 0.507062,0.53424 0.760658,1.20239 0.253598,0.66979 0.507196,0.51485 0.760662,1.18139 0.253595,0.66655 0.507195,0.49549 0.760791,1.15718 0.253466,0.66334 0.507062,0.47771 0.760662,1.1362 0.253597,0.6585 0.507191,0.45675 0.760657,1.11199 0.253597,0.65365 0.507196,0.439 0.760793,1.08941 0.253463,0.6504 0.507061,0.41962 0.760659,1.0668 0.253599,0.64718 0.507065,0.40186 0.76066,1.04418 0.253598,0.64399 0.507194,0.38253 0.760791,1.02162 0.253464,0.63913 0.507063,0.36316 0.760659,0.99902 0.253599,0.63592 0.507063,0.34377 0.760659,0.97645 0.253599,0.63101 0.507196,0.326 0.760662,0.95381 0.253599,0.62782 0.507193,0.30666 0.760792,0.92964 0.253598,0.62456 0.507062,0.28889 0.760658,0.90862 0.253597,0.62136 0.507195,0.26793 0.76066,0.88604 0.253597,0.61652 0.507195,0.24853 0.760792,0.86184 0.253466,0.61327 0.507062,0.2308 0.760662,0.84085 0.253597,0.60843 0.507194,0.21143 0.760657,0.81665 0.253597,0.60522 0.507195,0.19367 0.760792,0.79405 0.253465,0.602 0.507062,0.17429 0.76066,0.77305 0.253596,0.59715 0.50706,0.1549 0.760659,0.74887 0.253599,0.59394 0.507196,0.13559 0.760793,0.72625 0.253464,0.59073 0.507061,0.11787 0.760658,0.70369 0.253599,0.58586 0.507062,0.0985 0.76066,0.68107 0.253597,0.58261 0.507196,0.079 0.760661,0.65848 0.253595,0.57776 0.507194,0.0598 0.760791,0.63587 0.253599,0.57458 0.507063,0.0406 0.76066,0.6117 0.253596,0.57133 0.507195,0.0225 0.760659,0.59067 0.253598,0.56811 0.507195,0.004 0.760794,0.56811 0.253463,0.56326 0.507059,-0.0162 0.760657,0.54391 0.2536,0.56003 0.507195,-0.034 0.760659,0.52289 0.2536,0.55682 0.507198,-0.0533 0.760793,0.49872 0.253465,0.55357 0.507063,-0.0711 0.760661,0.47772 0.253596,0.54872 0.50706,-0.0918 0.760658,0.45351 0.253597,0.54551 0.507194,-0.10974 0.760794,0.43091 0.253462,0.54228 0.50706,-0.1275 0.760659,0.40992 0.253596,0.53584 0.507064,-0.14849 0.760659,0.38574 0.253597,0.53262 0.507192,-0.16783 0.760655,0.36313 0.253601,0.52936 0.507201,-0.18559 0.76079,0.34054 0.253602,0.52616 0.507066,-0.20496 0.760667,0.31794 0.2536,0.52129 0.50719,-0.22434 0.760656,0.29375 0.253601,0.51966 0.5072,-0.24212 0.760801,0.27275 0.253455,0.51485 0.507055,-0.25985 0.760655,0.25015 0.253591,0.51 0.50719,-0.27921 0.760655,0.22755 0.253601,0.5068 0.507202,-0.3002 0.760792,0.20337 0.253466,0.50355 0.507065,-0.31794 0.76066,0.18237 0.253593,0.49869 0.507069,-0.3373 0.760672,0.15816 0.253594,0.49548 0.507187,-0.35506 0.760788,0.13714 0.25345,0.49065 0.50704,-0.37441 0.76065,0.11311 0.25359,0.48738 0.50706,-0.39382 0.76067,0.0904 0.2536,0.4842 0.50718,-0.41155 0.76064,0.0676 0.2536,0.48099 0.5072,-0.43086 0.7608,0.0468 0.25361,0.47609 0.50706,-0.4503 0.76065,0.0225 0.2536,0.4729 0.5072,-0.46962 0.76068,0 0.25359,0.46806 0.50718,-0.48901 0.76079,-0.0225 0.25346,0.46478 0.50705,-0.50839 0.76066,-0.0468 0.25359,0.46159 0.50719,-0.52449 0.76065,-0.0676 0.25361,0.45839 0.50719,-0.54389 0.76078,-0.0904 0.25349,0.45351 0.50708,-0.56329 0.76068,-0.11311 0.25358,0.45027 0.50707,-0.58262 0.76064,-0.13714 0.2536,0.44706 0.50721,-0.60036 0.76081,-0.15816 0.25346,0.4422 0.50706,-0.62134 0.76065,-0.18237 0.25361,0.439 0.50706,-0.6391 0.76068,-0.20337 0.25359,0.43416 0.5072,-0.65847 0.76064,-0.22755 0.25362,0.43092 0.50721,-0.67783 0.7608,-0.25015 0.25358,0.42769 0.50706,-0.69562 0.76065,-0.27275 0.2536,0.42445 0.50721,-0.71496 0.76066,-0.29375 0.25362,0.41962 0.50722,-0.73431 0.76081,-0.31794 0.25345,0.41639 0.50704,-0.75371 0.76065,-0.34054 0.2536,0.41155 0.50721,-0.77306 0.76065,-0.36313 0.2536,0.40832 0.50721,-0.79081 0.76079,-0.38574 0.2535,0.40351 0.50708,-0.81018 0.76066,-0.40992 0.25361,0.40188 0.50707,-0.82793 0.76066,-0.43091 0.2536,0.39703 0.5072,-0.8473 0.7608,-0.45351 0.25344,0.39379 0.50707,-0.8667 0.76065,-0.47772 0.25362,0.39054 0.50707,-0.88442 0.76069,-0.49872 0.25359,0.38573 0.50719,-0.90376 0.76066,-0.52289 0.25358,0.3825 0.50718,-0.92318 0.76077,-0.54391 0.25362,0.37769 0.50707,-0.94252 0.76066,-0.56811 0.2536,0.37446 0.5072,-0.96027 0.76066,-0.59067 0.2536,0.37118 0.5072,-0.97967 0.7608,-0.6117 0.25345,0.36638 0.50705,-0.999 0.76065,-0.63587 0.2536,0.36313 0.50718,-1.01838 0.76068,-0.65848 0.25357,0.35993 0.50716,-1.03614 0.76077,-0.68107 0.25345,0.35508 0.50706,-1.0555 0.76066,-0.70369 0.25361,0.35184 0.50705,-1.07487 0.76068,-0.72625 0.25358,0.34699 0.50717,-1.09425 0.76078,-0.74887 0.25346,0.34379 0.50705,-1.11359 0.7612,-0.77305 0.25334,0.34052 0.50664,-1.13137 0.75998,-0.79405 0.25334,0.33731 0.50666,-1.15074 0.76133,-0.81665 0.25332,0.33247 0.50664,-1.17008 0.75999,-0.84085 0.25333,0.32924 0.50798,-1.18786 0.76133,-0.86184 0.25333,0.32439 0.50666,-1.20721 0.75998,-0.88604 0.25335,0.32116 0.508,-1.22659 0.76133,-0.90862 0.25332,0.31792 0.50668,-1.24437 0.76,-0.92964 0.25331,0.3131 0.50799,-1.2637 0.76131,-0.95381 0.25335,0.30985 0.50667,-1.28308 0.76001,-0.97645 0.25466,0.30666 0.50799,-1.3008 0.76132,-0.99902 0.25333,0.30343 0.50667,-1.32016 0.75999,-1.02162 0.25467,0.29859 0.508,-1.33955 0.76132,-1.04418 0.25334,0.29535 0.50667,-1.35732 0.76001,-1.0668 0.25465,0.29211 0.508,-1.37669 0.76132,-1.08941 0.25334,0.28728 0.50665,-1.39601 0.76131,-1.11199 0.25335,0.28246 0.50668,-1.41539 0.75999,-1.1362 0.25335,0.28083 0.50668,-1.43316 0.76134,-1.15718 0.25332,0.27598 0.50667,-1.45254 0.75999,-1.18139 0.25333,0.27276 0.50667,-1.47027 0.76132,-1.20239 0.25334,0.26794 0.50668,-1.49125 0.76003,-1.22656 0.2533,0.2663 0.50797,-1.50902 0.7613,-1.24758 0.25333,0.26146 0.50666,-1.52836 0.75998,-1.27176 0.25335,0.25664 0.50798,-1.54772 0.76133,-1.29436 0.25335,0.25339 0.50664,-1.56548 0.76001,-1.31695 0.25333,0.25014 0.50799,-1.58488 0.76133,-1.33794 0.25333,0.24531 0.50663,-1.60425 0.75997,-1.36214 0.25469,0.24207 0.508,-1.62363 0.76133,-1.38477 0.25334,0.23725 0.50666,-1.64295 0.76001,-1.40894 0.25466,0.23565 0.50797,-1.66073 0.76131,-1.42994 0.25333,0.2308 0.50667,-1.68008 0.76133,-1.45255 0.25333,0.22758 0.50668,-1.6988 0.75999,-1.47509 0.25331,0.22272 0.50668,-1.7182 0.76135,-1.4987 0.2533,0.21934 0.50666,-1.73674 0.75996,-1.52112 0.25336,0.21577 0.50668,-1.75544 0.76133,-1.54371 0.25334,0.21189 0.50669,-1.7745 0.76001,-1.56631 0.25331,0.20802 0.50797,-1.79338 0.76132,-1.58924 0.25333,0.20434 0.50666,-1.81226 0.76001,-1.61164 0.25331,0.20044 0.50795,-1.83134 0.76131,-1.63459 0.25332,0.19674 0.50666,-1.8502 0.75998,-1.65719 0.25335,0.19289 0.50801,-1.86922 0.76135,-1.67993 0.25332,0.18916 0.50664,-1.88812 0.75998,-1.70267 0.25466,0.18543 0.50799,-1.90702 0.76132,-1.72529 0.25332,0.18155 0.50667,-1.9259 0.76,-1.74804 0.25465,0.17786 0.50798,-1.94478 0.76131,-1.7708 0.25334,0.17415 0.50667,-1.96364 0.75998,-1.79338 0.25468,0.17027 0.50804,-1.9827 0.76134,-1.81614 0.25334,0.16654 0.50666,-2.00159 0.76134,-1.83891 0.25333,0.16285 0.50665,-2.0203 0.75998,-1.8615 0.25335,0.15897 0.50666,-2.03935 0.76133,-1.88425 0.25334,0.15509 0.50666,-2.05823 0.76,-1.90684 0.25334,0.15122 0.50666,-2.07729 0.76133,-1.92977 0.25332,0.14766 0.50665,-2.09601 0.75997,-1.95219 0.25333,0.14362 0.50802,-2.11505 0.76133,-1.97513 0.25335,0.13994 0.50669,-2.13395 0.76001,-1.99772 0.25333,0.13623 0.50798,-2.15296 0.76133,-2.02047 0.2533,0.13236 0.50666,-2.17184 0.75997,-2.04321 0.25334,0.12861 0.50801,-2.19059 0.76132,-2.06582 0.25334,0.12492 0.50668,-2.20963 0.76,-2.08858 0.25468,0.1212 0.50802,-2.2285 0.76135,-2.11117 0.25331,0.11732 0.50665,-2.24755 0.75998,-2.13393 0.25466,0.11347 0.50797,-2.26644 0.76135,-2.15668 0.25331,0.10975 0.50661,-2.28531 0.75997,-2.17945 0.25467,0.10604 0.50798,-2.3042 0.76133,-2.20201 0.25332,0.1022 0.50667,-2.3231 0.76133,-2.2248 0.25332,0.0986 0.50664,-2.34197 0.75999,-2.24739 0.25333,0.0946 0.50664,-2.36102 0.76132,-2.27015 0.25334,0.0907 0.50667,-2.37988 0.75999,-2.29289 0.25332,0.087 0.50666,-2.39877 0.7613,-2.31566 0.25335,0.0832 0.5067,-2.41766 0.76001,-2.33825 0.25334,0.0795 0.50798,-2.4367 0.76133,-2.361 0.25333,0.0757 0.50668,-2.45559 0.75998,-2.38359 0.25333,0.0718 0.50803,-2.47448 0.76134,-2.40637 0.25332,0.0681 0.50665,-2.4935 0.75999,-2.42911 0.25467,0.0645 0.508,-2.51239 0.76132,-2.45171 0.25337,0.0606 0.50669,-2.531278 0.76002,-2.474627 0.25464,0.05685 0.50797,-2.550154 0.76132,-2.497057 0.25331,0.05295 0.50666,-2.569205 0.75998,-2.51998 0.25466,0.04924 0.50801,-2.587921 0.76133,-2.542568 0.25332,0.04535 0.50667,-2.606809 0.76132,-2.565328 0.25334,0.04165 0.50667,-2.625693 0.76,-2.587925 0.25334,0.03778 0.50664,-2.644733 0.76131,-2.610679 0.25336,0.03406 0.50669,-2.663614 0.76001,-2.633437 0.25334,0.03034 0.50666,-2.6825 0.76131,-2.656031 0.25333,0.02648 0.50667,-2.701541 0.76002,-2.678785 0.25332,0.02259 0.50797,-2.720427 0.7613,-2.701544 0.25336,0.01888 0.50666,-2.739308 0.75999,-2.724137 0.25334,0.01508 0.50802,-2.758355 0.76136,-2.746895 0.2533,0.01139 0.50664,-2.777237 0.75998,-2.769653 0.25333,0.0072 0.50798,-2.796116 0.76132,-2.792403 0.25332,0.0038 0.50665,-2.815001 0.75999,-2.815001"
       title="(x+3)**2-1"
       id="path8349" />
    <path
       style="opacity:1;fill:#ff0000;stroke:#ff0000;stroke-width:3.77953;stroke-linejoin:round;stroke-miterlimit:4;stroke-dasharray:none;stroke-dashoffset:0"
       id="path8476"
       sodipodi:type="arc"
       sodipodi:cx="198.95972"
       sodipodi:cy="59.76899"
       sodipodi:rx="4.6852837"
       sodipodi:ry="6.0049233"
       sodipodi:start="0"
       sodipodi:end="6.1044287"
       sodipodi:arc-type="slice"
       d="m 203.645,59.76899 a 4.6852837,6.0049233 0 0 1 -4.47597,5.998928 4.6852837,6.0049233 0 0 1 -4.8759,-5.462933 4.6852837,6.0049233 0 0 1 4.04032,-6.487033 4.6852837,6.0049233 0 0 1 5.23689,4.883325 l -4.61062,1.067713 z" />
    <path
       style="opacity:1;fill:#ff0000;stroke:#ff0000;stroke-width:3.77953;stroke-linejoin:round;stroke-miterlimit:4;stroke-dasharray:none;stroke-dashoffset:0"
       id="path8476-2"
       sodipodi:type="arc"
       sodipodi:cx="9.5458097"
       sodipodi:cy="59.769054"
       sodipodi:rx="4.6852837"
       sodipodi:ry="6.0049233"
       sodipodi:start="0"
       sodipodi:end="6.1044287"
       sodipodi:arc-type="slice"
       d="M 14.231093,59.769054 A 4.6852837,6.0049233 0 0 1 9.7551214,65.767982 4.6852837,6.0049233 0 0 1 4.8792278,60.30505 4.6852837,6.0049233 0 0 1 8.9195457,53.818017 4.6852837,6.0049233 0 0 1 14.156436,58.701342 l -4.6106263,1.067712 z" />
    <path
       style="opacity:1;fill:#ff0000;stroke:#ff0000;stroke-width:3.77953;stroke-linejoin:round;stroke-miterlimit:4;stroke-dasharray:none;stroke-dashoffset:0"
       id="path8476-4"
       sodipodi:type="arc"
       sodipodi:cx="105.27262"
       sodipodi:cy="235.21765"
       sodipodi:rx="3.5167475"
       sodipodi:ry="4.1822658"
       sodipodi:start="0"
       sodipodi:end="6.1044287"
       sodipodi:arc-type="slice"
       d="m 108.78937,235.21765 a 3.5167475,4.1822658 0 0 1 -3.35964,4.17809 3.5167475,4.1822658 0 0 1 -3.65982,-3.80478 3.5167475,4.1822658 0 0 1 3.03264,-4.51804 3.5167475,4.1822658 0 0 1 3.93078,3.4011 l -3.46071,0.74363 z" />
    <g
       inkscape:label=""
       transform="matrix(1.3333203,0,0,1.6139216,38.159275,-55.084657)"
       id="g9008">
      <g
         id="g1774">
        <g
           style="fill:#000000;fill-opacity:1"
           id="g7796">
          <use
             xlink:href="#symbol4523"
             x="91.925003"
             y="81.962997"
             id="use7798"
             width="100%"
             height="100%" />
          <use
             xlink:href="#symbol9470"
             x="95.799454"
             y="81.962997"
             id="use9344"
             width="100%"
             height="100%" />
        </g>
        <g
           style="fill:#000000;fill-opacity:1"
           id="g5210">
          <use
             xlink:href="#symbol9184"
             x="100.781"
             y="81.962997"
             id="use914"
             width="100%"
             height="100%" />
        </g>
        <g
           style="fill:#000000;fill-opacity:1"
           id="g8660">
          <use
             xlink:href="#symbol1567"
             x="105.209"
             y="81.962997"
             id="use2689"
             width="100%"
             height="100%" />
          <use
             xlink:href="#symbol8725"
             x="110.1903"
             y="81.962997"
             id="use7623"
             width="100%"
             height="100%" />
        </g>
      </g>
    </g>
    <g
       inkscape:label=""
       transform="matrix(1.3333203,0,0,1.6139216,-105.70654,-56.419046)"
       id="g9312">
      <g
         id="g7464">
        <g
           style="fill:#000000;fill-opacity:1"
           id="g8870">
          <use
             xlink:href="#symbol8937"
             x="91.925003"
             y="81.962997"
             id="use329"
             width="100%"
             height="100%" />
        </g>
        <g
           style="fill:#000000;fill-opacity:1"
           id="g2600">
          <use
             xlink:href="#symbol7448"
             x="95.800003"
             y="81.962997"
             id="use6909"
             width="100%"
             height="100%" />
        </g>
        <g
           style="fill:#000000;fill-opacity:1"
           id="g5962">
          <use
             xlink:href="#symbol2876"
             x="103.548"
             y="81.962997"
             id="use4994"
             width="100%"
             height="100%" />
        </g>
        <g
           style="fill:#000000;fill-opacity:1"
           id="g8281">
          <use
             xlink:href="#symbol3348"
             x="108.53"
             y="81.962997"
             id="use7126"
             width="100%"
             height="100%" />
        </g>
        <g
           style="fill:#000000;fill-opacity:1"
           id="g9796">
          <use
             xlink:href="#symbol8238"
             x="112.958"
             y="81.962997"
             id="use7388"
             width="100%"
             height="100%" />
          <use
             xlink:href="#symbol6002"
             x="117.9393"
             y="81.962997"
             id="use4475"
             width="100%"
             height="100%" />
        </g>
      </g>
    </g>
    <g
       inkscape:label=""
       transform="matrix(1.3333203,0,0,1.6139216,-42.592975,128.71406)"
       id="g9689">
      <g
         id="g9095">
        <g
           style="fill:#000000;fill-opacity:1"
           id="g5349">
          <use
             xlink:href="#symbol6351"
             x="91.925003"
             y="81.962997"
             id="use3469"
             width="100%"
             height="100%" />
        </g>
        <g
           style="fill:#000000;fill-opacity:1"
           id="g1583">
          <use
             xlink:href="#symbol1050"
             x="95.800003"
             y="81.962997"
             id="use5737"
             width="100%"
             height="100%" />
        </g>
        <g
           style="fill:#000000;fill-opacity:1"
           id="g446">
          <use
             xlink:href="#symbol9789"
             x="103.548"
             y="81.962997"
             id="use9997"
             width="100%"
             height="100%" />
        </g>
        <g
           style="fill:#000000;fill-opacity:1"
           id="g288">
          <use
             xlink:href="#symbol9571"
             x="108.53"
             y="81.962997"
             id="use8027"
             width="100%"
             height="100%" />
        </g>
        <g
           style="fill:#000000;fill-opacity:1"
           id="g6733">
          <use
             xlink:href="#symbol1050"
             x="112.958"
             y="81.962997"
             id="use2876"
             width="100%"
             height="100%" />
        </g>
        <g
           style="fill:#000000;fill-opacity:1"
           id="g300">
          <use
             xlink:href="#symbol2954"
             x="120.706"
             y="81.962997"
             id="use4655"
             width="100%"
             height="100%" />
          <use
             xlink:href="#symbol1681"
             x="125.6873"
             y="81.962997"
             id="use3400"
             width="100%"
             height="100%" />
        </g>
      </g>
    </g>
    <path
       style="fill:#ff0000;stroke:#ff0000;stroke-width:2.00000006;stroke-linecap:butt;stroke-linejoin:miter;stroke-opacity:1;stroke-miterlimit:4;stroke-dasharray:6.00000017,2.00000006;stroke-dashoffset:0"
       d="M 105.27262,235.21765 C 104.87111,176.88508 104.46959,118.55226 104.06807,60.219166"
       id="path1044"
       inkscape:path-effect="#path-effect1046"
       inkscape:original-d="M 105.27262,235.21765 C 104.87137,176.88508 104.46985,118.55226 104.06807,60.219166" />
    <text
       xml:space="preserve"
       style="font-size:10.8471px;line-height:1.25;font-family:sans-serif;stroke-width:0.542354"
       x="-184.17407"
       y="96.493736"
       id="text2296"
       transform="matrix(-9.3654629e-4,-1.046549,0.95552051,-0.00102576,0,0)"><tspan
         sodipodi:role="line"
         id="tspan2294"
         style="stroke-width:0.542354"
         x="-184.17407"
         y="96.493736">Line of Symmetry</tspan></text>
  </g>
  <metadata
     id="metadata9745">
    <rdf:RDF>
      <cc:Work
         rdf:about="">
        <dc:title>parabola</dc:title>
      </cc:Work>
    </rdf:RDF>
  </metadata>
</svg>
