<?xml version="1.0" encoding="UTF-8" standalone="no"?>
<!-- Created with Inkscape (http://www.inkscape.org/) -->

<svg
   width="240mm"
   height="120mm"
   viewBox="0 0 240 120"
   version="1.1"
   id="svg8"
   inkscape:version="1.1.2 (0a00cf5339, 2022-02-04, custom)"
   sodipodi:docname="circle-to-triangle.svg"
   xmlns:inkscape="http://www.inkscape.org/namespaces/inkscape"
   xmlns:sodipodi="http://sodipodi.sourceforge.net/DTD/sodipodi-0.dtd"
   xmlns="http://www.w3.org/2000/svg"
   xmlns:svg="http://www.w3.org/2000/svg"
   xmlns:rdf="http://www.w3.org/1999/02/22-rdf-syntax-ns#"
   xmlns:cc="http://creativecommons.org/ns#"
   xmlns:dc="http://purl.org/dc/elements/1.1/">
  <defs
     id="defs2">
    <marker
       style="overflow:visible"
       id="marker1538"
       refX="0"
       refY="0"
       orient="auto"
       inkscape:stockid="Arrow1Mstart"
       inkscape:isstock="true">
      <path
         transform="matrix(0.4,0,0,0.4,4,0)"
         style="fill:context-stroke;fill-rule:evenodd;stroke:context-stroke;stroke-width:1pt"
         d="M 0,0 5,-5 -12.5,0 5,5 Z"
         id="path1536" />
    </marker>
    <marker
       style="overflow:visible"
       id="Arrow1Mend"
       refX="0"
       refY="0"
       orient="auto"
       inkscape:stockid="Arrow1Mend"
       inkscape:isstock="true">
      <path
         transform="matrix(-0.4,0,0,-0.4,-4,0)"
         style="fill:context-stroke;fill-rule:evenodd;stroke:context-stroke;stroke-width:1pt"
         d="M 0,0 5,-5 -12.5,0 5,5 Z"
         id="path1181" />
    </marker>
    <marker
       style="overflow:visible"
       id="Arrow1Mstart"
       refX="0"
       refY="0"
       orient="auto"
       inkscape:stockid="Arrow1Mstart"
       inkscape:isstock="true">
      <path
         transform="matrix(0.4,0,0,0.4,4,0)"
         style="fill:context-stroke;fill-rule:evenodd;stroke:context-stroke;stroke-width:1pt"
         d="M 0,0 5,-5 -12.5,0 5,5 Z"
         id="path1178" />
    </marker>
    <marker
       style="overflow:visible"
       id="marker3322"
       refX="0"
       refY="0"
       orient="auto"
       inkscape:stockid="Arrow1Mstart"
       inkscape:isstock="true">
      <path
         transform="matrix(0.4,0,0,0.4,4,0)"
         style="fill:context-stroke;fill-rule:evenodd;stroke:context-stroke;stroke-width:1pt"
         d="M 0,0 5,-5 -12.5,0 5,5 Z"
         id="path3320" />
    </marker>
    <marker
       style="overflow:visible"
       id="marker3326"
       refX="0"
       refY="0"
       orient="auto"
       inkscape:stockid="Arrow1Mend"
       inkscape:isstock="true">
      <path
         transform="matrix(-0.4,0,0,-0.4,-4,0)"
         style="fill:context-stroke;fill-rule:evenodd;stroke:context-stroke;stroke-width:1pt"
         d="M 0,0 5,-5 -12.5,0 5,5 Z"
         id="path3324" />
    </marker>
    <marker
       id="marker-arrow-1.5923999999999998"
       orient="auto-start-reverse"
       refY="0"
       refX="0"
       markerHeight="1.690"
       markerWidth="0.911">
      <g
         transform="scale(1.0733986435568954)"
         id="g3868">
        <path
           d="M -1.55415,2.0722 C -1.42464,1.29512 0,0.1295 0.38852,0 0,-0.1295 -1.42464,-1.29512 -1.55415,-2.0722"
           style="fill:none;stroke:#000000;stroke-width:0.6;stroke-linecap:round;stroke-linejoin:round;stroke-miterlimit:10;stroke-dasharray:none;stroke-opacity:1"
           inkscape:connector-curvature="0"
           id="path3866" />
      </g>
    </marker>
    <marker
       id="marker-arrow-1.5923999999999998-2"
       orient="auto-start-reverse"
       refY="0"
       refX="0"
       markerHeight="1.690"
       markerWidth="0.911">
      <g
         transform="scale(1.0733986435568954)"
         id="g3899">
        <path
           d="M -1.55415,2.0722 C -1.42464,1.29512 0,0.1295 0.38852,0 0,-0.1295 -1.42464,-1.29512 -1.55415,-2.0722"
           style="fill:none;stroke:#000000;stroke-width:0.6;stroke-linecap:round;stroke-linejoin:round;stroke-miterlimit:10;stroke-dasharray:none;stroke-opacity:1"
           inkscape:connector-curvature="0"
           id="path3897" />
      </g>
    </marker>
    <marker
       id="marker-arrow-1.5923999999999998-5"
       orient="auto-start-reverse"
       refY="0"
       refX="0"
       markerHeight="1.690"
       markerWidth="0.911">
      <g
         transform="scale(1.0733986435568954)"
         id="g4364">
        <path
           d="M -1.55415,2.0722 C -1.42464,1.29512 0,0.1295 0.38852,0 0,-0.1295 -1.42464,-1.29512 -1.55415,-2.0722"
           style="fill:none;stroke:#000000;stroke-width:0.6;stroke-linecap:round;stroke-linejoin:round;stroke-miterlimit:10;stroke-dasharray:none;stroke-opacity:1"
           inkscape:connector-curvature="0"
           id="path4362" />
      </g>
    </marker>
    <marker
       id="marker-arrow-1.5923999999999998-4"
       orient="auto-start-reverse"
       refY="0"
       refX="0"
       markerHeight="1.690"
       markerWidth="0.911">
      <g
         transform="scale(1.0733986435568954)"
         id="g4428">
        <path
           d="M -1.55415,2.0722 C -1.42464,1.29512 0,0.1295 0.38852,0 0,-0.1295 -1.42464,-1.29512 -1.55415,-2.0722"
           style="fill:none;stroke:#000000;stroke-width:0.6;stroke-linecap:round;stroke-linejoin:round;stroke-miterlimit:10;stroke-dasharray:none;stroke-opacity:1"
           inkscape:connector-curvature="0"
           id="path4426" />
      </g>
    </marker>
    <marker
       id="marker-arrow-0.5308"
       orient="auto-start-reverse"
       refY="0"
       refX="0"
       markerHeight="1.690"
       markerWidth="0.911">
      <g
         transform="scale(2.153529264004019)"
         id="g10932">
        <path
           d="M -1.55415,2.0722 C -1.42464,1.29512 0,0.1295 0.38852,0 0,-0.1295 -1.42464,-1.29512 -1.55415,-2.0722"
           style="fill:none;stroke:#000000;stroke-width:0.6;stroke-linecap:round;stroke-linejoin:round;stroke-miterlimit:10;stroke-dasharray:none;stroke-opacity:1"
           inkscape:connector-curvature="0"
           id="path10930" />
      </g>
    </marker>
    <marker
       id="marker-arrow-0.5308-8"
       orient="auto-start-reverse"
       refY="0"
       refX="0"
       markerHeight="1.690"
       markerWidth="0.911">
      <g
         transform="scale(2.153529264004019)"
         id="g10972">
        <path
           d="M -1.55415,2.0722 C -1.42464,1.29512 0,0.1295 0.38852,0 0,-0.1295 -1.42464,-1.29512 -1.55415,-2.0722"
           style="fill:none;stroke:#000000;stroke-width:0.6;stroke-linecap:round;stroke-linejoin:round;stroke-miterlimit:10;stroke-dasharray:none;stroke-opacity:1"
           inkscape:connector-curvature="0"
           id="path10970" />
      </g>
    </marker>
    <marker
       id="marker-arrow-1.5923999999999998-9"
       orient="auto-start-reverse"
       refY="0"
       refX="0"
       markerHeight="1.690"
       markerWidth="0.911">
      <g
         transform="scale(1.0733986435568954)"
         id="g11012">
        <path
           d="M -1.55415,2.0722 C -1.42464,1.29512 0,0.1295 0.38852,0 0,-0.1295 -1.42464,-1.29512 -1.55415,-2.0722"
           style="fill:none;stroke:#000000;stroke-width:0.6;stroke-linecap:round;stroke-linejoin:round;stroke-miterlimit:10;stroke-dasharray:none;stroke-opacity:1"
           inkscape:connector-curvature="0"
           id="path11010" />
      </g>
    </marker>
  </defs>
  <sodipodi:namedview
     id="base"
     pagecolor="#ffffff"
     bordercolor="#666666"
     borderopacity="1.0"
     inkscape:pageopacity="0.0"
     inkscape:pageshadow="2"
     inkscape:zoom="0.99437388"
     inkscape:cx="354.49443"
     inkscape:cy="201.13159"
     inkscape:document-units="mm"
     inkscape:current-layer="layer1"
     showgrid="false"
     showborder="true"
     width="200mm"
     showguides="true"
     inkscape:guide-bbox="true"
     inkscape:window-width="1594"
     inkscape:window-height="876"
     inkscape:window-x="0"
     inkscape:window-y="18"
     inkscape:window-maximized="0"
     inkscape:pagecheckerboard="1"
     inkscape:snap-global="false">
    <inkscape:grid
       type="xygrid"
       id="grid815"
       units="mm"
       spacingx="10"
       spacingy="10"
       empspacing="4"
       dotted="false" />
  </sodipodi:namedview>
  <metadata
     id="metadata5">
    <rdf:RDF>
      <cc:Work
         rdf:about="">
        <dc:format>image/svg+xml</dc:format>
        <dc:type
           rdf:resource="http://purl.org/dc/dcmitype/StillImage" />
      </cc:Work>
    </rdf:RDF>
  </metadata>
  <g
     inkscape:label="Layer 1"
     inkscape:groupmode="layer"
     id="layer1"
     transform="translate(0,-177)">
    <ellipse
       style="fill:#e6e5f3;stroke-width:0.10836"
       id="path191"
       cx="35.160831"
       cy="214.35249"
       rx="20.466845"
       ry="21.688566" />
    <path
       style="fill:white;stroke:black;stroke-width:0.4213225;stroke-linecap:butt;stroke-linejoin:miter;stroke-miterlimit:4;stroke-dasharray:none;stroke-opacity:1;marker-start:url(#marker-arrow-1.5923999999999998);marker-mid:url(#Arrow1Mstart);marker-end:url(#marker-arrow-1.5923999999999998)"
       d="m 35.15835,186.72575 -0.0026,55.38793"
       id="path256" />
    <path
       style="fill:#ffffff;stroke:#000000;stroke-width:0.313943;stroke-linecap:butt;stroke-linejoin:bevel;stroke-miterlimit:4;stroke-dasharray:none;stroke-opacity:1;marker-start:url(#marker-arrow-1.5923999999999998);marker-end:url(#marker-arrow-1.5923999999999998)"
       d="m 9.7969755,213.63826 51.6072635,-0.0534"
       id="path1587" />
    <g
       inkscape:label=""
       transform="matrix(0.37099226,0,0,0.40117431,0.37305278,151.13377)"
       id="g1725">
      <g
         fill="#000000"
         fill-opacity="1"
         id="g7984">
        <g
           id="use8182"
           transform="translate(91.925003,81.962997)">
          <path
             d="m 4.84375,-3.796875 c 0.046875,-0.140625 0.046875,-0.15625 0.046875,-0.234375 0,-0.171875 -0.140625,-0.265625 -0.296875,-0.265625 -0.09375,0 -0.25,0.0625 -0.34375,0.203125 -0.015625,0.0625 -0.109375,0.359375 -0.140625,0.546875 -0.078125,0.25 -0.140625,0.53125 -0.203125,0.796875 l -0.453125,1.796875 c -0.03125,0.140625 -0.46875,0.84375 -1.125,0.84375 -0.5,0 -0.609375,-0.4375 -0.609375,-0.8125 C 1.71875,-1.375 1.890625,-2 2.21875,-2.875 2.375,-3.28125 2.421875,-3.390625 2.421875,-3.59375 c 0,-0.4375 -0.3125,-0.8125 -0.8125,-0.8125 -0.953125,0 -1.3125,1.453125 -1.3125,1.53125 0,0.109375 0.09375,0.109375 0.109375,0.109375 0.109375,0 0.109375,-0.03125 0.15625,-0.1875 0.28125,-0.9375 0.671875,-1.234375 1.015625,-1.234375 0.078125,0 0.25,0 0.25,0.3125 0,0.25 -0.109375,0.515625 -0.171875,0.703125 -0.40625,1.0625 -0.578125,1.625 -0.578125,2.09375 0,0.890625 0.625,1.1875 1.21875,1.1875 0.390625,0 0.71875,-0.171875 1,-0.453125 -0.125,0.515625 -0.25,1.015625 -0.640625,1.546875 -0.265625,0.328125 -0.640625,0.625 -1.09375,0.625 -0.140625,0 -0.59375,-0.03125 -0.765625,-0.421875 0.15625,0 0.296875,0 0.421875,-0.125 C 1.328125,1.203125 1.421875,1.0625 1.421875,0.875 1.421875,0.5625 1.15625,0.53125 1.0625,0.53125 0.828125,0.53125 0.5,0.6875 0.5,1.171875 c 0,0.5 0.4375,0.875 1.0625,0.875 1.015625,0 2.046875,-0.90625 2.328125,-2.03125 z m 0,0"
             id="path1672" />
        </g>
      </g>
    </g>
    <g
       inkscape:label=""
       transform="matrix(0.37099226,0,0,0.40117431,28.018573,181.52729)"
       id="g1806">
      <g
         fill="#000000"
         fill-opacity="1"
         id="g3037">
        <g
           id="use2892"
           transform="translate(91.925003,81.962997)">
          <path
             d="M 3.328125,-3.015625 C 3.390625,-3.265625 3.625,-4.1875 4.3125,-4.1875 c 0.046875,0 0.296875,0 0.5,0.125 C 4.53125,-4 4.34375,-3.765625 4.34375,-3.515625 c 0,0.15625 0.109375,0.34375 0.375,0.34375 0.21875,0 0.53125,-0.171875 0.53125,-0.578125 0,-0.515625 -0.578125,-0.65625 -0.921875,-0.65625 -0.578125,0 -0.921875,0.53125 -1.046875,0.75 -0.25,-0.65625 -0.78125,-0.75 -1.078125,-0.75 -1.03125,0 -1.609375,1.28125 -1.609375,1.53125 0,0.109375 0.109375,0.109375 0.125,0.109375 0.078125,0 0.109375,-0.03125 0.125,-0.109375 0.34375,-1.0625 1,-1.3125 1.34375,-1.3125 0.1875,0 0.53125,0.09375 0.53125,0.671875 0,0.3125 -0.171875,0.96875 -0.53125,2.375 -0.15625,0.609375 -0.515625,1.03125 -0.953125,1.03125 -0.0625,0 -0.28125,0 -0.5,-0.125 0.25,-0.0625 0.46875,-0.265625 0.46875,-0.546875 0,-0.265625 -0.21875,-0.34375 -0.359375,-0.34375 -0.3125,0 -0.546875,0.25 -0.546875,0.578125 0,0.453125 0.484375,0.65625 0.921875,0.65625 0.671875,0 1.03125,-0.703125 1.046875,-0.75 0.125,0.359375 0.484375,0.75 1.078125,0.75 1.03125,0 1.59375,-1.28125 1.59375,-1.53125 0,-0.109375 -0.078125,-0.109375 -0.109375,-0.109375 -0.09375,0 -0.109375,0.046875 -0.140625,0.109375 -0.328125,1.078125 -1,1.3125 -1.3125,1.3125 -0.390625,0 -0.546875,-0.3125 -0.546875,-0.65625 0,-0.21875 0.046875,-0.4375 0.15625,-0.875 z m 0,0"
             id="path1676" />
        </g>
      </g>
    </g>
    <path
       style="fill:#ffffff;stroke:blue;stroke-width:0.313943;stroke-linecap:butt;stroke-linejoin:miter;stroke-miterlimit:4;stroke-dasharray:none;stroke-opacity:1;marker-start:none;marker-end:none"
       d="m 35.109224,213.56295 18.131889,-9.05586"
       id="path1868" />
    <ellipse
       style="fill:#ff0000;stroke-width:0.335556;stroke-linejoin:bevel;stroke-miterlimit:4;stroke-dasharray:none"
       id="path1972"
       cx="53.354107"
       cy="204.58948"
       rx="0.95158464"
       ry="1.0648994" />
    <path
       style="fill:#ffffff;stroke:#000000;stroke-width:0.313943;stroke-linecap:butt;stroke-linejoin:miter;stroke-miterlimit:4;stroke-dasharray:none;stroke-opacity:1;marker-start:none;marker-end:none"
       d="m 39.083278,211.6779 c 0.290339,0.67569 0.270227,1.29856 0,1.87854"
       id="path2487"
       sodipodi:nodetypes="cc" />
    <path
       style="fill:#ffffff;stroke:#000000;stroke-width:0.313943;stroke-linecap:butt;stroke-linejoin:miter;stroke-miterlimit:4;stroke-dasharray:none;stroke-opacity:1;marker-start:none;marker-end:none"
       d="m 53.863385,205.62048 c 1.035465,2.01644 1.777118,4.79487 1.674925,8.12514"
       id="path7120"
       sodipodi:nodetypes="cc" />
    <text
       style="font-size:2.36581px;font-family:'Hack Nerd Font';-inkscape-font-specification:'Hack Nerd Font, Normal';fill:#000000;fill-opacity:1;stroke:none;stroke-width:0.197151"
       xml:space="preserve"
       id="text2360"
       y="202.83667"
       x="41.809505"
       transform="scale(0.97619912,1.0243812)"><tspan
         sodipodi:role="line"
         id="tspan2358"
         style="stroke-width:0.197151"
         x="41.809505"
         y="202.83667">$1$</tspan></text>
    <text
       style="font-size:2.36581px;font-family:'Hack Nerd Font';-inkscape-font-specification:'Hack Nerd Font, Normal';fill:#000000;fill-opacity:1;stroke:none;stroke-width:0.197151"
       xml:space="preserve"
       id="text2372"
       y="195.95096"
       x="44.719395"
       transform="scale(0.97619912,1.0243812)"><tspan
         sodipodi:role="line"
         id="tspan2370"
         style="stroke-width:0.197151"
         x="44.719395"
         y="195.95096">$P(\cos(\theta), \sin(\theta))$</tspan></text>
    <path
       style="fill:white;stroke:red;stroke-width:0.4213225;stroke-linecap:butt;stroke-linejoin:miter;stroke-dasharray:none;stroke-opacity:1;marker-start:none;marker-end:none"
       d="m 53.372176,213.47782 -0.02914,-7.85431"
       id="path3672" />
    <text
       style="font-size:2.36581px;font-family:'Hack Nerd Font';-inkscape-font-specification:'Hack Nerd Font, Normal';fill:#000000;fill-opacity:1;stroke:none;stroke-width:0.197151"
       xml:space="preserve"
       id="text4228"
       y="208.01617"
       x="41.573666"
       transform="scale(0.9761991,1.0243812)"><tspan
         sodipodi:role="line"
         id="tspan4226"
         style="stroke-width:0.197151"
         x="41.573666"
         y="208.01617">$\theta$</tspan></text>
    <text
       style="font-style:normal;font-variant:normal;font-weight:normal;font-stretch:normal;font-size:2.36581px;font-family:'Hack Nerd Font';-inkscape-font-specification:'Hack Nerd Font, Normal';font-variant-ligatures:normal;font-variant-caps:normal;font-variant-numeric:normal;font-variant-east-asian:normal;fill:#000000;fill-opacity:1;stroke:none;stroke-width:0.264583"
       xml:space="preserve"
       id="text8218"
       y="216.15913"
       x="38.25399"><tspan
         sodipodi:role="line"
         id="tspan8216"
         style="font-style:normal;font-variant:normal;font-weight:normal;font-stretch:normal;font-size:2.36581px;font-family:'Hack Nerd Font';-inkscape-font-specification:'Hack Nerd Font, Normal';font-variant-ligatures:normal;font-variant-caps:normal;font-variant-numeric:normal;font-variant-east-asian:normal;stroke-width:0.264583"
         x="38.25399"
         y="216.15913">$\cos (\theta)$</tspan></text>
    <text
       style="font-style:normal;font-variant:normal;font-weight:normal;font-stretch:normal;font-size:2.36581px;font-family:'Hack Nerd Font';-inkscape-font-specification:'Hack Nerd Font, Normal';font-variant-ligatures:normal;font-variant-caps:normal;font-variant-numeric:normal;font-variant-east-asian:normal;fill:#000000;fill-opacity:1;stroke:none;stroke-width:0.264583"
       xml:space="preserve"
       id="text8218-0"
       y="233.13373"
       x="116.14386"><tspan
         sodipodi:role="line"
         id="tspan8216-2"
         style="font-style:normal;font-variant:normal;font-weight:normal;font-stretch:normal;font-size:2.36581px;font-family:'Hack Nerd Font';-inkscape-font-specification:'Hack Nerd Font, Normal';font-variant-ligatures:normal;font-variant-caps:normal;font-variant-numeric:normal;font-variant-east-asian:normal;stroke-width:0.264583"
         x="116.14386"
         y="233.13373">$\cos (\theta)$</tspan></text>
    <text
       style="font-style:normal;font-variant:normal;font-weight:normal;font-stretch:normal;font-size:2.36581px;font-family:'Hack Nerd Font';-inkscape-font-specification:'Hack Nerd Font, Normal';font-variant-ligatures:normal;font-variant-caps:normal;font-variant-numeric:normal;font-variant-east-asian:normal;fill:#000000;fill-opacity:1;stroke:none;stroke-width:0.264583"
       xml:space="preserve"
       id="text8248"
       y="210.84378"
       x="55.452751"><tspan
         sodipodi:role="line"
         id="tspan8246"
         style="font-style:normal;font-variant:normal;font-weight:normal;font-stretch:normal;font-size:2.36581px;font-family:'Hack Nerd Font';-inkscape-font-specification:'Hack Nerd Font, Normal';font-variant-ligatures:normal;font-variant-caps:normal;font-variant-numeric:normal;font-variant-east-asian:normal;stroke-width:0.264583"
         x="55.452751"
         y="210.84378">$\sin (\theta)$</tspan></text>
    <text
       style="font-style:normal;font-variant:normal;font-weight:normal;font-stretch:normal;font-size:2.36581px;font-family:'Hack Nerd Font';-inkscape-font-specification:'Hack Nerd Font, Normal';font-variant-ligatures:normal;font-variant-caps:normal;font-variant-numeric:normal;font-variant-east-asian:normal;fill:#000000;fill-opacity:1;stroke:none;stroke-width:0.264583"
       xml:space="preserve"
       id="text8248-1"
       y="214.88411"
       x="93.493866"><tspan
         sodipodi:role="line"
         id="tspan8246-0"
         style="font-style:normal;font-variant:normal;font-weight:normal;font-stretch:normal;font-size:2.36581px;font-family:'Hack Nerd Font';-inkscape-font-specification:'Hack Nerd Font, Normal';font-variant-ligatures:normal;font-variant-caps:normal;font-variant-numeric:normal;font-variant-east-asian:normal;stroke-width:0.264583"
         x="93.493866"
         y="214.88411">$\sin (\theta)$</tspan></text>
    <path
       style="fill:white;stroke:red;stroke-width:0.4213225;stroke-linecap:butt;stroke-linejoin:miter;stroke-opacity:1;marker-end:none;marker-start:none;stroke-dasharray:none"
       d="m 35.258131,213.6363 18.121111,-0.0697"
       id="path8549" />
    <path
       style="fill:#ffffff;stroke:#000000;stroke-width:0.85331;stroke-linecap:butt;stroke-linejoin:miter;stroke-miterlimit:4;stroke-dasharray:none;stroke-opacity:1;marker-start:none;marker-end:url(#marker-arrow-1.5923999999999998)"
       d="m 75.638242,214.97264 9.994378,0.0855"
       id="path10791" />
    <path
       style="fill:#ffffff;stroke:#ff0000;stroke-width:0.360791;stroke-linecap:butt;stroke-linejoin:miter;stroke-dasharray:none;stroke-opacity:1;marker-start:none;marker-end:none"
       d="m 104.36422,192.12092 -0.45068,37.9055"
       id="path11658" />
    <path
       style="fill:#ffffff;stroke:#ff0000;stroke-width:0.368602;stroke-linecap:butt;stroke-linejoin:miter;stroke-dasharray:none;stroke-opacity:1;marker-start:none;marker-end:none"
       d="m 144.06938,229.84681 -40.40497,0.0254"
       id="path11934" />
    <text
       style="font-size:2.36581px;font-family:'Hack Nerd Font';-inkscape-font-specification:'Hack Nerd Font, Normal';fill:#000000;fill-opacity:1;stroke:none;stroke-width:0.197151"
       xml:space="preserve"
       id="text4228-6"
       y="222.40543"
       x="134.5186"
       transform="scale(0.9761991,1.0243812)"><tspan
         sodipodi:role="line"
         id="tspan4226-8"
         style="stroke-width:0.197151"
         x="134.5186"
         y="222.40543">$\theta$</tspan></text>
    <path
       style="fill:#ffffff;stroke:#0000ff;stroke-width:0.424427;stroke-linecap:butt;stroke-linejoin:miter;stroke-dasharray:none;stroke-opacity:1;marker-start:none;marker-end:none"
       d="m 104.23188,192.17014 39.76632,37.55099"
       id="path12193" />
    <text
       style="font-style:normal;font-variant:normal;font-weight:normal;font-stretch:normal;font-size:2.36581px;font-family:'Hack Nerd Font';-inkscape-font-specification:'Hack Nerd Font, Normal';font-variant-ligatures:normal;font-variant-caps:normal;font-variant-numeric:normal;font-variant-east-asian:normal;fill:#000000;fill-opacity:1;stroke:none;stroke-width:0.264583"
       xml:space="preserve"
       id="text12811"
       y="210.01833"
       x="124.41879"><tspan
         sodipodi:role="line"
         id="tspan12809"
         style="font-style:normal;font-variant:normal;font-weight:normal;font-stretch:normal;font-size:2.36581px;font-family:'Hack Nerd Font';-inkscape-font-specification:'Hack Nerd Font, Normal';font-variant-ligatures:normal;font-variant-caps:normal;font-variant-numeric:normal;font-variant-east-asian:normal;stroke-width:0.264583"
         x="124.41879"
         y="210.01833">$1$</tspan></text>
    <path
       style="fill:white;stroke:black;stroke-width:0.4213225;stroke-linecap:butt;stroke-linejoin:miter;stroke-opacity:1;marker-end:none;marker-start:none;stroke-dasharray:none"
       d="m 140.29497,226.37278 c -3.57651,-0.22162 -2.98359,3.2851 -2.98359,3.2851"
       id="path13124" />
    <path
       style="fill:white;stroke:black;stroke-width:0.28088167;stroke-linecap:butt;stroke-linejoin:miter;stroke-opacity:1;marker-end:none;marker-start:none;stroke-dasharray:none"
       d="m 103.99812,224.52743 4.75197,-0.0647 -0.0339,5.20925"
       id="path13263" />
  </g>
</svg>
