<?xml version="1.0" encoding="UTF-8" standalone="no"?>
<!-- Created with Inkscape (http://www.inkscape.org/) -->

<svg
   width="240mm"
   height="120mm"
   viewBox="0 0 240 120"
   version="1.1"
   id="svg8"
   inkscape:version="1.1.2 (0a00cf5339, 2022-02-04, custom)"
   sodipodi:docname="sin-cos-in-different-quadrants.svg"
   xmlns:inkscape="http://www.inkscape.org/namespaces/inkscape"
   xmlns:sodipodi="http://sodipodi.sourceforge.net/DTD/sodipodi-0.dtd"
   xmlns="http://www.w3.org/2000/svg"
   xmlns:svg="http://www.w3.org/2000/svg"
   xmlns:rdf="http://www.w3.org/1999/02/22-rdf-syntax-ns#"
   xmlns:cc="http://creativecommons.org/ns#"
   xmlns:dc="http://purl.org/dc/elements/1.1/">
  <defs
     id="defs2">
    <marker
       style="overflow:visible"
       id="Arrow1Mend"
       refX="0"
       refY="0"
       orient="auto"
       inkscape:stockid="Arrow1Mend"
       inkscape:isstock="true">
      <path
         transform="matrix(-0.4,0,0,-0.4,-4,0)"
         style="fill:context-stroke;fill-rule:evenodd;stroke:context-stroke;stroke-width:1pt"
         d="M 0,0 5,-5 -12.5,0 5,5 Z"
         id="path1181" />
    </marker>
    <marker
       style="overflow:visible"
       id="marker1538"
       refX="0"
       refY="0"
       orient="auto"
       inkscape:stockid="Arrow1Mstart"
       inkscape:isstock="true">
      <path
         transform="matrix(0.4,0,0,0.4,4,0)"
         style="fill:context-stroke;fill-rule:evenodd;stroke:context-stroke;stroke-width:1pt"
         d="M 0,0 5,-5 -12.5,0 5,5 Z"
         id="path1536" />
    </marker>
    <marker
       style="overflow:visible"
       id="marker1993"
       refX="0"
       refY="0"
       orient="auto"
       inkscape:stockid="Arrow1Mend"
       inkscape:isstock="true">
      <path
         transform="matrix(-0.4,0,0,-0.4,-4,0)"
         style="fill:context-stroke;fill-rule:evenodd;stroke:context-stroke;stroke-width:1pt"
         d="M 0,0 5,-5 -12.5,0 5,5 Z"
         id="path1991" />
    </marker>
    <marker
       style="overflow:visible"
       id="Arrow1Mstart"
       refX="0"
       refY="0"
       orient="auto"
       inkscape:stockid="Arrow1Mstart"
       inkscape:isstock="true">
      <path
         transform="matrix(0.4,0,0,0.4,4,0)"
         style="fill:context-stroke;fill-rule:evenodd;stroke:context-stroke;stroke-width:1pt"
         d="M 0,0 5,-5 -12.5,0 5,5 Z"
         id="path1178" />
    </marker>
    <marker
       style="overflow:visible"
       id="marker1999"
       refX="0"
       refY="0"
       orient="auto"
       inkscape:stockid="Arrow1Mstart"
       inkscape:isstock="true">
      <path
         transform="matrix(0.4,0,0,0.4,4,0)"
         style="fill:context-stroke;fill-rule:evenodd;stroke:context-stroke;stroke-width:1pt"
         d="M 0,0 5,-5 -12.5,0 5,5 Z"
         id="path1997" />
    </marker>
    <marker
       style="overflow:visible"
       id="marker2003"
       refX="0"
       refY="0"
       orient="auto"
       inkscape:stockid="Arrow1Mend"
       inkscape:isstock="true">
      <path
         transform="matrix(-0.4,0,0,-0.4,-4,0)"
         style="fill:context-stroke;fill-rule:evenodd;stroke:context-stroke;stroke-width:1pt"
         d="M 0,0 5,-5 -12.5,0 5,5 Z"
         id="path2001" />
    </marker>
  </defs>
  <sodipodi:namedview
     id="base"
     pagecolor="#ffffff"
     bordercolor="#666666"
     borderopacity="1.0"
     inkscape:pageopacity="0.0"
     inkscape:pageshadow="2"
     inkscape:zoom="1.406257"
     inkscape:cx="302.22071"
     inkscape:cy="232.53217"
     inkscape:document-units="mm"
     inkscape:current-layer="layer1"
     showgrid="false"
     showborder="true"
     width="200mm"
     showguides="false"
     inkscape:guide-bbox="true"
     inkscape:window-width="1114"
     inkscape:window-height="876"
     inkscape:window-x="0"
     inkscape:window-y="18"
     inkscape:window-maximized="1"
     inkscape:pagecheckerboard="1"
     inkscape:snap-intersection-paths="true"
     inkscape:snap-global="false">
    <inkscape:grid
       type="xygrid"
       id="grid815"
       units="mm"
       spacingx="10"
       spacingy="10"
       empspacing="4"
       dotted="false" />
  </sodipodi:namedview>
  <metadata
     id="metadata5">
    <rdf:RDF>
      <cc:Work
         rdf:about="">
        <dc:format>image/svg+xml</dc:format>
        <dc:type
           rdf:resource="http://purl.org/dc/dcmitype/StillImage" />
      </cc:Work>
    </rdf:RDF>
  </metadata>
  <g
     inkscape:label="Layer 1"
     inkscape:groupmode="layer"
     id="layer1"
     transform="translate(0,-177)">
    <ellipse
       style="fill:#e6e5f3;stroke-width:0.168696"
       id="path191"
       cx="83.475456"
       cy="242.56111"
       rx="33.127201"
       ry="32.476055" />
    <path
       style="fill:none;stroke:#000000;stroke-width:0.59283;stroke-linecap:butt;stroke-linejoin:miter;stroke-miterlimit:4;stroke-dasharray:none;stroke-opacity:1;marker-start:url(#Arrow1Mstart);marker-mid:url(#Arrow1Mstart);marker-end:url(#Arrow1Mend)"
       d="m 83.471435,201.19333 -0.0042,82.93684"
       id="path256" />
    <path
       style="fill:none;stroke:#000000;stroke-width:0.59283;stroke-linecap:butt;stroke-linejoin:bevel;stroke-miterlimit:4;stroke-dasharray:none;stroke-opacity:1;marker-start:url(#marker1538);marker-end:url(#Arrow1Mend)"
       d="m 42.422045,241.49162 83.530445,-0.0799"
       id="path1587" />
    <g
       inkscape:label=""
       transform="matrix(0.60048027,0,0,0.60071097,27.168682,147.89855)"
       id="g1725">
      <g
         fill="#000000"
         fill-opacity="1"
         id="g7984">
        <g
           id="use8182"
           transform="translate(91.925003,81.962997)">
          <path
             d="m 4.84375,-3.796875 c 0.046875,-0.140625 0.046875,-0.15625 0.046875,-0.234375 0,-0.171875 -0.140625,-0.265625 -0.296875,-0.265625 -0.09375,0 -0.25,0.0625 -0.34375,0.203125 -0.015625,0.0625 -0.109375,0.359375 -0.140625,0.546875 -0.078125,0.25 -0.140625,0.53125 -0.203125,0.796875 l -0.453125,1.796875 c -0.03125,0.140625 -0.46875,0.84375 -1.125,0.84375 -0.5,0 -0.609375,-0.4375 -0.609375,-0.8125 C 1.71875,-1.375 1.890625,-2 2.21875,-2.875 2.375,-3.28125 2.421875,-3.390625 2.421875,-3.59375 c 0,-0.4375 -0.3125,-0.8125 -0.8125,-0.8125 -0.953125,0 -1.3125,1.453125 -1.3125,1.53125 0,0.109375 0.09375,0.109375 0.109375,0.109375 0.109375,0 0.109375,-0.03125 0.15625,-0.1875 0.28125,-0.9375 0.671875,-1.234375 1.015625,-1.234375 0.078125,0 0.25,0 0.25,0.3125 0,0.25 -0.109375,0.515625 -0.171875,0.703125 -0.40625,1.0625 -0.578125,1.625 -0.578125,2.09375 0,0.890625 0.625,1.1875 1.21875,1.1875 0.390625,0 0.71875,-0.171875 1,-0.453125 -0.125,0.515625 -0.25,1.015625 -0.640625,1.546875 -0.265625,0.328125 -0.640625,0.625 -1.09375,0.625 -0.140625,0 -0.59375,-0.03125 -0.765625,-0.421875 0.15625,0 0.296875,0 0.421875,-0.125 C 1.328125,1.203125 1.421875,1.0625 1.421875,0.875 1.421875,0.5625 1.15625,0.53125 1.0625,0.53125 0.828125,0.53125 0.5,0.6875 0.5,1.171875 c 0,0.5 0.4375,0.875 1.0625,0.875 1.015625,0 2.046875,-0.90625 2.328125,-2.03125 z m 0,0"
             id="path2289" />
        </g>
      </g>
    </g>
    <g
       inkscape:label=""
       transform="matrix(0.60048027,0,0,0.60071097,71.915137,193.40926)"
       id="g1806">
      <g
         fill="#000000"
         fill-opacity="1"
         id="g3037">
        <g
           id="use2892"
           transform="translate(91.925003,81.962997)">
          <path
             d="M 3.328125,-3.015625 C 3.390625,-3.265625 3.625,-4.1875 4.3125,-4.1875 c 0.046875,0 0.296875,0 0.5,0.125 C 4.53125,-4 4.34375,-3.765625 4.34375,-3.515625 c 0,0.15625 0.109375,0.34375 0.375,0.34375 0.21875,0 0.53125,-0.171875 0.53125,-0.578125 0,-0.515625 -0.578125,-0.65625 -0.921875,-0.65625 -0.578125,0 -0.921875,0.53125 -1.046875,0.75 -0.25,-0.65625 -0.78125,-0.75 -1.078125,-0.75 -1.03125,0 -1.609375,1.28125 -1.609375,1.53125 0,0.109375 0.109375,0.109375 0.125,0.109375 0.078125,0 0.109375,-0.03125 0.125,-0.109375 0.34375,-1.0625 1,-1.3125 1.34375,-1.3125 0.1875,0 0.53125,0.09375 0.53125,0.671875 0,0.3125 -0.171875,0.96875 -0.53125,2.375 -0.15625,0.609375 -0.515625,1.03125 -0.953125,1.03125 -0.0625,0 -0.28125,0 -0.5,-0.125 0.25,-0.0625 0.46875,-0.265625 0.46875,-0.546875 0,-0.265625 -0.21875,-0.34375 -0.359375,-0.34375 -0.3125,0 -0.546875,0.25 -0.546875,0.578125 0,0.453125 0.484375,0.65625 0.921875,0.65625 0.671875,0 1.03125,-0.703125 1.046875,-0.75 0.125,0.359375 0.484375,0.75 1.078125,0.75 1.03125,0 1.59375,-1.28125 1.59375,-1.53125 0,-0.109375 -0.078125,-0.109375 -0.109375,-0.109375 -0.09375,0 -0.109375,0.046875 -0.140625,0.109375 -0.328125,1.078125 -1,1.3125 -1.3125,1.3125 -0.390625,0 -0.546875,-0.3125 -0.546875,-0.65625 0,-0.21875 0.046875,-0.4375 0.15625,-0.875 z m 0,0"
             id="path2293" />
        </g>
      </g>
    </g>
    <path
       style="fill:none;stroke:#000000;stroke-width:0.59283;stroke-linecap:butt;stroke-linejoin:miter;stroke-miterlimit:4;stroke-dasharray:none;stroke-opacity:1"
       d="M 83.391917,241.37885 112.73979,227.81878"
       id="path1868" />
    <path
       style="fill:none;stroke:#000000;stroke-width:0.59283;stroke-linecap:butt;stroke-linejoin:miter;stroke-miterlimit:4;stroke-dasharray:none;stroke-opacity:1"
       d="m 89.824234,238.55621 c 0.469946,1.01176 0.437388,1.94444 0,2.81288"
       id="path2487"
       sodipodi:nodetypes="cc" />
    <g
       inkscape:label=""
       transform="matrix(0.43714905,0,0,0.42684092,52.701811,205.42422)"
       id="g4724">
      <g
         fill="#000000"
         fill-opacity="1"
         id="g5361">
        <g
           id="use6029"
           transform="translate(91.925003,81.962997)">
          <path
             d="m 4.53125,-4.984375 c 0,-0.65625 -0.171875,-2.046875 -1.1875,-2.046875 -1.390625,0 -2.921875,2.8125 -2.921875,5.09375 0,0.9375 0.28125,2.046875 1.1875,2.046875 1.40625,0 2.921875,-2.859375 2.921875,-5.09375 z M 1.46875,-3.625 C 1.640625,-4.25 1.84375,-5.046875 2.25,-5.765625 2.515625,-6.25 2.875,-6.8125 3.328125,-6.8125 c 0.484375,0 0.546875,0.640625 0.546875,1.203125 0,0.5 -0.078125,1 -0.3125,1.984375 z m 2,0.328125 C 3.359375,-2.84375 3.15625,-2 2.765625,-1.28125 c -0.34375,0.6875 -0.71875,1.171875 -1.15625,1.171875 -0.328125,0 -0.53125,-0.296875 -0.53125,-1.21875 0,-0.421875 0.0625,-1 0.3125,-1.96875 z m 0,0"
             id="path2297" />
        </g>
      </g>
    </g>
    <rect
       style="fill:#ffffff;fill-opacity:0.2;stroke:#000000;stroke-width:0.275119;stroke-linejoin:bevel;stroke-dasharray:1.0317, 1.0317;stroke-opacity:1;marker-start:none;marker-end:none"
       id="rect8079"
       width="58.684467"
       height="29.815285"
       x="54.047852"
       y="227.82626"
       ry="0"
       rx="0" />
    <ellipse
       style="fill:#ff0000;stroke-width:0.522395;stroke-linejoin:bevel;stroke-miterlimit:4;stroke-dasharray:none"
       id="path1972-1"
       cx="53.810101"
       cy="257.71515"
       rx="1.540215"
       ry="1.5945606" />
    <ellipse
       style="fill:#ff0000;stroke-width:0.522395;stroke-linejoin:bevel;stroke-miterlimit:4;stroke-dasharray:none"
       id="path1972-10"
       cx="54.245193"
       cy="228.42297"
       rx="1.540215"
       ry="1.5945606" />
    <ellipse
       style="fill:#ff0000;stroke-width:0.522395;stroke-linejoin:bevel;stroke-miterlimit:4;stroke-dasharray:none"
       id="path1972-3"
       cx="112.51203"
       cy="257.52701"
       rx="1.540215"
       ry="1.5945606" />
    <ellipse
       style="fill:#ff0000;stroke-width:0.522395;stroke-linejoin:bevel;stroke-miterlimit:4;stroke-dasharray:none"
       id="path1972"
       cx="112.70018"
       cy="228.17604"
       rx="1.540215"
       ry="1.5945606" />
    <text
       style="font-size:3.175px;font-family:'Hack Nerd Font';-inkscape-font-specification:'Hack Nerd Font, Normal';fill:#000000;fill-opacity:1;stroke:none;stroke-width:0.264583"
       xml:space="preserve"
       id="text8912"
       y="225.11243"
       x="104.45934"><tspan
         sodipodi:role="line"
         id="tspan8910"
         style="stroke-width:0.264583"
         x="104.45934"
         y="225.11243">$(a, b)$</tspan></text>
    <text
       style="font-size:3.175px;font-family:'Hack Nerd Font';-inkscape-font-specification:'Hack Nerd Font, Normal';fill:#000000;fill-opacity:1;stroke:none;stroke-width:0.264583"
       xml:space="preserve"
       id="text8924"
       y="225.23177"
       x="48.035645"><tspan
         sodipodi:role="line"
         id="tspan8922"
         style="stroke-width:0.264583"
         x="48.035645"
         y="225.23177">$(-a, b)$</tspan></text>
    <text
       style="font-size:3.175px;font-family:'Hack Nerd Font';-inkscape-font-specification:'Hack Nerd Font, Normal';fill:#000000;fill-opacity:1;stroke:none;stroke-width:0.264583"
       xml:space="preserve"
       id="text8936"
       y="263.76697"
       x="45.0914"><tspan
         sodipodi:role="line"
         id="tspan8934"
         style="stroke-width:0.264583"
         x="45.0914"
         y="263.76697">$(-a, -b)$</tspan></text>
    <text
       style="font-size:3.175px;font-family:'Hack Nerd Font';-inkscape-font-specification:'Hack Nerd Font, Normal';fill:#000000;fill-opacity:1;stroke:none;stroke-width:0.264583"
       xml:space="preserve"
       id="text8948"
       y="262.91882"
       x="103.36298"><tspan
         sodipodi:role="line"
         id="tspan8946"
         style="stroke-width:0.264583"
         x="103.36298"
         y="262.91882">$(a, -b)$</tspan></text>
  </g>
</svg>
