<?xml version="1.0" encoding="UTF-8" standalone="no"?>
<!-- Created with Inkscape (http://www.inkscape.org/) -->

<svg
   width="240mm"
   height="120mm"
   viewBox="0 0 240 120"
   version="1.1"
   id="svg8"
   inkscape:version="1.1.2 (0a00cf5339, 2022-02-04, custom)"
   sodipodi:docname="hello.svg"
   xmlns:inkscape="http://www.inkscape.org/namespaces/inkscape"
   xmlns:sodipodi="http://sodipodi.sourceforge.net/DTD/sodipodi-0.dtd"
   xmlns="http://www.w3.org/2000/svg"
   xmlns:svg="http://www.w3.org/2000/svg"
   xmlns:rdf="http://www.w3.org/1999/02/22-rdf-syntax-ns#"
   xmlns:cc="http://creativecommons.org/ns#"
   xmlns:dc="http://purl.org/dc/elements/1.1/">
  <defs
     id="defs2" />
  <sodipodi:namedview
     id="base"
     pagecolor="#ffffff"
     bordercolor="#666666"
     borderopacity="1.0"
     inkscape:pageopacity="0.0"
     inkscape:pageshadow="2"
     inkscape:zoom="0.99437388"
     inkscape:cx="284.6012"
     inkscape:cy="179.00712"
     inkscape:document-units="mm"
     inkscape:current-layer="layer1"
     showgrid="false"
     showborder="true"
     width="200mm"
     showguides="true"
     inkscape:guide-bbox="true"
     inkscape:window-width="796"
     inkscape:window-height="856"
     inkscape:window-x="800"
     inkscape:window-y="40"
     inkscape:window-maximized="1"
     inkscape:pagecheckerboard="0">
    <inkscape:grid
       type="xygrid"
       id="grid815"
       units="mm"
       spacingx="10"
       spacingy="10"
       empspacing="4"
       dotted="false" />
  </sodipodi:namedview>
  <metadata
     id="metadata5">
    <rdf:RDF>
      <cc:Work
         rdf:about="">
        <dc:format>image/svg+xml</dc:format>
        <dc:type
           rdf:resource="http://purl.org/dc/dcmitype/StillImage" />
        <dc:title />
      </cc:Work>
    </rdf:RDF>
  </metadata>
  <g
     inkscape:label="Layer 1"
     inkscape:groupmode="layer"
     id="layer1"
     transform="translate(0,-177)">
    <path
       style="fill:none;stroke:#000000;stroke-width:0.264583px;stroke-linecap:butt;stroke-linejoin:miter;stroke-opacity:1"
       d="m 21.824092,247.54745 c -0.929351,-3.87386 -0.479152,-1.31262 -0.479152,-7.78678 0,-0.57504 -0.288149,-1.22749 0,-1.72513 0.232518,-0.40157 0.657045,-0.65542 0.985718,-0.98298 3.778784,-3.76593 9.548815,-7.80267 14.833508,-8.77536 3.404034,-0.62654 19.068843,-1.59957 22.621731,0.25529 3.041492,1.58787 5.380607,4.28336 7.80052,6.71564 0.769427,0.77336 5.021395,6.98859 5.360519,7.97429 0.390539,1.13513 0.117452,5.65598 -1.102063,6.13318 -0.985129,0.38547 -2.010344,0.28748 -3.03248,0.28748 -0.647464,0 -1.484937,0.4582 -1.942399,0 -3.458969,-3.46453 -3.859122,-6.9919 -4.344397,-11.61795 -0.149072,-1.42107 -0.305837,-9.32347 0,-10.83781 0.873863,-4.32689 1.821736,-4.55029 4.725556,-7.99025 4.637852,-5.49416 9.573736,-11.72452 16.527579,-14.44989 6.44136,-2.52451 17.741028,-3.56023 24.246018,-0.50435 3.0807,1.44723 3.93397,1.52703 3.93397,5.26465 0,0.50212 0.12223,1.75069 -0.43124,2.10827 -1.07738,0.69607 -3.98724,0.69559 -5.02376,0.729 -0.6299,0.0203 -1.26046,0 -1.89069,0 -0.27221,0 -0.60003,0.16488 -0.81663,0 -2.26044,-1.72072 -1.14383,-7.56551 -1.15929,-8.45529 -0.0306,-1.75982 -0.38913,-3.56372 0,-5.28025 1.48215,-6.53811 4.97362,-6.03253 10.18663,-7.80313 2.94593,-1.00058 5.69244,-2.61812 8.72382,-3.31844 1.97188,-0.45555 4.28179,-0.53234 6.34958,-0.53234"
       id="path134" />
  </g>
</svg>
